<svg xmlns="http://www.w3.org/2000/svg" xmlns:xlink="http://www.w3.org/1999/xlink" width="40" zoomAndPan="magnify" viewBox="0 0 30 30.000001" height="40" preserveAspectRatio="xMidYMid meet" version="1.0"><defs><clipPath id="8a68c5fed9"><path d="M 0.484375 0.265625 L 29.515625 0.265625 L 29.515625 28.570312 L 0.484375 28.570312 Z M 0.484375 0.265625 " clip-rule="nonzero"/></clipPath></defs><g clip-path="url(#8a68c5fed9)"><path fill="#da6540" d="M 1.261719 17.554688 L 28.90625 17.609375 C 28.882812 19.140625 28.589844 23.375 25.363281 25.792969 C 24.636719 26.324219 23.835938 26.683594 22.957031 26.875 C 22.972656 26.910156 22.984375 26.953125 22.984375 26.992188 L 22.984375 28.285156 C 22.96875 28.421875 22.902344 28.535156 22.792969 28.625 C 22.683594 28.710938 22.558594 28.75 22.421875 28.734375 L 21.972656 28.734375 C 21.832031 28.75 21.707031 28.710938 21.597656 28.625 C 21.488281 28.535156 21.425781 28.421875 21.40625 28.285156 L 21.40625 27.132812 C 19.363281 27.296875 17.320312 27.355469 15.273438 27.308594 C 13.097656 27.355469 10.929688 27.289062 8.761719 27.109375 L 8.761719 28.285156 C 8.742188 28.421875 8.679688 28.535156 8.570312 28.625 C 8.460938 28.710938 8.335938 28.75 8.195312 28.734375 L 7.75 28.734375 C 7.609375 28.75 7.484375 28.710938 7.375 28.625 C 7.265625 28.535156 7.199219 28.421875 7.183594 28.285156 L 7.183594 26.992188 C 7.183594 26.941406 7.195312 26.890625 7.222656 26.839844 C 6.257812 26.632812 5.386719 26.226562 4.609375 25.625 C 1.578125 23.230469 1.273438 19.238281 1.261719 17.554688 Z M 28.476562 14.214844 L 27.867188 14.214844 C 27.859375 12.429688 27.863281 10.640625 27.875 8.851562 C 27.949219 7.171875 27.894531 5.496094 27.707031 3.824219 C 27.664062 3.316406 27.519531 2.835938 27.273438 2.386719 C 27.023438 1.9375 26.695312 1.558594 26.289062 1.246094 C 24.808594 0.25 22.828125 0.449219 21.832031 1.945312 C 20.636719 1.8125 19.359375 2.449219 19.261719 3.046875 C 19.164062 3.601562 20.066406 4.191406 21.058594 4.84375 C 22.066406 5.507812 23.0625 6.160156 23.578125 5.820312 C 24.09375 5.484375 24.167969 4.109375 23.59375 3.09375 C 23.734375 2.898438 23.925781 2.773438 24.164062 2.722656 C 24.40625 2.675781 24.628906 2.714844 24.835938 2.839844 C 24.976562 2.902344 25.105469 2.976562 25.230469 3.0625 C 25.011719 2.914062 25.25 3.144531 25.324219 3.195312 C 25.359375 3.28125 25.402344 3.363281 25.460938 3.4375 C 25.511719 3.582031 25.554688 3.726562 25.59375 3.878906 C 25.691406 4.320312 25.742188 4.773438 25.75 5.226562 C 25.902344 8.214844 25.78125 11.222656 25.773438 14.21875 L 1.511719 14.21875 C 1.367188 14.207031 1.226562 14.222656 1.089844 14.265625 C 0.953125 14.308594 0.828125 14.378906 0.71875 14.46875 C 0.609375 14.5625 0.519531 14.671875 0.453125 14.796875 C 0.382812 14.925781 0.34375 15.0625 0.328125 15.203125 C 0.34375 15.347656 0.382812 15.484375 0.453125 15.609375 C 0.519531 15.738281 0.609375 15.847656 0.71875 15.9375 C 0.828125 16.03125 0.953125 16.097656 1.089844 16.144531 C 1.226562 16.1875 1.367188 16.203125 1.511719 16.191406 L 28.476562 16.191406 C 28.617188 16.203125 28.757812 16.1875 28.894531 16.144531 C 29.035156 16.097656 29.15625 16.03125 29.269531 15.9375 C 29.378906 15.847656 29.46875 15.738281 29.535156 15.609375 C 29.601562 15.484375 29.644531 15.347656 29.65625 15.203125 C 29.644531 15.0625 29.601562 14.925781 29.535156 14.796875 C 29.46875 14.671875 29.378906 14.5625 29.269531 14.46875 C 29.15625 14.375 29.035156 14.308594 28.894531 14.265625 C 28.757812 14.222656 28.617188 14.207031 28.476562 14.214844 Z M 21.300781 8.851562 C 21.378906 8.921875 21.464844 8.96875 21.566406 8.992188 L 21.777344 9.019531 C 21.921875 9.019531 22.050781 8.984375 22.175781 8.910156 C 22.355469 8.800781 22.476562 8.644531 22.535156 8.441406 L 22.753906 7.644531 C 22.789062 7.542969 22.792969 7.4375 22.769531 7.332031 C 22.75 7.113281 22.648438 6.941406 22.472656 6.816406 C 22.394531 6.746094 22.304688 6.699219 22.203125 6.675781 L 21.992188 6.648438 C 21.851562 6.648438 21.71875 6.683594 21.597656 6.753906 C 21.414062 6.867188 21.292969 7.023438 21.234375 7.226562 L 21.019531 8.023438 C 20.984375 8.125 20.980469 8.230469 21.003906 8.335938 C 21.007812 8.441406 21.039062 8.539062 21.097656 8.628906 C 21.144531 8.71875 21.214844 8.792969 21.300781 8.851562 Z M 20.339844 10.503906 L 20.121094 11.296875 C 20.089844 11.398438 20.085938 11.503906 20.109375 11.609375 C 20.113281 11.71875 20.144531 11.816406 20.203125 11.902344 C 20.316406 12.082031 20.472656 12.203125 20.675781 12.265625 L 20.882812 12.292969 C 21.027344 12.292969 21.160156 12.257812 21.28125 12.1875 C 21.464844 12.078125 21.585938 11.921875 21.644531 11.714844 L 21.859375 10.921875 C 21.894531 10.820312 21.898438 10.714844 21.875 10.609375 C 21.855469 10.390625 21.757812 10.21875 21.578125 10.09375 C 21.5 10.023438 21.414062 9.976562 21.3125 9.953125 L 21.101562 9.925781 C 20.957031 9.925781 20.828125 9.960938 20.703125 10.03125 C 20.519531 10.140625 20.398438 10.296875 20.339844 10.503906 Z M 20.332031 5.652344 L 20.175781 5.53125 C 20.050781 5.460938 19.917969 5.421875 19.777344 5.421875 L 19.566406 5.453125 C 19.433594 5.488281 19.320312 5.554688 19.21875 5.652344 L 18.695312 6.289062 C 18.621094 6.359375 18.566406 6.441406 18.53125 6.542969 C 18.4375 6.742188 18.4375 6.945312 18.53125 7.148438 C 18.566406 7.246094 18.621094 7.332031 18.695312 7.402344 L 18.851562 7.523438 C 18.976562 7.597656 19.109375 7.632812 19.25 7.628906 L 19.460938 7.601562 C 19.59375 7.566406 19.710938 7.496094 19.808594 7.398438 L 20.332031 6.765625 C 20.410156 6.695312 20.464844 6.609375 20.496094 6.511719 C 20.589844 6.308594 20.589844 6.109375 20.496094 5.90625 C 20.464844 5.808594 20.410156 5.722656 20.332031 5.652344 Z M 16.53125 10.015625 L 16.691406 10.140625 C 16.8125 10.210938 16.945312 10.246094 17.085938 10.246094 L 17.296875 10.21875 C 17.433594 10.179688 17.550781 10.113281 17.648438 10.015625 C 17.824219 9.808594 18 9.597656 18.171875 9.382812 C 18.25 9.3125 18.304688 9.226562 18.335938 9.128906 C 18.429688 8.925781 18.429688 8.726562 18.335938 8.523438 C 18.304688 8.425781 18.25 8.339844 18.171875 8.269531 L 18.015625 8.148438 C 17.894531 8.074219 17.761719 8.039062 17.617188 8.039062 L 17.410156 8.066406 C 17.273438 8.105469 17.160156 8.171875 17.0625 8.269531 L 16.535156 8.902344 C 16.460938 8.972656 16.40625 9.058594 16.375 9.15625 C 16.277344 9.359375 16.277344 9.5625 16.375 9.765625 C 16.40625 9.863281 16.457031 9.945312 16.53125 10.015625 Z M 16.695312 5.316406 L 16.816406 5.476562 C 16.914062 5.574219 17.03125 5.640625 17.164062 5.675781 L 17.375 5.703125 C 17.515625 5.707031 17.648438 5.667969 17.769531 5.597656 L 18.476562 5.175781 C 18.566406 5.125 18.640625 5.058594 18.699219 4.972656 C 18.769531 4.898438 18.816406 4.808594 18.839844 4.707031 C 18.871094 4.601562 18.878906 4.496094 18.851562 4.390625 C 18.847656 4.285156 18.816406 4.1875 18.761719 4.097656 L 18.636719 3.941406 C 18.539062 3.84375 18.421875 3.773438 18.289062 3.738281 L 18.078125 3.710938 C 17.9375 3.710938 17.804688 3.746094 17.683594 3.816406 L 16.976562 4.242188 C 16.886719 4.289062 16.8125 4.355469 16.757812 4.445312 C 16.683594 4.519531 16.636719 4.609375 16.613281 4.710938 C 16.582031 4.816406 16.578125 4.921875 16.601562 5.027344 C 16.605469 5.132812 16.636719 5.230469 16.695312 5.316406 Z M 13.785156 7.0625 L 13.90625 7.21875 C 14.003906 7.320312 14.121094 7.386719 14.253906 7.421875 L 14.464844 7.449219 C 14.605469 7.453125 14.738281 7.417969 14.859375 7.347656 L 15.566406 6.921875 C 15.65625 6.875 15.730469 6.804688 15.789062 6.71875 C 15.929688 6.550781 15.984375 6.355469 15.945312 6.136719 C 15.941406 6.03125 15.910156 5.933594 15.851562 5.84375 L 15.726562 5.6875 C 15.628906 5.589844 15.515625 5.523438 15.382812 5.484375 L 15.171875 5.457031 C 15.027344 5.457031 14.894531 5.492188 14.773438 5.566406 L 14.066406 5.988281 C 13.976562 6.035156 13.902344 6.105469 13.847656 6.191406 C 13.703125 6.359375 13.652344 6.554688 13.691406 6.773438 C 13.695312 6.878906 13.726562 6.972656 13.785156 7.0625 Z M 13.785156 7.0625 " fill-opacity="1" fill-rule="nonzero"/></g></svg>