<svg xmlns="http://www.w3.org/2000/svg" xmlns:xlink="http://www.w3.org/1999/xlink" width="40" zoomAndPan="magnify" viewBox="0 0 30 30.000001" height="40" preserveAspectRatio="xMidYMid meet" version="1.0"><defs><clipPath id="4299bc100d"><path d="M 0.484375 22 L 24 22 L 24 25 L 0.484375 25 Z M 0.484375 22 " clip-rule="nonzero"/></clipPath><clipPath id="38f73aaed9"><path d="M 8.769531 28.078125 L 14.738281 28.078125 L 14.738281 28.851562 L 8.769531 28.851562 Z M 8.769531 28.078125 " clip-rule="nonzero"/></clipPath><clipPath id="bd49708598"><path d="M 16.078125 0.179688 L 29.511719 0.179688 L 29.511719 10.414062 L 16.078125 10.414062 Z M 16.078125 0.179688 " clip-rule="nonzero"/></clipPath></defs><path fill="#da6540" d="M 18.042969 20.789062 L 19.613281 21.46875 C 19.613281 21.46875 24.292969 11.328125 22.820312 4.050781 L 22.253906 4.082031 C 22.253906 4.082031 23.675781 9.886719 18.042969 20.789062 " fill-opacity="1" fill-rule="nonzero"/><path fill="#da6540" d="M 14.597656 19.363281 L 15.667969 19.511719 C 15.667969 19.511719 16.546875 11.890625 13.730469 6.835938 L 13.40625 6.980469 C 13.40625 6.980469 15.488281 11.71875 14.597656 19.363281 " fill-opacity="1" fill-rule="nonzero"/><path fill="#da6540" d="M 8.875 18.085938 L 8.855469 18.046875 L 7.828125 16.867188 L 9.554688 16.972656 L 11.570312 13.664062 C 11.628906 13.566406 11.753906 13.539062 11.851562 13.59375 C 11.945312 13.652344 11.976562 13.777344 11.917969 13.875 L 11.882812 13.929688 L 13.316406 14.015625 L 13.460938 13.777344 C 13.519531 13.683594 13.644531 13.652344 13.742188 13.710938 C 13.835938 13.769531 13.867188 13.894531 13.808594 13.988281 L 11.320312 18.070312 L 11.847656 19.128906 C 11.898438 19.230469 11.859375 19.351562 11.757812 19.402344 C 11.722656 19.417969 11.6875 19.425781 11.65625 19.421875 C 11.582031 19.417969 11.519531 19.378906 11.484375 19.3125 L 11.070312 18.480469 L 10.53125 19.363281 C 10.492188 19.433594 10.417969 19.464844 10.347656 19.460938 C 10.316406 19.460938 10.28125 19.449219 10.253906 19.433594 C 10.15625 19.375 10.128906 19.25 10.1875 19.152344 L 10.757812 18.214844 L 9.351562 18.128906 L 9.804688 19.039062 C 9.851562 19.140625 9.8125 19.261719 9.710938 19.3125 C 9.679688 19.328125 9.644531 19.335938 9.609375 19.332031 C 9.539062 19.328125 9.472656 19.289062 9.4375 19.21875 L 9.089844 18.515625 L 8.640625 19.25 C 8.601562 19.316406 8.527344 19.351562 8.457031 19.347656 C 8.421875 19.34375 8.390625 19.335938 8.363281 19.316406 C 8.269531 19.257812 8.238281 19.132812 8.296875 19.039062 L 8.875 18.085938 " fill-opacity="1" fill-rule="nonzero"/><path fill="#da6540" d="M 3.300781 8.3125 L 3.304688 8.3125 C 3.304688 8.3125 3.304688 8.3125 3.304688 8.316406 C 3.304688 8.3125 3.304688 8.3125 3.300781 8.3125 Z M 1.589844 7.515625 C 1.589844 7.515625 1.777344 7.859375 2.226562 7.929688 C 2.664062 8 3.140625 7.996094 3.347656 8.085938 C 3.289062 8.136719 3.261719 8.183594 3.261719 8.183594 C 3.007812 8.175781 2.9375 8.328125 2.9375 8.328125 L 3.265625 8.316406 C 3.292969 8.371094 3.359375 8.410156 3.441406 8.472656 C 3.574219 8.570312 3.617188 8.707031 3.960938 8.835938 C 4.300781 8.960938 4.792969 8.863281 4.792969 8.863281 C 4.875 8.996094 5.042969 9.164062 5.042969 9.164062 C 5.363281 9.035156 5.582031 8.773438 5.582031 8.773438 C 5.398438 8.589844 5.0625 8.574219 5.023438 8.554688 C 4.980469 8.535156 4.804688 8.367188 4.804688 8.367188 C 5.085938 8.113281 5.246094 7.660156 5.246094 7.660156 C 6.320312 7.199219 6.851562 5.941406 6.851562 5.941406 C 6.691406 5.960938 6.132812 6.324219 5.972656 6.464844 C 5.8125 6.605469 5.148438 6.984375 5.148438 6.984375 C 4.628906 7.582031 4.132812 8.058594 4.132812 8.058594 C 4.132812 8.058594 4.125 8.058594 4.101562 8.054688 L 4.105469 8.050781 C 4.105469 8.050781 3.582031 7.863281 3.351562 7.757812 C 3.351562 7.757812 1.988281 7.828125 1.589844 7.515625 " fill-opacity="1" fill-rule="nonzero"/><path fill="#da6540" d="M 4.550781 10.808594 C 4.304688 10.601562 3.707031 9.828125 3.707031 9.828125 C 3.707031 9.828125 3.9375 9.914062 4.265625 10.152344 C 4.59375 10.390625 5.578125 11.066406 5.578125 11.066406 C 6.183594 11.695312 6.550781 12.460938 6.667969 12.722656 C 7.199219 12.25 7.578125 11.757812 7.578125 11.757812 C 7.886719 11.554688 9.007812 11.316406 9.613281 11.21875 C 10.214844 11.121094 11.375 10.859375 11.375 10.859375 C 10.878906 11.40625 9.835938 11.78125 9.257812 11.976562 C 8.683594 12.175781 8.441406 12.40625 8.441406 12.40625 C 8.113281 12.71875 7.769531 12.984375 7.769531 12.984375 C 7.554688 13.214844 7.394531 13.328125 7.285156 13.378906 C 7.304688 13.449219 7.445312 13.882812 8.085938 14.054688 L 7.960938 14.203125 C 7.960938 14.203125 7.332031 13.984375 6.871094 13.933594 C 6.40625 13.878906 5.9375 13.777344 5.511719 13.472656 C 5.25 13.285156 5.164062 13.203125 5.132812 13.148438 C 4.847656 13.035156 4.804688 13.097656 4.804688 13.097656 C 4.808594 12.9375 4.988281 12.945312 5.140625 12.984375 C 5.179688 12.898438 5.304688 12.773438 5.648438 12.824219 L 5.714844 12.835938 C 5.554688 11.945312 4.796875 11.011719 4.550781 10.808594 " fill-opacity="1" fill-rule="nonzero"/><path fill="#da6540" d="M 10.402344 22.253906 C 16.621094 21.765625 20.328125 21.589844 22.824219 22.230469 C 12.753906 16.414062 4.273438 19.921875 1.191406 21.628906 C 3.554688 22.140625 6.75 22.542969 10.402344 22.253906 " fill-opacity="1" fill-rule="nonzero"/><g clip-path="url(#4299bc100d)"><path fill="#da6540" d="M 0.484375 22.042969 C 0.484375 22.042969 4.058594 23.375 10.191406 23.109375 C 16.320312 22.84375 16.269531 22.09375 23.574219 23.003906 C 23.574219 23.003906 19.679688 22.789062 12.910156 23.75 C 6.136719 24.707031 2.992188 23.535156 0.484375 22.042969 " fill-opacity="1" fill-rule="nonzero"/></g><path fill="#da6540" d="M 4.539062 24.496094 C 4.539062 24.496094 6.992188 24.921875 10.351562 24.601562 C 13.710938 24.28125 17.015625 23.640625 20.375 23.695312 C 20.375 23.695312 16.960938 24.042969 12.324219 25.082031 C 9.191406 25.785156 6.03125 25.296875 4.539062 24.496094 " fill-opacity="1" fill-rule="nonzero"/><path fill="#da6540" d="M 6.296875 26.042969 C 6.296875 26.042969 9.230469 27.160156 12.75 26.628906 C 16.269531 26.09375 15.84375 25.773438 17.921875 25.722656 C 17.921875 25.722656 16.828125 26.015625 15.015625 26.601562 C 13.203125 27.1875 9.921875 28.066406 6.296875 26.042969 " fill-opacity="1" fill-rule="nonzero"/><path fill="#da6540" d="M 10.667969 27.800781 C 10.667969 27.800781 12.324219 27.855469 14.347656 27.214844 C 16.375 26.574219 17.121094 26.574219 18.5625 26.839844 C 18.5625 26.839844 17.441406 26.707031 15.734375 27.269531 C 15.011719 27.503906 12.109375 28.546875 10.667969 27.800781 " fill-opacity="1" fill-rule="nonzero"/><g clip-path="url(#38f73aaed9)"><path fill="#da6540" d="M 8.804688 28.09375 C 8.804688 28.09375 11.949219 28.949219 14.722656 28.09375 C 14.722656 28.09375 12.054688 29.800781 8.804688 28.09375 " fill-opacity="1" fill-rule="nonzero"/></g><path fill="#da6540" d="M 8.882812 25.882812 C 8.882812 25.882812 10.214844 26.121094 13.363281 25.375 C 16.507812 24.628906 19.199219 24.496094 20.933594 24.707031 C 20.933594 24.707031 18.214844 24.839844 15.65625 25.507812 C 13.097656 26.175781 10.03125 26.679688 8.882812 25.882812 " fill-opacity="1" fill-rule="nonzero"/><g clip-path="url(#bd49708598)"><path fill="#da6540" d="M 17.214844 4.640625 L 16.832031 4.535156 C 17.007812 4.28125 17.222656 4.023438 17.480469 3.777344 C 17.652344 3.652344 18.035156 3.445312 18.40625 3.660156 L 17.976562 3.371094 C 18.378906 3.089844 18.867188 2.851562 19.453125 2.695312 C 19.738281 2.660156 20.199219 2.675781 20.515625 3.042969 L 20.179688 2.550781 C 20.414062 2.523438 20.660156 2.503906 20.917969 2.5 C 20.917969 2.5 20.917969 2.5 20.914062 2.492188 C 21.207031 2.488281 21.5625 2.503906 21.941406 2.574219 C 21.941406 2.574219 21.542969 2.390625 20.816406 2.378906 C 20.382812 1.890625 18.644531 0.164062 16.089844 0.851562 C 16.089844 0.851562 16.625 0.527344 17.441406 0.328125 C 17.648438 0.292969 18.046875 0.273438 18.335938 0.535156 L 18.140625 0.207031 C 18.570312 0.164062 19.042969 0.171875 19.539062 0.273438 C 19.792969 0.363281 20.148438 0.558594 20.246094 0.949219 L 20.175781 0.457031 C 20.566406 0.605469 20.964844 0.816406 21.355469 1.117188 C 21.511719 1.28125 21.707031 1.59375 21.679688 2.113281 L 21.820312 1.519531 C 22.027344 1.714844 22.226562 1.933594 22.425781 2.1875 C 22.554688 1.929688 22.734375 1.632812 22.972656 1.347656 L 23.132812 1.753906 C 23.023438 1.425781 23.1875 1.148438 23.269531 1.03125 C 23.414062 0.898438 23.574219 0.769531 23.75 0.652344 L 23.742188 0.992188 C 23.757812 0.757812 23.886719 0.601562 23.996094 0.503906 C 24.199219 0.398438 24.421875 0.304688 24.667969 0.234375 C 24.667969 0.234375 23.972656 0.789062 23.570312 1.785156 C 23.167969 2.09375 23.082031 2.363281 23.082031 2.363281 C 23.339844 2.0625 23.800781 1.78125 23.929688 1.707031 L 23.898438 2.226562 C 23.949219 1.707031 24.429688 1.472656 24.625 1.394531 C 24.886719 1.3125 25.171875 1.253906 25.480469 1.230469 L 25.269531 1.71875 C 25.53125 1.113281 26.335938 1.261719 26.335938 1.261719 C 26.609375 1.300781 26.898438 1.371094 27.203125 1.480469 L 26.867188 1.722656 C 27.152344 1.550781 27.519531 1.628906 27.714844 1.691406 C 28 1.824219 28.292969 1.988281 28.597656 2.191406 C 28.597656 2.191406 26.226562 1.332031 24.65625 2.636719 C 23.984375 2.703125 23.4375 2.929688 23.4375 2.929688 C 23.875 2.808594 24.425781 2.785156 24.8125 2.785156 C 24.9375 2.789062 25.09375 2.800781 25.269531 2.824219 L 24.816406 3.238281 C 25.320312 2.9375 25.789062 2.933594 26.074219 2.976562 C 26.496094 3.089844 26.957031 3.273438 27.40625 3.550781 L 26.546875 3.710938 C 27.492188 3.632812 28.085938 4.085938 28.320312 4.3125 C 28.496094 4.503906 28.65625 4.71875 28.804688 4.957031 L 28.179688 4.796875 C 28.839844 5.054688 29.171875 5.71875 29.296875 6.027344 C 29.382812 6.289062 29.457031 6.574219 29.511719 6.882812 C 29.511719 6.882812 28.410156 4.136719 24.976562 4.207031 C 24.253906 3.761719 23.386719 3.746094 23.386719 3.746094 C 24.003906 3.882812 24.4375 4.0625 24.726562 4.222656 C 24.773438 4.25 24.996094 4.390625 25.269531 4.648438 L 24.628906 4.851562 C 25.117188 4.695312 25.457031 4.890625 25.640625 5.046875 C 25.851562 5.3125 26.0625 5.640625 26.226562 6.035156 L 25.460938 5.984375 C 26.164062 6.074219 26.378906 6.527344 26.441406 6.757812 C 26.515625 7.117188 26.542969 7.523438 26.507812 7.964844 L 25.964844 7.597656 C 26.433594 7.855469 26.410156 8.535156 26.320312 9.023438 C 26.207031 9.4375 26.046875 9.878906 25.816406 10.355469 C 25.816406 10.355469 26.425781 6.335938 22.902344 4.863281 C 22.902344 4.863281 18.261719 5.019531 19.550781 10.039062 C 19.550781 10.039062 19.183594 9.585938 18.875 8.878906 C 18.792969 8.625 18.632812 7.945312 19.058594 7.5625 L 18.558594 7.902344 C 18.460938 7.421875 18.433594 6.890625 18.546875 6.339844 C 18.632812 6.148438 18.800781 5.9375 19.140625 5.894531 L 18.675781 5.882812 C 18.808594 5.511719 19.011719 5.132812 19.304688 4.761719 C 19.453125 4.632812 19.726562 4.480469 20.152344 4.589844 L 19.65625 4.367188 C 19.796875 4.222656 19.953125 4.082031 20.125 3.941406 C 20.433594 3.730469 20.890625 3.519531 21.492188 3.507812 C 21.492188 3.507812 20.753906 3.3125 19.902344 3.910156 C 19.230469 3.929688 17.355469 4.1875 16.078125 6.269531 C 16.078125 6.269531 16.1875 5.65625 16.59375 4.925781 C 16.703125 4.773438 16.902344 4.589844 17.214844 4.640625 " fill-opacity="1" fill-rule="nonzero"/></g><path fill="#da6540" d="M 10.679688 8.832031 L 10.453125 8.894531 C 10.46875 8.710938 10.5 8.515625 10.5625 8.3125 C 10.617188 8.199219 10.75 7.980469 11.003906 7.980469 L 10.699219 7.960938 C 10.824219 7.699219 11.003906 7.433594 11.257812 7.179688 C 11.394531 7.078125 11.636719 6.953125 11.90625 7.050781 L 11.589844 6.894531 C 11.703125 6.8125 11.824219 6.730469 11.957031 6.652344 C 11.957031 6.652344 11.953125 6.652344 11.949219 6.648438 C 12.097656 6.5625 12.285156 6.464844 12.5 6.390625 C 12.5 6.390625 12.242188 6.414062 11.863281 6.621094 C 11.5 6.496094 10.101562 6.117188 8.992188 7.21875 C 8.992188 7.21875 9.171875 6.894531 9.53125 6.554688 C 9.628906 6.476562 9.828125 6.347656 10.050781 6.398438 L 9.855469 6.289062 C 10.0625 6.140625 10.308594 6.003906 10.59375 5.910156 C 10.75 5.882812 10.992188 5.882812 11.15625 6.054688 L 10.976562 5.820312 C 11.21875 5.78125 11.484375 5.773438 11.773438 5.8125 C 11.902344 5.851562 12.09375 5.957031 12.234375 6.230469 L 12.128906 5.882812 C 12.292969 5.925781 12.460938 5.976562 12.636719 6.050781 C 12.628906 5.878906 12.632812 5.675781 12.671875 5.460938 L 12.871094 5.621094 C 12.71875 5.484375 12.722656 5.292969 12.730469 5.210938 C 12.765625 5.097656 12.8125 4.988281 12.867188 4.875 L 12.960938 5.050781 C 12.902344 4.925781 12.921875 4.808594 12.953125 4.726562 C 13.023438 4.613281 13.109375 4.5 13.214844 4.390625 C 13.214844 4.390625 13.019531 4.878906 13.105469 5.511719 C 12.988281 5.785156 13.023438 5.949219 13.023438 5.949219 C 13.070312 5.71875 13.222656 5.441406 13.269531 5.363281 L 13.40625 5.640625 C 13.277344 5.359375 13.457031 5.097656 13.535156 5 C 13.644531 4.882812 13.773438 4.765625 13.925781 4.664062 L 13.957031 4.976562 C 13.917969 4.589844 14.375 4.429688 14.375 4.429688 C 14.527344 4.371094 14.695312 4.324219 14.882812 4.289062 L 14.78125 4.511719 C 14.875 4.339844 15.089844 4.273438 15.207031 4.246094 C 15.390625 4.234375 15.589844 4.230469 15.804688 4.246094 C 15.804688 4.246094 14.335938 4.5 13.914062 5.628906 C 13.589844 5.859375 13.375 6.136719 13.375 6.136719 C 13.5625 5.945312 13.835938 5.773438 14.039062 5.660156 C 14.101562 5.625 14.183594 5.585938 14.28125 5.542969 L 14.171875 5.890625 C 14.34375 5.589844 14.582031 5.449219 14.742188 5.390625 C 14.992188 5.324219 15.28125 5.28125 15.59375 5.292969 L 15.199219 5.628906 C 15.660156 5.3125 16.097656 5.367188 16.285156 5.417969 C 16.429688 5.464844 16.574219 5.527344 16.722656 5.605469 L 16.355469 5.707031 C 16.769531 5.644531 17.132812 5.890625 17.289062 6.011719 C 17.410156 6.121094 17.53125 6.246094 17.648438 6.386719 C 17.648438 6.386719 16.28125 5.300781 14.535156 6.34375 C 14.035156 6.324219 13.585938 6.570312 13.585938 6.570312 C 13.945312 6.460938 14.21875 6.425781 14.414062 6.421875 C 14.445312 6.421875 14.601562 6.429688 14.816406 6.480469 L 14.546875 6.773438 C 14.75 6.550781 14.984375 6.550781 15.125 6.578125 C 15.308594 6.652344 15.511719 6.757812 15.714844 6.914062 L 15.304688 7.113281 C 15.695312 6.953125 15.9375 7.125 16.035156 7.222656 C 16.179688 7.386719 16.308594 7.585938 16.421875 7.824219 L 16.035156 7.792969 C 16.351562 7.789062 16.539062 8.144531 16.636719 8.421875 C 16.699219 8.667969 16.746094 8.941406 16.765625 9.253906 C 16.765625 9.253906 15.90625 7.011719 13.664062 7.285156 C 13.664062 7.285156 11.328125 8.722656 13.457031 10.921875 C 13.457031 10.921875 13.136719 10.796875 12.769531 10.527344 C 12.65625 10.417969 12.375 10.117188 12.480469 9.796875 L 12.324219 10.113281 C 12.132812 9.898438 11.960938 9.632812 11.859375 9.316406 C 11.847656 9.195312 11.871094 9.035156 12.035156 8.914062 L 11.792969 9.046875 C 11.75 8.816406 11.746094 8.5625 11.789062 8.285156 C 11.824219 8.175781 11.921875 8.019531 12.171875 7.949219 L 11.851562 7.980469 C 11.882812 7.863281 11.921875 7.746094 11.96875 7.621094 C 12.066406 7.425781 12.238281 7.183594 12.542969 7.003906 C 12.542969 7.003906 12.109375 7.117188 11.84375 7.671875 C 11.503906 7.882812 10.621094 8.5625 10.574219 10.003906 C 10.574219 10.003906 10.449219 9.65625 10.441406 9.160156 C 10.453125 9.054688 10.503906 8.902344 10.679688 8.832031 " fill-opacity="1" fill-rule="nonzero"/></svg>