<svg xmlns="http://www.w3.org/2000/svg" xmlns:xlink="http://www.w3.org/1999/xlink" width="40" zoomAndPan="magnify" viewBox="0 0 30 30.000001" height="40" preserveAspectRatio="xMidYMid meet" version="1.0"><defs><clipPath id="55f0beefb9"><path d="M 2.765625 0 L 27.441406 0 L 27.441406 28.917969 L 2.765625 28.917969 Z M 2.765625 0 " clip-rule="nonzero"/></clipPath></defs><g clip-path="url(#55f0beefb9)"><path fill="#da6540" d="M 18.832031 5.0625 C 18.6875 5.175781 18.550781 5.234375 18.414062 5.289062 C 18.167969 5.382812 18.105469 5.484375 18.105469 5.742188 C 18.113281 6.953125 18.113281 8.164062 18.121094 9.371094 C 18.121094 9.46875 18.09375 9.496094 17.996094 9.480469 C 17.378906 9.398438 16.769531 9.257812 16.160156 9.148438 C 14.476562 8.84375 12.792969 8.535156 11.109375 8.226562 C 8.96875 7.835938 6.824219 7.445312 4.683594 7.054688 C 4.433594 7.007812 4.183594 6.964844 3.933594 6.914062 C 3.824219 6.890625 3.796875 6.929688 3.800781 7.03125 C 3.804688 7.238281 3.8125 7.449219 3.800781 7.65625 C 3.792969 7.785156 3.84375 7.824219 3.957031 7.84375 C 4.875 8.007812 5.792969 8.179688 6.710938 8.347656 C 8.765625 8.726562 10.820312 9.105469 12.875 9.484375 C 14.644531 9.808594 16.414062 10.136719 18.183594 10.46875 C 18.328125 10.492188 18.355469 10.457031 18.355469 10.320312 C 18.347656 8.859375 18.34375 7.402344 18.34375 5.941406 C 18.339844 5.550781 18.4375 5.4375 18.832031 5.355469 C 18.871094 5.347656 18.910156 5.332031 18.945312 5.308594 C 19.753906 4.769531 20.644531 4.402344 21.539062 4.039062 C 22.6875 3.574219 23.871094 3.238281 25.101562 3.070312 C 25.386719 3.03125 25.675781 3.011719 25.96875 2.988281 C 26.046875 2.984375 26.09375 2.96875 26.117188 2.875 C 26.167969 2.710938 26.421875 2.585938 26.667969 2.605469 C 26.753906 2.613281 26.839844 2.632812 26.925781 2.660156 C 27.160156 2.75 27.21875 2.84375 27.21875 3.109375 C 27.21875 10.359375 27.222656 17.613281 27.222656 24.867188 C 27.222656 25.023438 27.226562 25.179688 27.226562 25.332031 C 27.222656 25.609375 27.089844 25.738281 26.8125 25.722656 C 26.601562 25.710938 26.410156 25.640625 26.21875 25.554688 C 26.113281 25.507812 26.136719 25.417969 26.136719 25.339844 C 26.136719 24.40625 26.136719 23.472656 26.136719 22.539062 C 26.136719 22.335938 26.136719 22.335938 25.953125 22.410156 C 23.839844 23.230469 21.730469 24.050781 19.621094 24.871094 C 19.503906 24.914062 19.46875 24.96875 19.46875 25.09375 C 19.476562 26.316406 19.476562 27.535156 19.480469 28.753906 C 19.480469 28.988281 19.324219 29.140625 19.082031 29.121094 C 18.890625 29.105469 18.703125 29.054688 18.519531 29 C 18.402344 28.964844 18.351562 28.882812 18.351562 28.753906 C 18.355469 27.574219 18.355469 26.398438 18.363281 25.21875 C 18.363281 25.097656 18.335938 25.039062 18.203125 25.011719 C 13.5625 24.03125 8.921875 23.046875 4.28125 22.058594 C 4.175781 22.035156 4.066406 22.015625 3.964844 21.980469 C 3.835938 21.933594 3.820312 21.984375 3.820312 22.101562 C 3.824219 22.636719 3.824219 23.171875 3.820312 23.707031 C 3.816406 24.007812 3.808594 24.308594 3.796875 24.609375 C 3.789062 24.863281 3.648438 25 3.390625 25.015625 C 3.21875 25.027344 3.066406 24.980469 2.914062 24.90625 C 2.816406 24.855469 2.765625 24.785156 2.765625 24.671875 C 2.769531 24.410156 2.769531 24.152344 2.769531 23.890625 C 2.769531 16.800781 2.765625 9.707031 2.765625 2.617188 C 2.765625 2.398438 2.804688 2.210938 3.019531 2.109375 C 3.246094 2.003906 3.476562 1.992188 3.679688 2.148438 C 3.777344 2.222656 3.839844 2.203125 3.929688 2.15625 C 5.039062 1.589844 6.1875 1.117188 7.386719 0.773438 C 8.480469 0.460938 9.59375 0.289062 10.730469 0.253906 C 10.816406 0.253906 10.878906 0.234375 10.9375 0.160156 C 11.101562 -0.0390625 11.414062 -0.109375 11.644531 -0.015625 C 11.878906 0.078125 11.976562 0.230469 11.976562 0.507812 C 11.976562 1.132812 11.972656 1.753906 11.96875 2.378906 C 11.96875 2.839844 11.972656 3.300781 11.96875 3.765625 C 11.964844 3.878906 12.003906 3.914062 12.113281 3.929688 C 14.246094 4.289062 16.378906 4.648438 18.511719 5.007812 C 18.605469 5.023438 18.703125 5.039062 18.832031 5.0625 Z M 18.351562 17.769531 L 18.347656 17.769531 L 18.347656 17.582031 C 18.347656 15.667969 18.347656 13.75 18.347656 11.835938 C 18.347656 11.71875 18.328125 11.664062 18.195312 11.644531 C 17.832031 11.589844 17.472656 11.515625 17.109375 11.449219 C 15.4375 11.144531 13.761719 10.839844 12.089844 10.53125 C 11.972656 10.511719 11.929688 10.53125 11.929688 10.664062 C 11.933594 12.585938 11.929688 14.503906 11.921875 16.425781 C 11.921875 16.535156 11.953125 16.578125 12.0625 16.597656 C 12.582031 16.6875 13.101562 16.789062 13.621094 16.886719 C 15.078125 17.160156 16.535156 17.433594 17.992188 17.703125 C 18.085938 17.722656 18.144531 17.742188 18.144531 17.867188 C 18.140625 19.492188 18.136719 21.117188 18.144531 22.742188 C 18.144531 22.867188 18.105469 22.867188 18 22.84375 C 17.105469 22.652344 16.214844 22.464844 15.320312 22.273438 C 12.472656 21.667969 9.625 21.0625 6.773438 20.453125 C 5.835938 20.253906 4.898438 20.054688 3.960938 19.851562 C 3.855469 19.828125 3.800781 19.835938 3.808594 19.96875 C 3.816406 20.152344 3.808594 20.332031 3.808594 20.515625 C 3.804688 20.765625 3.804688 20.765625 4.058594 20.820312 L 18.167969 23.839844 C 18.351562 23.878906 18.351562 23.878906 18.351562 23.6875 Z M 19.460938 15.132812 L 19.457031 15.132812 C 19.457031 16.257812 19.457031 17.386719 19.457031 18.511719 C 19.457031 18.875 19.457031 18.875 19.777344 18.707031 C 20.945312 18.101562 22.117188 17.5 23.359375 17.054688 C 24.199219 16.757812 25.050781 16.523438 25.9375 16.421875 C 26.09375 16.40625 26.136719 16.359375 26.136719 16.199219 C 26.128906 13.878906 26.128906 11.558594 26.132812 9.238281 C 26.132812 9.039062 26.132812 9.039062 25.953125 9.105469 C 23.832031 9.859375 21.714844 10.613281 19.597656 11.367188 C 19.488281 11.40625 19.460938 11.457031 19.460938 11.566406 C 19.464844 12.753906 19.460938 13.945312 19.460938 15.132812 Z M 3.808594 11.460938 L 3.804688 11.460938 C 3.804688 12.234375 3.804688 13.003906 3.804688 13.777344 C 3.804688 13.886719 3.808594 13.9375 3.941406 13.894531 C 6.265625 13.128906 8.585938 12.371094 10.910156 11.613281 C 11.007812 11.582031 11.039062 11.535156 11.039062 11.433594 C 11.035156 11.117188 11.03125 10.800781 11.042969 10.484375 C 11.046875 10.371094 11.003906 10.335938 10.898438 10.316406 C 8.589844 9.886719 6.285156 9.457031 3.976562 9.023438 C 3.820312 8.996094 3.804688 9.035156 3.808594 9.171875 C 3.8125 9.933594 3.808594 10.695312 3.808594 11.460938 Z M 3.804688 15.074219 L 3.808594 15.074219 C 3.808594 15.25 3.816406 15.425781 3.808594 15.605469 C 3.800781 15.726562 3.835938 15.738281 3.949219 15.703125 C 6.269531 14.917969 8.589844 14.136719 10.914062 13.355469 C 11 13.328125 11.039062 13.289062 11.039062 13.191406 C 11.035156 12.871094 11.042969 12.550781 11.042969 12.226562 C 11.042969 12.054688 11.035156 12.050781 10.867188 12.105469 C 9.734375 12.476562 8.601562 12.851562 7.472656 13.222656 C 6.28125 13.617188 5.089844 14.003906 3.894531 14.394531 C 3.816406 14.417969 3.804688 14.460938 3.804688 14.53125 C 3.808594 14.710938 3.804688 14.894531 3.804688 15.074219 Z M 3.800781 16.859375 C 3.800781 17.019531 3.796875 17.179688 3.800781 17.339844 C 3.808594 17.527344 3.808594 17.527344 3.984375 17.46875 L 8.332031 15.976562 C 9.183594 15.683594 10.035156 15.390625 10.886719 15.097656 C 10.949219 15.078125 11.039062 15.078125 11.035156 14.972656 C 11.03125 14.613281 11.03125 14.253906 11.027344 13.898438 C 11.027344 13.832031 10.996094 13.816406 10.9375 13.835938 C 10.894531 13.851562 10.851562 13.867188 10.804688 13.878906 C 8.542969 14.644531 6.28125 15.40625 4.019531 16.171875 C 3.859375 16.222656 3.773438 16.285156 3.800781 16.46875 C 3.816406 16.597656 3.800781 16.726562 3.800781 16.859375 Z M 3.800781 3.898438 L 3.796875 3.898438 C 3.796875 4.058594 3.800781 4.21875 3.792969 4.378906 C 3.785156 4.519531 3.828125 4.546875 3.964844 4.511719 C 6.273438 3.859375 8.582031 3.210938 10.894531 2.566406 C 11.003906 2.535156 11.042969 2.492188 11.039062 2.378906 C 11.027344 2.070312 11.023438 1.765625 11.03125 1.457031 C 11.035156 1.300781 10.988281 1.292969 10.855469 1.332031 C 9.367188 1.746094 7.878906 2.160156 6.390625 2.570312 C 5.582031 2.792969 4.773438 3.023438 3.964844 3.238281 C 3.835938 3.273438 3.785156 3.328125 3.796875 3.460938 C 3.808594 3.605469 3.800781 3.753906 3.800781 3.898438 Z M 11.027344 16.117188 C 11.027344 15.992188 11.03125 15.867188 11.027344 15.742188 C 11.027344 15.539062 11.027344 15.539062 10.839844 15.605469 C 9.347656 16.121094 7.851562 16.632812 6.359375 17.148438 C 5.558594 17.425781 4.753906 17.703125 3.953125 17.980469 C 3.894531 18.003906 3.808594 18 3.808594 18.097656 C 3.808594 18.445312 3.804688 18.792969 3.804688 19.140625 C 3.804688 19.210938 3.832031 19.230469 3.902344 19.195312 C 3.992188 19.148438 4.085938 19.105469 4.183594 19.0625 C 5.132812 18.664062 6.117188 18.355469 7.089844 18.011719 C 8.347656 17.5625 9.613281 17.128906 10.875 16.695312 C 10.996094 16.65625 11.042969 16.601562 11.03125 16.476562 C 11.019531 16.355469 11.027344 16.238281 11.027344 16.117188 Z M 11.035156 3.515625 C 11.035156 3.394531 11.027344 3.269531 11.035156 3.144531 C 11.042969 3.023438 11.007812 2.992188 10.886719 3.027344 C 8.566406 3.683594 6.242188 4.332031 3.917969 4.984375 C 3.824219 5.011719 3.800781 5.054688 3.800781 5.148438 C 3.804688 5.359375 3.800781 5.574219 3.800781 5.785156 C 3.796875 6.144531 3.796875 6.144531 4.136719 6.042969 C 6.390625 5.382812 8.640625 4.722656 10.890625 4.066406 C 11 4.03125 11.046875 3.992188 11.039062 3.875 C 11.027344 3.757812 11.035156 3.636719 11.035156 3.515625 Z M 19.445312 7.105469 L 19.449219 7.105469 C 19.449219 7.332031 19.449219 7.5625 19.449219 7.789062 C 19.445312 7.886719 19.453125 7.933594 19.574219 7.890625 C 21.722656 7.167969 23.875 6.445312 26.027344 5.726562 C 26.109375 5.695312 26.132812 5.65625 26.132812 5.570312 C 26.128906 5.15625 26.132812 4.738281 26.132812 4.324219 C 26.136719 4.117188 26.132812 4.117188 25.941406 4.179688 C 24.59375 4.621094 23.246094 5.0625 21.894531 5.5 C 21.136719 5.746094 20.378906 5.988281 19.617188 6.226562 C 19.488281 6.265625 19.433594 6.328125 19.445312 6.46875 C 19.457031 6.679688 19.445312 6.890625 19.445312 7.105469 Z M 19.476562 9.625 L 19.464844 9.625 C 19.464844 9.738281 19.464844 9.855469 19.464844 9.96875 C 19.464844 10.15625 19.46875 10.160156 19.644531 10.097656 C 20.585938 9.761719 21.53125 9.429688 22.472656 9.097656 C 23.644531 8.683594 24.816406 8.269531 25.992188 7.855469 C 26.097656 7.820312 26.136719 7.769531 26.128906 7.65625 C 26.121094 7.460938 26.125 7.261719 26.125 7.066406 C 26.125 6.882812 26.125 6.882812 25.949219 6.941406 C 23.941406 7.621094 21.933594 8.300781 19.929688 8.980469 C 19.777344 9.03125 19.566406 9.046875 19.492188 9.15625 C 19.417969 9.261719 19.476562 9.464844 19.476562 9.625 Z M 19.457031 20.710938 C 19.457031 20.914062 19.460938 21.113281 19.457031 21.316406 C 19.453125 21.4375 19.476562 21.476562 19.613281 21.425781 C 21.742188 20.636719 23.878906 19.847656 26.011719 19.0625 C 26.101562 19.027344 26.136719 18.984375 26.136719 18.882812 C 26.128906 18.507812 26.132812 18.136719 26.132812 17.761719 C 26.132812 17.582031 26.132812 17.582031 25.96875 17.640625 C 25.402344 17.847656 24.839844 18.050781 24.273438 18.257812 C 22.71875 18.824219 21.160156 19.390625 19.601562 19.957031 C 19.511719 19.988281 19.449219 20.015625 19.457031 20.136719 C 19.46875 20.324219 19.457031 20.519531 19.457031 20.710938 Z M 19.464844 23.097656 C 19.464844 23.238281 19.464844 23.339844 19.464844 23.445312 C 19.464844 23.621094 19.46875 23.621094 19.636719 23.554688 C 20.933594 23.058594 22.230469 22.566406 23.527344 22.070312 C 24.355469 21.753906 25.179688 21.4375 26.007812 21.121094 C 26.070312 21.101562 26.136719 21.089844 26.132812 20.996094 C 26.125 20.757812 26.128906 20.515625 26.132812 20.277344 C 26.136719 20.164062 26.089844 20.160156 26.003906 20.199219 C 25.980469 20.210938 25.957031 20.214844 25.929688 20.226562 C 23.921875 20.984375 21.910156 21.746094 19.898438 22.503906 C 19.761719 22.558594 19.582031 22.578125 19.492188 22.679688 C 19.398438 22.789062 19.480469 22.980469 19.464844 23.097656 Z M 19.464844 23.097656 " fill-opacity="1" fill-rule="nonzero"/></g><path fill="#da6540" d="M 22.214844 6.253906 C 22.199219 6.386719 22.28125 6.585938 22.183594 6.695312 C 22.09375 6.796875 21.902344 6.808594 21.757812 6.859375 C 21.523438 6.9375 21.285156 7.011719 21.050781 7.09375 C 20.957031 7.128906 20.90625 7.117188 20.90625 7.003906 C 20.910156 6.742188 20.910156 6.476562 20.90625 6.210938 C 20.90625 6.152344 20.933594 6.121094 20.992188 6.101562 C 21.363281 5.984375 21.730469 5.867188 22.097656 5.742188 C 22.179688 5.714844 22.214844 5.742188 22.214844 5.824219 C 22.214844 5.960938 22.214844 6.09375 22.214844 6.253906 Z M 22.214844 6.253906 " fill-opacity="1" fill-rule="nonzero"/><path fill="#da6540" d="M 23.902344 5.808594 C 23.898438 6.128906 23.898438 6.128906 23.585938 6.238281 C 23.261719 6.351562 22.929688 6.460938 22.605469 6.578125 C 22.511719 6.613281 22.476562 6.609375 22.480469 6.496094 C 22.488281 6.238281 22.480469 5.976562 22.480469 5.71875 C 22.480469 5.667969 22.472656 5.621094 22.542969 5.597656 C 22.933594 5.457031 23.324219 5.328125 23.753906 5.433594 C 23.875 5.464844 23.917969 5.503906 23.902344 5.625 C 23.894531 5.683594 23.902344 5.75 23.902344 5.808594 Z M 23.902344 5.808594 " fill-opacity="1" fill-rule="nonzero"/><path fill="#da6540" d="M 19.632812 7 C 19.644531 6.878906 19.566406 6.675781 19.664062 6.5625 C 19.753906 6.457031 19.949219 6.445312 20.101562 6.394531 C 20.25 6.34375 20.398438 6.304688 20.546875 6.253906 C 20.636719 6.21875 20.679688 6.230469 20.679688 6.339844 C 20.675781 6.601562 20.679688 6.867188 20.683594 7.132812 C 20.683594 7.191406 20.664062 7.222656 20.605469 7.242188 C 20.316406 7.339844 20.027344 7.4375 19.742188 7.542969 C 19.652344 7.574219 19.632812 7.539062 19.632812 7.460938 C 19.636719 7.320312 19.632812 7.179688 19.632812 7 Z M 19.632812 7 " fill-opacity="1" fill-rule="nonzero"/><path fill="#da6540" d="M 24.167969 6.042969 L 24.167969 5.578125 C 24.167969 5.539062 24.175781 5.503906 24.226562 5.511719 C 24.582031 5.546875 24.941406 5.585938 25.296875 5.640625 C 24.933594 5.804688 24.554688 5.914062 24.167969 6.042969 Z M 24.167969 6.042969 " fill-opacity="1" fill-rule="nonzero"/><path fill="#da6540" d="M 22.503906 19.613281 C 22.503906 19.246094 22.503906 19.246094 22.855469 19.117188 C 23.167969 19.007812 23.480469 18.898438 23.789062 18.78125 C 23.894531 18.742188 23.933594 18.757812 23.929688 18.871094 C 23.925781 19.046875 23.925781 19.222656 23.929688 19.398438 C 23.929688 19.472656 23.898438 19.507812 23.832031 19.53125 C 23.429688 19.675781 23.023438 19.824219 22.621094 19.972656 C 22.535156 20.003906 22.5 19.996094 22.503906 19.894531 C 22.507812 19.800781 22.503906 19.707031 22.503906 19.613281 Z M 22.503906 19.613281 " fill-opacity="1" fill-rule="nonzero"/><path fill="#da6540" d="M 20.898438 20.207031 C 20.898438 19.828125 20.898438 19.828125 21.25 19.695312 C 21.542969 19.582031 21.839844 19.472656 22.132812 19.355469 C 22.226562 19.320312 22.261719 19.335938 22.257812 19.445312 C 22.25 19.628906 22.246094 19.816406 22.25 20.003906 C 22.253906 20.082031 22.222656 20.125 22.148438 20.152344 C 21.773438 20.289062 21.394531 20.429688 21.015625 20.574219 C 20.917969 20.613281 20.890625 20.589844 20.898438 20.488281 C 20.902344 20.394531 20.898438 20.300781 20.898438 20.207031 Z M 20.898438 20.207031 " fill-opacity="1" fill-rule="nonzero"/><path fill="#da6540" d="M 20.660156 20.320312 C 20.660156 20.6875 20.660156 20.6875 20.320312 20.816406 C 20.15625 20.882812 19.988281 20.9375 19.828125 21.011719 C 19.71875 21.058594 19.6875 21.015625 19.691406 20.914062 C 19.691406 20.730469 19.691406 20.542969 19.691406 20.355469 C 19.691406 20.292969 19.71875 20.265625 19.773438 20.242188 C 20.03125 20.148438 20.289062 20.050781 20.542969 19.953125 C 20.640625 19.914062 20.660156 19.957031 20.660156 20.042969 C 20.65625 20.136719 20.660156 20.230469 20.660156 20.320312 Z M 20.660156 20.320312 " fill-opacity="1" fill-rule="nonzero"/><path fill="#da6540" d="M 25.433594 18.953125 C 25.046875 19.089844 24.65625 19.230469 24.265625 19.371094 C 24.207031 19.390625 24.167969 19.390625 24.171875 19.308594 C 24.175781 19.132812 24.175781 18.957031 24.171875 18.777344 C 24.171875 18.710938 24.191406 18.683594 24.261719 18.699219 C 24.652344 18.773438 25.042969 18.847656 25.433594 18.921875 C 25.433594 18.933594 25.433594 18.941406 25.433594 18.953125 Z M 25.433594 18.953125 " fill-opacity="1" fill-rule="nonzero"/></svg>