<svg xmlns="http://www.w3.org/2000/svg" xmlns:xlink="http://www.w3.org/1999/xlink" width="40" zoomAndPan="magnify" viewBox="0 0 30 30.000001" height="40" preserveAspectRatio="xMidYMid meet" version="1.0"><defs><g/><clipPath id="d546461c15"><path d="M 2 15 L 28 15 L 28 25.257812 L 2 25.257812 Z M 2 15 " clip-rule="nonzero"/></clipPath><clipPath id="208afb36a0"><path d="M 0.484375 13 L 6 13 L 6 19 L 0.484375 19 Z M 0.484375 13 " clip-rule="nonzero"/></clipPath><clipPath id="a32acf9ade"><path d="M 0.484375 10 L 6 10 L 6 14 L 0.484375 14 Z M 0.484375 10 " clip-rule="nonzero"/></clipPath><clipPath id="d37c32a60f"><path d="M 24 13 L 29.515625 13 L 29.515625 19 L 24 19 Z M 24 13 " clip-rule="nonzero"/></clipPath><clipPath id="efff022fd4"><path d="M 24 10 L 29.515625 10 L 29.515625 14 L 24 14 Z M 24 10 " clip-rule="nonzero"/></clipPath><clipPath id="b9ec5c1546"><path d="M 1 3.484375 L 5 3.484375 L 5 8 L 1 8 Z M 1 3.484375 " clip-rule="nonzero"/></clipPath><clipPath id="cdc8494a7b"><path d="M 25 3.484375 L 29 3.484375 L 29 8 L 25 8 Z M 25 3.484375 " clip-rule="nonzero"/></clipPath></defs><g fill="#ffffff" fill-opacity="1"><g transform="translate(20.870465, 0.846779)"><g><path d="M 0.09375 0 L 0.09375 -0.140625 L 0.46875 -0.140625 L 0.46875 -1.1875 L 0.453125 -1.203125 C 0.390625 -1.171875 0.332031 -1.144531 0.28125 -1.125 C 0.238281 -1.113281 0.179688 -1.097656 0.109375 -1.078125 L 0.109375 -1.234375 C 0.179688 -1.242188 0.253906 -1.257812 0.328125 -1.28125 C 0.398438 -1.3125 0.460938 -1.347656 0.515625 -1.390625 L 0.640625 -1.390625 L 0.640625 -0.140625 L 0.96875 -0.140625 L 0.96875 0 Z M 0.09375 0 "/></g></g></g><g clip-path="url(#d546461c15)"><path fill="#da6540" d="M 27.097656 19.296875 L 27.097656 25.535156 L 25.710938 25.535156 C 25.703125 25.136719 25.613281 24.511719 25.195312 23.933594 C 24.683594 23.222656 23.832031 22.78125 22.671875 22.617188 C 22.65625 22.613281 22.640625 22.613281 22.621094 22.613281 L 7.378906 22.613281 C 7.363281 22.613281 7.34375 22.613281 7.328125 22.617188 C 6.167969 22.78125 5.320312 23.222656 4.808594 23.933594 C 4.390625 24.515625 4.300781 25.136719 4.292969 25.535156 L 2.902344 25.535156 L 2.902344 19.296875 C 2.902344 19.167969 2.910156 19.042969 2.921875 18.914062 C 2.976562 18.398438 3.140625 17.921875 3.40625 17.480469 C 3.675781 17.039062 4.023438 16.675781 4.453125 16.386719 L 6.070312 15.296875 C 6.128906 15.257812 6.1875 15.222656 6.246094 15.195312 C 6.253906 15.191406 6.257812 15.1875 6.261719 15.1875 C 6.503906 15.066406 6.757812 15.007812 7.023438 15.007812 L 22.976562 15.007812 C 23.242188 15.007812 23.496094 15.066406 23.738281 15.1875 C 23.742188 15.1875 23.746094 15.191406 23.753906 15.195312 C 23.8125 15.226562 23.871094 15.257812 23.929688 15.296875 L 25.550781 16.386719 C 25.976562 16.675781 26.324219 17.039062 26.59375 17.480469 C 26.859375 17.921875 27.023438 18.398438 27.078125 18.914062 C 27.09375 19.042969 27.097656 19.171875 27.097656 19.296875 Z M 27.097656 19.296875 " fill-opacity="1" fill-rule="nonzero"/></g><path fill="#da6540" d="M 14.636719 13.859375 L 14.636719 14.277344 L 7.023438 14.277344 C 6.832031 14.277344 6.640625 14.300781 6.453125 14.347656 L 6.453125 12.414062 C 6.8125 12.054688 7.25 11.871094 7.757812 11.871094 L 12.730469 11.871094 C 13.78125 11.871094 14.636719 12.761719 14.636719 13.859375 Z M 14.636719 13.859375 " fill-opacity="1" fill-rule="nonzero"/><g clip-path="url(#208afb36a0)"><path fill="#da6540" d="M 5.726562 13.777344 L 5.726562 14.652344 C 5.707031 14.667969 5.6875 14.679688 5.667969 14.695312 L 4.046875 15.78125 C 3.066406 16.441406 2.464844 17.351562 2.25 18.511719 L 0.484375 18.511719 L 0.484375 13.777344 Z M 5.726562 13.777344 " fill-opacity="1" fill-rule="nonzero"/></g><g clip-path="url(#a32acf9ade)"><path fill="#da6540" d="M 0.484375 10.855469 L 0.484375 13.050781 L 5.726562 13.050781 L 5.726562 10.855469 Z M 3.300781 12.316406 L 2.910156 12.316406 C 2.808594 12.316406 2.722656 12.28125 2.652344 12.210938 C 2.582031 12.140625 2.546875 12.054688 2.546875 11.953125 C 2.546875 11.851562 2.582031 11.769531 2.652344 11.695312 C 2.722656 11.625 2.808594 11.589844 2.910156 11.589844 L 3.300781 11.589844 C 3.402344 11.589844 3.488281 11.625 3.558594 11.695312 C 3.628906 11.769531 3.664062 11.851562 3.664062 11.953125 C 3.664062 12.054688 3.628906 12.140625 3.558594 12.210938 C 3.488281 12.28125 3.402344 12.316406 3.300781 12.316406 Z M 3.300781 12.316406 " fill-opacity="1" fill-rule="nonzero"/></g><path fill="#da6540" d="M 23.546875 10.359375 L 23.546875 11.503906 C 23.144531 11.265625 22.707031 11.144531 22.242188 11.144531 L 17.269531 11.144531 C 16.304688 11.144531 15.457031 11.683594 15 12.484375 C 14.542969 11.683594 13.699219 11.144531 12.734375 11.144531 L 7.761719 11.144531 C 7.292969 11.144531 6.855469 11.265625 6.453125 11.503906 L 6.453125 10.359375 C 6.453125 9.964844 6.53125 9.585938 6.683594 9.222656 C 6.832031 8.859375 7.046875 8.535156 7.328125 8.257812 C 7.605469 7.976562 7.925781 7.761719 8.292969 7.613281 C 8.65625 7.460938 9.035156 7.386719 9.429688 7.386719 L 20.570312 7.386719 C 20.964844 7.386719 21.347656 7.460938 21.710938 7.613281 C 22.074219 7.761719 22.394531 7.980469 22.675781 8.257812 C 22.953125 8.535156 23.167969 8.859375 23.320312 9.222656 C 23.472656 9.585938 23.546875 9.964844 23.546875 10.359375 Z M 23.546875 10.359375 " fill-opacity="1" fill-rule="nonzero"/><path fill="#da6540" d="M 23.546875 12.414062 L 23.546875 14.347656 C 23.359375 14.300781 23.167969 14.277344 22.976562 14.28125 L 15.363281 14.28125 L 15.363281 13.859375 C 15.363281 12.761719 16.21875 11.867188 17.269531 11.867188 L 22.238281 11.867188 C 22.75 11.871094 23.1875 12.054688 23.546875 12.414062 Z M 23.546875 12.414062 " fill-opacity="1" fill-rule="nonzero"/><g clip-path="url(#d37c32a60f)"><path fill="#da6540" d="M 29.515625 13.777344 L 29.515625 18.511719 L 27.75 18.511719 C 27.535156 17.351562 26.933594 16.441406 25.953125 15.78125 L 24.335938 14.695312 C 24.3125 14.679688 24.292969 14.667969 24.273438 14.652344 L 24.273438 13.777344 Z M 29.515625 13.777344 " fill-opacity="1" fill-rule="nonzero"/></g><g clip-path="url(#efff022fd4)"><path fill="#da6540" d="M 24.273438 10.855469 L 24.273438 13.050781 L 29.515625 13.050781 L 29.515625 10.855469 Z M 27.089844 12.316406 L 26.699219 12.316406 C 26.597656 12.316406 26.511719 12.28125 26.441406 12.210938 C 26.371094 12.140625 26.335938 12.054688 26.335938 11.953125 C 26.335938 11.851562 26.371094 11.769531 26.441406 11.695312 C 26.511719 11.625 26.597656 11.589844 26.699219 11.589844 L 27.089844 11.589844 C 27.191406 11.589844 27.277344 11.625 27.347656 11.695312 C 27.417969 11.769531 27.453125 11.851562 27.453125 11.953125 C 27.453125 12.054688 27.417969 12.140625 27.347656 12.210938 C 27.277344 12.28125 27.191406 12.316406 27.089844 12.316406 Z M 27.089844 12.316406 " fill-opacity="1" fill-rule="nonzero"/></g><path fill="#da6540" d="M 2.472656 8.535156 L 2.472656 10.128906 L 3.742188 10.128906 L 3.742188 8.535156 Z M 2.472656 8.535156 " fill-opacity="1" fill-rule="nonzero"/><g clip-path="url(#b9ec5c1546)"><path fill="#da6540" d="M 4.867188 7.8125 L 1.34375 7.8125 L 1.984375 3.488281 L 4.226562 3.488281 Z M 4.867188 7.8125 " fill-opacity="1" fill-rule="nonzero"/></g><path fill="#da6540" d="M 26.257812 8.535156 L 26.257812 10.128906 L 27.527344 10.128906 L 27.527344 8.535156 Z M 26.257812 8.535156 " fill-opacity="1" fill-rule="nonzero"/><g clip-path="url(#cdc8494a7b)"><path fill="#da6540" d="M 28.65625 7.8125 L 25.132812 7.8125 L 25.773438 3.488281 L 28.015625 3.488281 Z M 28.65625 7.8125 " fill-opacity="1" fill-rule="nonzero"/></g></svg>