<svg xmlns="http://www.w3.org/2000/svg" xmlns:xlink="http://www.w3.org/1999/xlink" width="40" zoomAndPan="magnify" viewBox="0 0 30 30.000001" height="40" preserveAspectRatio="xMidYMid meet" version="1.0"><defs><clipPath id="bacd671f4e"><path d="M 0.484375 3.183594 L 29.515625 3.183594 L 29.515625 25.683594 L 0.484375 25.683594 Z M 0.484375 3.183594 " clip-rule="nonzero"/></clipPath></defs><g clip-path="url(#bacd671f4e)"><path fill="#da6540" d="M 20.878906 25.804688 C 20.574219 25.777344 20 25.589844 19.6875 25.414062 C 19.621094 25.375 19.488281 25.320312 19.394531 25.289062 C 19.300781 25.253906 19.191406 25.214844 19.152344 25.191406 C 19.109375 25.171875 18.941406 25.101562 18.777344 25.03125 C 18.449219 24.898438 18.039062 24.695312 17.910156 24.601562 C 17.863281 24.570312 17.777344 24.527344 17.71875 24.503906 C 17.65625 24.480469 17.300781 24.308594 16.925781 24.125 C 16.546875 23.941406 16.234375 23.789062 16.226562 23.789062 C 16.1875 23.789062 15.273438 23.332031 15.089844 23.21875 C 14.777344 23.027344 14.363281 22.558594 14.257812 22.273438 C 14.226562 22.1875 14.15625 22.046875 14.105469 21.957031 C 14.015625 21.792969 14.015625 21.785156 14.015625 21.457031 C 14.015625 21.277344 14.003906 20.832031 13.988281 20.472656 C 13.925781 18.867188 13.90625 15.21875 13.960938 15.019531 C 14.085938 14.535156 13.957031 14.339844 13.660156 14.5625 C 13.59375 14.613281 13.4375 14.710938 13.308594 14.785156 C 13.183594 14.859375 12.984375 14.976562 12.871094 15.042969 C 12.757812 15.109375 12.496094 15.261719 12.289062 15.375 C 12.082031 15.488281 11.792969 15.65625 11.648438 15.746094 C 11.5 15.832031 11.222656 15.984375 11.03125 16.082031 C 10.839844 16.179688 10.597656 16.308594 10.496094 16.371094 C 10.390625 16.429688 10.257812 16.492188 10.199219 16.507812 C 10.136719 16.523438 10.046875 16.570312 9.992188 16.613281 C 9.863281 16.71875 9.453125 16.839844 9.066406 16.890625 C 8.734375 16.933594 8.304688 16.921875 7.835938 16.859375 C 7.605469 16.828125 7.328125 16.792969 7.21875 16.78125 C 7.03125 16.761719 6.742188 16.699219 6.148438 16.554688 C 6.007812 16.519531 5.78125 16.464844 5.640625 16.433594 C 5.34375 16.363281 5.15625 16.316406 4.929688 16.257812 C 4.84375 16.234375 4.675781 16.191406 4.554688 16.164062 C 4.4375 16.136719 4.222656 16.085938 4.074219 16.050781 C 3.925781 16.011719 3.636719 15.945312 3.433594 15.894531 C 3.226562 15.847656 3 15.792969 2.925781 15.773438 C 2.851562 15.75 2.765625 15.734375 2.734375 15.734375 C 2.699219 15.734375 2.542969 15.699219 2.382812 15.660156 C 2.222656 15.617188 2.035156 15.566406 1.964844 15.550781 C 1.382812 15.410156 0.746094 14.851562 0.742188 14.46875 C 0.742188 14.4375 0.710938 14.339844 0.675781 14.25 C 0.613281 14.101562 0.609375 14.050781 0.597656 13.554688 C 0.589844 13.261719 0.566406 12.632812 0.542969 12.164062 C 0.488281 11.109375 0.496094 6.746094 0.546875 6.585938 C 0.566406 6.53125 0.59375 6.421875 0.613281 6.335938 C 0.628906 6.253906 0.667969 6.164062 0.691406 6.140625 C 0.71875 6.117188 0.753906 6.050781 0.773438 6 C 0.789062 5.945312 0.871094 5.824219 0.949219 5.730469 C 1.03125 5.636719 1.113281 5.535156 1.132812 5.5 C 1.257812 5.308594 1.5625 5.128906 2.050781 4.964844 C 2.308594 4.875 2.566406 4.78125 2.617188 4.757812 C 2.875 4.636719 3.710938 4.316406 4.34375 4.097656 C 4.546875 4.027344 4.824219 3.921875 4.957031 3.871094 C 5.089844 3.816406 5.34375 3.71875 5.519531 3.648438 C 5.695312 3.582031 5.851562 3.515625 5.867188 3.503906 C 5.898438 3.480469 6.367188 3.359375 6.628906 3.304688 C 7.125 3.203125 9.070312 3.183594 9.222656 3.277344 C 9.238281 3.289062 9.375 3.3125 9.527344 3.332031 C 9.675781 3.355469 9.867188 3.382812 9.949219 3.398438 C 10.027344 3.410156 10.292969 3.453125 10.535156 3.492188 C 10.78125 3.527344 11.117188 3.582031 11.285156 3.613281 C 11.457031 3.640625 11.785156 3.691406 12.023438 3.71875 C 12.523438 3.785156 12.707031 3.816406 12.949219 3.886719 C 13.046875 3.914062 13.179688 3.933594 13.246094 3.933594 C 13.3125 3.933594 13.410156 3.953125 13.460938 3.976562 C 13.515625 3.996094 13.667969 4.035156 13.804688 4.058594 C 14.640625 4.199219 15.164062 4.699219 15.390625 5.574219 L 15.484375 5.941406 L 15.511719 7.402344 C 15.5625 9.929688 15.550781 12.085938 15.484375 12.253906 C 15.457031 12.328125 15.433594 12.425781 15.433594 12.464844 C 15.433594 12.503906 15.402344 12.585938 15.367188 12.644531 C 15.195312 12.925781 15.242188 13.03125 15.496094 12.933594 C 15.910156 12.777344 16.160156 12.71875 16.757812 12.628906 C 16.847656 12.617188 17.039062 12.582031 17.1875 12.550781 C 17.332031 12.519531 17.539062 12.476562 17.644531 12.457031 C 17.753906 12.4375 17.859375 12.410156 17.886719 12.394531 C 17.914062 12.382812 18.023438 12.363281 18.136719 12.351562 C 18.246094 12.34375 18.449219 12.304688 18.589844 12.269531 C 18.730469 12.234375 18.863281 12.203125 18.890625 12.203125 C 18.917969 12.203125 19.042969 12.179688 19.171875 12.148438 C 19.421875 12.09375 20.058594 11.964844 20.503906 11.878906 C 20.652344 11.851562 20.890625 11.824219 21.039062 11.820312 C 21.1875 11.8125 21.355469 11.792969 21.414062 11.777344 C 21.542969 11.738281 22.292969 11.75 22.617188 11.796875 C 22.800781 11.824219 23.355469 11.980469 23.714844 12.109375 C 24.21875 12.289062 24.832031 12.511719 25.066406 12.597656 C 25.21875 12.65625 25.394531 12.710938 25.453125 12.722656 C 25.507812 12.734375 25.660156 12.792969 25.785156 12.859375 C 25.914062 12.921875 26.117188 13.011719 26.242188 13.058594 C 26.367188 13.109375 26.789062 13.273438 27.179688 13.429688 C 27.566406 13.582031 27.925781 13.71875 27.976562 13.734375 C 28.234375 13.804688 28.84375 14.222656 28.972656 14.417969 C 29.007812 14.472656 29.058594 14.542969 29.082031 14.570312 C 29.140625 14.640625 29.230469 14.90625 29.25 15.089844 C 29.261719 15.171875 29.292969 15.332031 29.320312 15.449219 C 29.347656 15.566406 29.367188 15.671875 29.359375 15.6875 C 29.347656 15.699219 29.355469 15.863281 29.371094 16.050781 C 29.386719 16.238281 29.40625 16.632812 29.414062 16.925781 C 29.425781 17.21875 29.445312 17.769531 29.457031 18.144531 C 29.507812 19.457031 29.488281 21.953125 29.425781 22.128906 C 29.394531 22.210938 29.359375 22.339844 29.347656 22.417969 C 29.289062 22.757812 29.007812 23.234375 28.738281 23.449219 C 28.652344 23.519531 28.5625 23.609375 28.542969 23.644531 C 28.523438 23.683594 28.46875 23.730469 28.425781 23.753906 C 28.378906 23.777344 28.300781 23.835938 28.246094 23.882812 C 28.054688 24.054688 27.949219 24.101562 27.355469 24.269531 C 27.191406 24.316406 26.894531 24.414062 26.691406 24.488281 C 26.492188 24.558594 26.304688 24.617188 26.277344 24.617188 C 26.230469 24.617188 26.058594 24.667969 25.535156 24.832031 C 25.402344 24.875 25.113281 24.960938 24.890625 25.023438 C 24.671875 25.085938 24.453125 25.152344 24.410156 25.167969 C 24.367188 25.1875 24.257812 25.214844 24.167969 25.230469 C 24.078125 25.25 23.925781 25.292969 23.832031 25.328125 C 23.609375 25.417969 23.085938 25.558594 22.589844 25.660156 C 22.53125 25.671875 22.417969 25.707031 22.335938 25.742188 C 22.191406 25.800781 21.253906 25.839844 20.878906 25.804688 Z M 22.335938 25.511719 C 22.390625 25.457031 22.339844 25.382812 22.242188 25.375 C 22.09375 25.359375 21.875 25.285156 21.769531 25.214844 C 21.605469 25.105469 21.546875 25.179688 21.65625 25.359375 C 21.78125 25.5625 22.195312 25.65625 22.335938 25.511719 Z M 20.390625 25.257812 C 20.625 25.195312 20.871094 24.957031 21.035156 24.644531 L 21.152344 24.414062 L 21.160156 23.789062 C 21.175781 22.679688 21.167969 22.238281 21.136719 21.542969 C 21.09375 20.730469 21.089844 17.632812 21.132812 17.558594 C 21.144531 17.53125 21.175781 17.421875 21.199219 17.3125 C 21.226562 17.179688 21.273438 17.0625 21.351562 16.933594 C 21.414062 16.832031 21.492188 16.703125 21.519531 16.648438 C 21.773438 16.167969 22.433594 15.773438 23.285156 15.589844 C 23.402344 15.566406 23.566406 15.527344 23.648438 15.507812 C 23.847656 15.453125 24.441406 15.316406 24.558594 15.292969 C 24.6875 15.269531 25.066406 15.179688 25.304688 15.117188 C 25.417969 15.089844 25.628906 15.042969 25.773438 15.011719 C 26.105469 14.949219 26.546875 14.851562 27.019531 14.742188 C 27.851562 14.550781 28.015625 14.527344 28.289062 14.558594 C 28.394531 14.570312 28.523438 14.601562 28.578125 14.625 C 28.671875 14.671875 28.683594 14.671875 28.722656 14.632812 C 28.792969 14.5625 28.726562 14.492188 28.445312 14.339844 L 28.183594 14.199219 L 27.863281 14.203125 C 27.644531 14.207031 27.484375 14.226562 27.367188 14.261719 C 27.207031 14.304688 26.878906 14.390625 26.644531 14.449219 C 26.511719 14.480469 25.753906 14.679688 25.386719 14.777344 C 25.21875 14.820312 24.972656 14.878906 24.839844 14.90625 C 24.707031 14.933594 24.429688 15 24.222656 15.054688 C 24.015625 15.109375 23.78125 15.167969 23.703125 15.1875 C 22.964844 15.359375 22.65625 15.421875 22.417969 15.441406 C 22.261719 15.453125 22.082031 15.480469 22.015625 15.496094 C 21.863281 15.539062 20.800781 15.558594 20.582031 15.523438 C 20.496094 15.511719 20.40625 15.507812 20.382812 15.519531 C 20.359375 15.53125 20.253906 15.519531 20.140625 15.492188 C 20.03125 15.464844 19.890625 15.441406 19.832031 15.441406 C 19.765625 15.441406 19.671875 15.414062 19.605469 15.375 C 19.539062 15.339844 19.445312 15.304688 19.394531 15.292969 C 19.34375 15.28125 19.15625 15.210938 18.980469 15.132812 C 18.800781 15.054688 18.628906 14.984375 18.589844 14.972656 C 18.519531 14.953125 18.320312 14.863281 18.09375 14.753906 C 18.023438 14.71875 17.925781 14.679688 17.882812 14.667969 C 17.835938 14.652344 17.667969 14.585938 17.507812 14.515625 C 17.230469 14.398438 17.144531 14.363281 16.738281 14.195312 C 16.644531 14.15625 16.511719 14.101562 16.441406 14.074219 C 16.371094 14.046875 16.273438 14 16.222656 13.972656 C 16.171875 13.941406 16.066406 13.898438 15.992188 13.875 C 15.585938 13.757812 15.347656 13.539062 15.441406 13.375 C 15.519531 13.238281 15.480469 13.191406 15.332031 13.253906 C 15.277344 13.277344 15.175781 13.316406 15.109375 13.339844 C 14.785156 13.453125 14.5625 13.667969 14.457031 13.957031 C 14.347656 14.257812 14.433594 14.320312 14.667969 14.105469 L 14.8125 13.976562 L 15.050781 13.988281 C 15.257812 14 15.3125 14.015625 15.496094 14.109375 C 15.613281 14.167969 15.824219 14.261719 15.964844 14.316406 C 16.292969 14.445312 17.035156 14.753906 17.226562 14.839844 C 17.363281 14.898438 17.753906 15.0625 18.46875 15.351562 C 18.75 15.464844 19.058594 15.601562 19.496094 15.800781 C 19.769531 15.925781 20.203125 16.3125 20.378906 16.589844 C 20.566406 16.882812 20.574219 16.960938 20.597656 18.679688 C 20.609375 19.523438 20.632812 20.757812 20.648438 21.421875 C 20.664062 22.082031 20.679688 23.027344 20.683594 23.519531 L 20.691406 24.417969 L 20.566406 24.683594 C 20.457031 24.925781 20.433594 24.960938 20.324219 25.019531 C 20.007812 25.195312 20.050781 25.351562 20.390625 25.257812 Z M 23.351562 23.949219 C 23.671875 23.90625 23.957031 23.457031 23.90625 23.078125 C 23.816406 22.414062 23.480469 22.222656 22.980469 22.554688 C 22.597656 22.808594 22.597656 23.6875 22.980469 23.917969 C 23.085938 23.984375 23.109375 23.984375 23.351562 23.949219 Z M 19.316406 23.574219 C 19.617188 23.421875 19.671875 22.738281 19.414062 22.378906 C 19.164062 22.027344 18.96875 21.988281 18.738281 22.242188 C 18.25 22.792969 18.71875 23.878906 19.316406 23.574219 Z M 27.765625 22.605469 C 28.070312 22.332031 28.109375 22.078125 27.921875 21.5625 C 27.824219 21.292969 27.335938 21.15625 27.171875 21.351562 C 26.925781 21.644531 26.90625 22.445312 27.136719 22.636719 C 27.320312 22.789062 27.574219 22.777344 27.765625 22.605469 Z M 15.648438 21.933594 C 16.144531 21.789062 16.035156 20.726562 15.503906 20.589844 C 15.175781 20.507812 15.0625 20.574219 15.011719 20.875 C 14.886719 21.59375 15.171875 22.074219 15.648438 21.933594 Z M 17.691406 20.121094 C 18.085938 19.679688 17.792969 18.730469 17.257812 18.730469 C 16.914062 18.730469 16.644531 19.617188 16.90625 19.894531 C 16.9375 19.929688 16.980469 19.996094 17.007812 20.046875 C 17.078125 20.191406 17.203125 20.257812 17.402344 20.257812 L 17.570312 20.257812 Z M 23.367188 19.027344 C 23.914062 18.6875 23.8125 17.496094 23.234375 17.453125 C 22.816406 17.425781 22.5 18.101562 22.683594 18.625 C 22.800781 18.957031 22.859375 19.023438 23.039062 19.054688 C 23.230469 19.085938 23.277344 19.082031 23.367188 19.027344 Z M 19.402344 18.550781 C 19.515625 18.433594 19.53125 18.402344 19.554688 18.253906 C 19.566406 18.164062 19.582031 18.082031 19.589844 18.070312 C 19.625 18.007812 19.535156 17.476562 19.472656 17.398438 C 19.4375 17.355469 19.386719 17.285156 19.359375 17.25 C 19.207031 17.03125 18.730469 17.179688 18.644531 17.472656 C 18.425781 18.203125 18.976562 18.984375 19.402344 18.550781 Z M 27.757812 17.894531 C 28.199219 17.425781 27.964844 16.511719 27.402344 16.511719 C 27.082031 16.511719 26.761719 17.183594 26.882812 17.605469 C 26.976562 17.949219 27.046875 17.992188 27.570312 18.03125 C 27.605469 18.035156 27.671875 17.988281 27.757812 17.894531 Z M 15.796875 17.085938 C 15.976562 16.949219 16.046875 16.332031 15.914062 16.070312 C 15.886719 16.011719 15.859375 15.945312 15.859375 15.917969 C 15.859375 15.652344 15.335938 15.644531 15.199219 15.910156 C 14.835938 16.605469 15.28125 17.476562 15.796875 17.085938 Z M 8.574219 16.445312 C 8.800781 16.332031 9.070312 16.085938 9.132812 15.925781 C 9.160156 15.855469 9.207031 15.796875 9.253906 15.773438 C 9.300781 15.75 9.339844 15.703125 9.347656 15.660156 C 9.355469 15.621094 9.386719 15.5 9.414062 15.394531 C 9.453125 15.242188 9.460938 15.171875 9.441406 15.074219 C 9.425781 15.003906 9.410156 14.667969 9.398438 14.332031 C 9.371094 13.269531 9.363281 13.109375 9.332031 12.671875 C 9.296875 12.164062 9.269531 11.128906 9.277344 10.625 C 9.28125 10.425781 9.289062 9.914062 9.292969 9.488281 C 9.304688 8.394531 9.363281 8.046875 9.585938 7.695312 C 9.632812 7.621094 9.710938 7.5 9.757812 7.425781 C 9.851562 7.269531 10.039062 7.101562 10.214844 7.011719 C 10.347656 6.945312 10.757812 6.796875 10.8125 6.796875 C 10.832031 6.796875 10.945312 6.75 11.066406 6.691406 C 11.183594 6.632812 11.289062 6.585938 11.300781 6.585938 C 11.3125 6.585938 11.480469 6.507812 11.671875 6.414062 C 11.863281 6.320312 12.050781 6.234375 12.089844 6.222656 C 12.125 6.214844 12.257812 6.152344 12.382812 6.089844 C 12.507812 6.027344 12.722656 5.929688 12.863281 5.875 C 13.003906 5.820312 13.15625 5.753906 13.199219 5.726562 C 13.242188 5.699219 13.355469 5.648438 13.453125 5.605469 C 13.546875 5.566406 13.769531 5.46875 13.945312 5.386719 C 14.339844 5.207031 14.503906 5.179688 14.710938 5.269531 C 14.984375 5.390625 15.066406 5.277344 14.863281 5.0625 C 14.800781 4.996094 14.714844 4.886719 14.675781 4.824219 C 14.574219 4.667969 14.457031 4.667969 14.382812 4.824219 C 14.332031 4.933594 14.21875 5.003906 13.785156 5.179688 C 13.65625 5.234375 13.46875 5.316406 13.375 5.367188 C 13.277344 5.414062 13.085938 5.511719 12.945312 5.582031 C 12.804688 5.648438 12.628906 5.730469 12.554688 5.753906 C 12.484375 5.78125 12.320312 5.847656 12.195312 5.902344 C 12.070312 5.957031 11.859375 6.046875 11.722656 6.101562 C 11.589844 6.160156 11.429688 6.230469 11.371094 6.261719 C 11.308594 6.292969 11.171875 6.347656 11.070312 6.386719 C 10.964844 6.421875 10.792969 6.496094 10.6875 6.546875 C 10.582031 6.597656 10.46875 6.636719 10.433594 6.636719 C 10.402344 6.636719 10.292969 6.671875 10.195312 6.714844 C 10.09375 6.753906 9.875 6.824219 9.707031 6.863281 C 9.539062 6.902344 9.351562 6.949219 9.292969 6.960938 C 9.160156 6.992188 7.6875 6.972656 7.59375 6.9375 C 7.554688 6.925781 7.429688 6.898438 7.3125 6.878906 C 7.195312 6.859375 6.949219 6.816406 6.765625 6.78125 C 6.585938 6.746094 6.246094 6.691406 6.015625 6.660156 C 5.789062 6.632812 5.519531 6.589844 5.421875 6.570312 C 5.324219 6.546875 5.210938 6.53125 5.171875 6.53125 C 5.128906 6.53125 4.992188 6.511719 4.867188 6.488281 C 4.660156 6.453125 3.457031 6.253906 2.976562 6.175781 C 2.414062 6.085938 1.558594 6.179688 1.148438 6.378906 C 0.992188 6.453125 0.859375 6.75 0.941406 6.832031 C 1.007812 6.898438 1.015625 6.894531 1.207031 6.730469 C 1.554688 6.433594 2.285156 6.359375 2.898438 6.5625 C 2.984375 6.59375 3.207031 6.640625 3.390625 6.667969 C 3.574219 6.695312 3.816406 6.734375 3.925781 6.757812 C 4.039062 6.777344 4.261719 6.820312 4.421875 6.851562 C 4.855469 6.933594 5.132812 6.988281 5.25 7.011719 C 5.394531 7.042969 5.863281 7.132812 6.15625 7.183594 C 7.203125 7.371094 7.226562 7.375 7.53125 7.523438 C 7.800781 7.65625 8.125 7.902344 8.257812 8.074219 C 8.472656 8.347656 8.554688 8.46875 8.617188 8.621094 C 8.660156 8.714844 8.71875 8.839844 8.75 8.898438 C 8.816406 9.023438 8.855469 9.242188 8.863281 9.539062 C 8.867188 9.660156 8.882812 9.78125 8.902344 9.816406 C 8.941406 9.890625 8.972656 11.3125 8.980469 13.355469 C 8.984375 14.113281 8.992188 14.816406 9 14.921875 C 9.046875 15.433594 8.703125 16.0625 8.25 16.320312 C 7.875 16.53125 8.164062 16.640625 8.574219 16.445312 Z M 10.351562 16.1875 C 10.378906 16.171875 10.402344 16.136719 10.402344 16.109375 C 10.402344 16.058594 10.382812 16.046875 10.214844 16.015625 C 10.152344 16.003906 10.085938 15.953125 10.007812 15.871094 C 9.824219 15.671875 9.722656 15.808594 9.878906 16.046875 C 9.984375 16.199219 10.203125 16.265625 10.351562 16.1875 Z M 7.164062 14.78125 C 7.609375 14.707031 7.804688 13.648438 7.414062 13.425781 C 6.855469 13.105469 6.199219 13.859375 6.546875 14.421875 C 6.589844 14.492188 6.632812 14.574219 6.640625 14.605469 C 6.664062 14.679688 6.941406 14.828125 7.019531 14.808594 C 7.046875 14.804688 7.113281 14.789062 7.164062 14.78125 Z M 11.351562 14.257812 C 11.414062 14.191406 11.476562 14.089844 11.496094 14.023438 C 11.515625 13.957031 11.550781 13.84375 11.570312 13.773438 C 11.601562 13.675781 11.605469 13.621094 11.582031 13.511719 C 11.566406 13.4375 11.554688 13.34375 11.554688 13.304688 C 11.550781 12.871094 10.777344 12.667969 10.707031 13.082031 C 10.699219 13.136719 10.671875 13.234375 10.648438 13.300781 C 10.398438 13.976562 10.925781 14.699219 11.351562 14.257812 Z M 22.125 13.875 C 22.664062 13.796875 22.730469 13.613281 22.265625 13.484375 C 21.605469 13.304688 20.550781 13.480469 20.738281 13.738281 C 20.835938 13.871094 21.613281 13.945312 22.125 13.875 Z M 2.867188 13.769531 C 3.046875 13.640625 3.175781 13.277344 3.179688 12.914062 C 3.179688 12.664062 3.1875 12.6875 2.976562 12.355469 C 2.855469 12.167969 2.578125 12.09375 2.425781 12.210938 C 2.382812 12.242188 2.3125 12.296875 2.269531 12.332031 C 1.855469 12.652344 2.035156 13.589844 2.546875 13.792969 C 2.71875 13.859375 2.746094 13.859375 2.867188 13.769531 Z M 7.132812 12.230469 C 7.484375 12.121094 7.53125 12.046875 7.558594 11.585938 C 7.578125 11.222656 7.5 10.957031 7.34375 10.851562 C 7.15625 10.730469 6.753906 10.691406 6.667969 10.785156 C 6.640625 10.816406 6.582031 10.863281 6.535156 10.894531 C 6.328125 11.019531 6.277344 11.523438 6.4375 11.839844 C 6.617188 12.195312 6.839844 12.320312 7.132812 12.230469 Z M 12.703125 11.28125 C 12.742188 11.257812 12.820312 11.21875 12.878906 11.1875 C 13.34375 10.960938 13.253906 9.695312 12.769531 9.664062 C 12.164062 9.625 11.863281 10.644531 12.320312 11.179688 C 12.453125 11.335938 12.5625 11.363281 12.703125 11.28125 Z M 2.785156 11.257812 C 3.261719 11.058594 3.101562 9.796875 2.597656 9.75 C 2.285156 9.71875 2.070312 9.914062 2.027344 10.273438 C 2 10.484375 2.007812 10.566406 2.078125 10.917969 C 2.105469 11.054688 2.289062 11.238281 2.402344 11.242188 C 2.4375 11.242188 2.492188 11.253906 2.523438 11.265625 C 2.601562 11.300781 2.6875 11.296875 2.785156 11.257812 Z M 7.199219 9.839844 C 7.796875 9.585938 7.566406 8.324219 6.925781 8.324219 C 6.761719 8.324219 6.394531 8.523438 6.347656 8.636719 C 6.054688 9.378906 6.570312 10.105469 7.199219 9.839844 Z M 2.753906 8.945312 C 3.109375 8.570312 3.167969 7.773438 2.851562 7.65625 C 2.378906 7.484375 2.257812 7.46875 2.148438 7.574219 C 2.050781 7.664062 1.972656 7.839844 1.972656 7.96875 C 1.972656 8.03125 1.960938 8.113281 1.945312 8.152344 C 1.917969 8.230469 1.921875 8.261719 2.046875 8.671875 C 2.152344 9.015625 2.542969 9.167969 2.753906 8.945312 Z M 14.226562 8.539062 C 14.289062 8.503906 14.484375 8.207031 14.539062 8.054688 C 14.699219 7.605469 14.351562 6.820312 14.078125 7.023438 C 14.050781 7.046875 13.996094 7.0625 13.957031 7.066406 C 13.550781 7.070312 13.441406 8.242188 13.824219 8.503906 C 13.921875 8.570312 14.136719 8.585938 14.226562 8.539062 Z M 1.609375 5.941406 C 1.71875 5.902344 1.539062 5.59375 1.410156 5.59375 C 1.144531 5.59375 1.136719 5.929688 1.398438 5.949219 C 1.472656 5.953125 1.535156 5.960938 1.539062 5.964844 C 1.539062 5.964844 1.574219 5.957031 1.609375 5.941406 Z M 8.890625 5.90625 C 9.109375 5.859375 9.175781 5.691406 9.023438 5.566406 C 8.894531 5.460938 8.128906 5.398438 7.804688 5.46875 C 7.695312 5.492188 7.539062 5.523438 7.460938 5.539062 C 7.136719 5.605469 7.152344 5.777344 7.484375 5.820312 C 7.566406 5.828125 7.671875 5.847656 7.71875 5.863281 C 7.949219 5.9375 8.625 5.960938 8.890625 5.90625 Z M 8.113281 4.445312 C 8.199219 4.414062 8.296875 4.390625 8.328125 4.390625 C 8.503906 4.386719 8.554688 4.089844 8.382812 4.058594 C 7.523438 3.894531 6.816406 3.964844 6.816406 4.207031 C 6.816406 4.269531 6.910156 4.363281 6.972656 4.363281 C 6.996094 4.363281 7.066406 4.382812 7.125 4.40625 C 7.375 4.503906 7.886719 4.523438 8.113281 4.445312 Z M 8.113281 4.445312 " fill-opacity="1" fill-rule="nonzero"/></g></svg>