<svg xmlns="http://www.w3.org/2000/svg" xmlns:xlink="http://www.w3.org/1999/xlink" width="40" zoomAndPan="magnify" viewBox="0 0 30 30.000001" height="40" preserveAspectRatio="xMidYMid meet" version="1.0"><defs><clipPath id="5505e030ff"><path d="M 18 15 L 29.515625 15 L 29.515625 23 L 18 23 Z M 18 15 " clip-rule="nonzero"/></clipPath><clipPath id="439f94c42b"><path d="M 18 14 L 29.515625 14 L 29.515625 23 L 18 23 Z M 18 14 " clip-rule="nonzero"/></clipPath><clipPath id="7357209ae1"><path d="M 0.484375 15 L 12 15 L 12 23 L 0.484375 23 Z M 0.484375 15 " clip-rule="nonzero"/></clipPath><clipPath id="58c3a931b1"><path d="M 0.484375 14 L 12 14 L 12 23 L 0.484375 23 Z M 0.484375 14 " clip-rule="nonzero"/></clipPath><clipPath id="2450c34e6a"><path d="M 6 16 L 24 16 L 24 24.660156 L 6 24.660156 Z M 6 16 " clip-rule="nonzero"/></clipPath><clipPath id="a057f6ff3e"><path d="M 6 15 L 24 15 L 24 24.660156 L 6 24.660156 Z M 6 15 " clip-rule="nonzero"/></clipPath><clipPath id="b644480ea4"><path d="M 9 4.335938 L 21 4.335938 L 21 15 L 9 15 Z M 9 4.335938 " clip-rule="nonzero"/></clipPath></defs><g clip-path="url(#5505e030ff)"><path fill="#da6540" d="M 23.277344 22.152344 L 29.316406 22.152344 C 28.597656 16.589844 25.816406 15.082031 22.496094 15.082031 C 21.046875 15.082031 19.699219 15.371094 18.582031 16.15625 C 20.917969 17.082031 22.472656 19.066406 23.277344 22.152344 " fill-opacity="1" fill-rule="nonzero"/></g><g clip-path="url(#439f94c42b)"><path fill="#da6540" d="M 23.277344 22.152344 L 23.277344 22.347656 L 29.316406 22.347656 C 29.375 22.347656 29.425781 22.324219 29.464844 22.28125 C 29.5 22.238281 29.515625 22.183594 29.511719 22.128906 C 29.328125 20.722656 29.015625 19.566406 28.59375 18.621094 C 27.957031 17.203125 27.070312 16.261719 26.019531 15.683594 C 24.96875 15.105469 23.761719 14.886719 22.496094 14.886719 C 21.757812 14.886719 21.042969 14.960938 20.367188 15.136719 C 19.6875 15.3125 19.050781 15.589844 18.472656 15.996094 C 18.414062 16.039062 18.382812 16.109375 18.390625 16.179688 C 18.398438 16.25 18.445312 16.3125 18.511719 16.335938 C 19.648438 16.789062 20.589844 17.492188 21.351562 18.464844 C 22.113281 19.4375 22.691406 20.679688 23.085938 22.203125 C 23.109375 22.289062 23.1875 22.347656 23.277344 22.347656 L 23.277344 22.152344 L 23.464844 22.105469 C 23.054688 20.542969 22.457031 19.25 21.65625 18.226562 C 20.855469 17.203125 19.851562 16.449219 18.652344 15.976562 L 18.582031 16.15625 L 18.695312 16.316406 C 19.230469 15.9375 19.824219 15.679688 20.464844 15.511719 C 21.101562 15.347656 21.785156 15.277344 22.496094 15.277344 C 23.3125 15.277344 24.089844 15.371094 24.804688 15.589844 C 25.878906 15.921875 26.816406 16.539062 27.558594 17.585938 C 28.304688 18.628906 28.859375 20.113281 29.125 22.179688 L 29.316406 22.152344 L 29.316406 21.960938 L 23.277344 21.960938 L 23.277344 22.152344 L 23.464844 22.105469 L 23.277344 22.152344 " fill-opacity="1" fill-rule="nonzero"/></g><path fill="#da6540" d="M 22.496094 5.433594 C 21.425781 5.433594 20.449219 5.832031 19.699219 6.484375 C 20.3125 7.382812 20.671875 8.46875 20.671875 9.636719 C 20.671875 10.839844 20.285156 11.953125 19.640625 12.867188 C 20.394531 13.550781 21.394531 13.972656 22.496094 13.972656 C 24.855469 13.972656 26.765625 12.058594 26.765625 9.703125 C 26.765625 7.34375 24.855469 5.433594 22.496094 5.433594 " fill-opacity="1" fill-rule="nonzero"/><path fill="#da6540" d="M 22.496094 5.433594 L 22.496094 5.238281 C 21.375 5.238281 20.355469 5.65625 19.570312 6.335938 C 19.496094 6.402344 19.480469 6.511719 19.539062 6.59375 C 20.128906 7.460938 20.476562 8.507812 20.476562 9.636719 C 20.476562 10.800781 20.105469 11.871094 19.480469 12.757812 C 19.421875 12.835938 19.4375 12.945312 19.507812 13.011719 C 20.300781 13.726562 21.347656 14.167969 22.496094 14.167969 C 24.960938 14.164062 26.960938 12.167969 26.960938 9.703125 C 26.960938 7.238281 24.960938 5.238281 22.496094 5.238281 L 22.496094 5.628906 C 23.621094 5.628906 24.640625 6.082031 25.378906 6.820312 C 26.117188 7.558594 26.570312 8.578125 26.570312 9.703125 C 26.570312 10.828125 26.117188 11.847656 25.378906 12.585938 C 24.640625 13.320312 23.621094 13.777344 22.496094 13.777344 C 21.445312 13.777344 20.492188 13.378906 19.769531 12.722656 L 19.640625 12.867188 L 19.796875 12.980469 C 20.46875 12.035156 20.867188 10.882812 20.867188 9.636719 C 20.867188 8.429688 20.492188 7.304688 19.859375 6.375 L 19.699219 6.484375 L 19.824219 6.628906 C 20.542969 6.007812 21.472656 5.628906 22.496094 5.628906 L 22.496094 5.433594 " fill-opacity="1" fill-rule="nonzero"/><g clip-path="url(#7357209ae1)"><path fill="#da6540" d="M 6.722656 22.152344 L 0.683594 22.152344 C 1.402344 16.589844 4.183594 15.082031 7.503906 15.082031 C 8.953125 15.082031 10.300781 15.371094 11.417969 16.15625 C 9.082031 17.082031 7.527344 19.066406 6.722656 22.152344 " fill-opacity="1" fill-rule="nonzero"/></g><g clip-path="url(#58c3a931b1)"><path fill="#da6540" d="M 6.722656 22.152344 L 6.722656 21.960938 L 0.683594 21.960938 L 0.683594 22.152344 L 0.875 22.179688 C 1.054688 20.800781 1.359375 19.683594 1.761719 18.78125 C 2.371094 17.429688 3.195312 16.5625 4.167969 16.023438 C 5.144531 15.484375 6.277344 15.277344 7.503906 15.277344 C 8.214844 15.277344 8.898438 15.347656 9.535156 15.511719 C 10.175781 15.679688 10.769531 15.9375 11.304688 16.316406 L 11.417969 16.15625 L 11.347656 15.976562 C 10.148438 16.449219 9.144531 17.203125 8.34375 18.226562 C 7.542969 19.25 6.945312 20.542969 6.535156 22.105469 L 6.722656 22.152344 L 6.722656 21.960938 L 6.722656 22.152344 L 6.914062 22.203125 C 7.308594 20.679688 7.890625 19.4375 8.648438 18.464844 C 9.410156 17.492188 10.351562 16.789062 11.488281 16.335938 C 11.554688 16.3125 11.601562 16.25 11.609375 16.179688 C 11.617188 16.109375 11.585938 16.039062 11.527344 15.996094 C 10.949219 15.589844 10.3125 15.3125 9.632812 15.136719 C 8.957031 14.960938 8.242188 14.886719 7.503906 14.886719 C 6.660156 14.886719 5.84375 14.984375 5.082031 15.21875 C 3.9375 15.570312 2.917969 16.246094 2.125 17.359375 C 1.328125 18.472656 0.761719 20.019531 0.488281 22.128906 C 0.484375 22.183594 0.5 22.238281 0.535156 22.28125 C 0.574219 22.324219 0.625 22.347656 0.683594 22.347656 L 6.722656 22.347656 C 6.8125 22.347656 6.890625 22.289062 6.914062 22.203125 L 6.722656 22.152344 " fill-opacity="1" fill-rule="nonzero"/></g><path fill="#da6540" d="M 7.503906 5.433594 C 8.574219 5.433594 9.550781 5.832031 10.300781 6.484375 C 9.6875 7.382812 9.328125 8.46875 9.328125 9.636719 C 9.328125 10.839844 9.714844 11.953125 10.359375 12.867188 C 9.605469 13.550781 8.605469 13.972656 7.503906 13.972656 C 5.144531 13.972656 3.234375 12.058594 3.234375 9.703125 C 3.234375 7.34375 5.144531 5.433594 7.503906 5.433594 " fill-opacity="1" fill-rule="nonzero"/><path fill="#da6540" d="M 7.503906 5.433594 L 7.503906 5.628906 C 8.527344 5.628906 9.457031 6.007812 10.175781 6.628906 L 10.300781 6.484375 L 10.140625 6.375 C 9.507812 7.304688 9.132812 8.429688 9.132812 9.636719 C 9.132812 10.882812 9.53125 12.035156 10.203125 12.980469 L 10.359375 12.867188 L 10.230469 12.722656 C 9.507812 13.378906 8.554688 13.777344 7.503906 13.777344 C 6.378906 13.777344 5.359375 13.320312 4.621094 12.585938 C 3.882812 11.847656 3.429688 10.828125 3.429688 9.703125 C 3.429688 8.578125 3.882812 7.558594 4.621094 6.820312 C 5.359375 6.082031 6.378906 5.628906 7.503906 5.628906 L 7.503906 5.238281 C 5.039062 5.238281 3.039062 7.238281 3.039062 9.703125 C 3.039062 12.167969 5.039062 14.164062 7.503906 14.167969 C 8.652344 14.167969 9.699219 13.726562 10.492188 13.011719 C 10.5625 12.945312 10.578125 12.835938 10.519531 12.757812 C 9.894531 11.871094 9.523438 10.800781 9.523438 9.636719 C 9.523438 8.507812 9.871094 7.460938 10.460938 6.59375 C 10.519531 6.511719 10.503906 6.402344 10.429688 6.335938 C 9.648438 5.65625 8.625 5.238281 7.503906 5.238281 L 7.503906 5.433594 " fill-opacity="1" fill-rule="nonzero"/><g clip-path="url(#2450c34e6a)"><path fill="#da6540" d="M 23.140625 24.496094 C 22.28125 17.859375 18.964844 16.058594 15 16.058594 C 11.035156 16.058594 7.71875 17.859375 6.859375 24.496094 L 23.140625 24.496094 " fill-opacity="1" fill-rule="nonzero"/></g><g clip-path="url(#a057f6ff3e)"><path fill="#da6540" d="M 23.140625 24.496094 L 23.332031 24.472656 C 23.117188 22.796875 22.746094 21.421875 22.242188 20.300781 C 21.488281 18.613281 20.433594 17.496094 19.183594 16.808594 C 17.9375 16.121094 16.507812 15.863281 15 15.863281 C 13.992188 15.863281 13.023438 15.976562 12.117188 16.257812 C 10.761719 16.675781 9.550781 17.472656 8.609375 18.796875 C 7.667969 20.121094 6.992188 21.960938 6.667969 24.472656 C 6.660156 24.527344 6.675781 24.582031 6.710938 24.625 C 6.75 24.667969 6.800781 24.691406 6.859375 24.691406 L 23.140625 24.691406 C 23.199219 24.691406 23.25 24.667969 23.289062 24.625 C 23.324219 24.582031 23.339844 24.527344 23.332031 24.472656 L 23.140625 24.496094 L 23.140625 24.304688 L 6.859375 24.304688 L 6.859375 24.496094 L 7.050781 24.523438 C 7.265625 22.878906 7.628906 21.539062 8.113281 20.457031 C 8.839844 18.835938 9.832031 17.792969 11 17.148438 C 12.171875 16.5 13.535156 16.253906 15 16.253906 C 15.976562 16.253906 16.90625 16.363281 17.765625 16.628906 C 19.054688 17.027344 20.179688 17.769531 21.074219 19.023438 C 21.96875 20.277344 22.628906 22.054688 22.949219 24.523438 L 23.140625 24.496094 L 23.140625 24.304688 L 23.140625 24.496094 " fill-opacity="1" fill-rule="nonzero"/></g><g clip-path="url(#b644480ea4)"><path fill="#da6540" d="M 20.09375 9.636719 C 20.09375 12.453125 17.8125 14.734375 15 14.734375 C 12.183594 14.734375 9.90625 12.453125 9.90625 9.636719 C 9.90625 6.824219 12.183594 4.542969 15 4.542969 C 17.8125 4.542969 20.09375 6.824219 20.09375 9.636719 " fill-opacity="1" fill-rule="nonzero"/><path fill="#da6540" d="M 20.09375 9.636719 L 19.902344 9.636719 C 19.902344 10.992188 19.351562 12.214844 18.464844 13.101562 C 17.578125 13.988281 16.355469 14.539062 15 14.539062 C 13.644531 14.539062 12.421875 13.988281 11.535156 13.101562 C 10.648438 12.214844 10.097656 10.992188 10.097656 9.636719 C 10.097656 8.28125 10.648438 7.058594 11.535156 6.171875 C 12.421875 5.285156 13.644531 4.734375 15 4.734375 C 16.355469 4.734375 17.578125 5.285156 18.464844 6.171875 C 19.351562 7.058594 19.902344 8.28125 19.902344 9.636719 L 20.289062 9.636719 C 20.289062 6.714844 17.921875 4.347656 15 4.347656 C 12.078125 4.347656 9.710938 6.714844 9.710938 9.636719 C 9.710938 12.558594 12.078125 14.925781 15 14.925781 C 17.921875 14.925781 20.289062 12.558594 20.289062 9.636719 L 20.09375 9.636719 " fill-opacity="1" fill-rule="nonzero"/></g></svg>