<svg xmlns="http://www.w3.org/2000/svg" xmlns:xlink="http://www.w3.org/1999/xlink" width="40" zoomAndPan="magnify" viewBox="0 0 30 30.000001" height="40" preserveAspectRatio="xMidYMid meet" version="1.0"><defs><clipPath id="3245e25854"><path d="M 3.460938 0 L 26.683594 0 L 26.683594 29.03125 L 3.460938 29.03125 Z M 3.460938 0 " clip-rule="nonzero"/></clipPath></defs><g clip-path="url(#3245e25854)"><path fill="#d41616" d="M 17.917969 18.730469 C 20.097656 15 22.707031 10.011719 22.707031 7.550781 C 22.695312 7.050781 22.636719 6.558594 22.53125 6.070312 C 22.421875 5.582031 22.269531 5.109375 22.074219 4.648438 C 21.875 4.191406 21.632812 3.757812 21.351562 3.34375 C 21.066406 2.933594 20.746094 2.554688 20.390625 2.203125 C 20.035156 1.855469 19.648438 1.542969 19.230469 1.269531 C 18.8125 0.996094 18.371094 0.761719 17.910156 0.574219 C 17.449219 0.386719 16.972656 0.242188 16.480469 0.148438 C 15.992188 0.0507812 15.496094 0.00390625 14.996094 0.00390625 C 14.496094 0.00390625 14.003906 0.0507812 13.511719 0.148438 C 13.023438 0.242188 12.546875 0.386719 12.085938 0.574219 C 11.621094 0.761719 11.183594 0.996094 10.765625 1.269531 C 10.347656 1.542969 9.960938 1.855469 9.601562 2.203125 C 9.246094 2.554688 8.925781 2.933594 8.644531 3.34375 C 8.359375 3.757812 8.121094 4.191406 7.921875 4.648438 C 7.722656 5.109375 7.570312 5.582031 7.464844 6.070312 C 7.359375 6.558594 7.300781 7.050781 7.289062 7.550781 C 7.289062 10.03125 9.898438 15.015625 12.074219 18.746094 C 7.160156 19.316406 3.539062 21.355469 3.539062 23.785156 C 3.539062 26.679688 8.664062 29.023438 14.996094 29.023438 C 21.324219 29.023438 26.445312 26.683594 26.445312 23.785156 C 26.445312 21.355469 22.824219 19.316406 17.917969 18.730469 Z M 15 3.707031 C 15.476562 3.707031 15.9375 3.800781 16.378906 3.984375 C 16.820312 4.167969 17.207031 4.429688 17.546875 4.769531 C 17.882812 5.105469 18.140625 5.496094 18.324219 5.941406 C 18.503906 6.382812 18.59375 6.84375 18.59375 7.320312 C 18.59375 7.796875 18.5 8.257812 18.316406 8.699219 C 18.128906 9.140625 17.867188 9.527344 17.527344 9.867188 C 17.191406 10.203125 16.796875 10.460938 16.355469 10.640625 C 15.914062 10.824219 15.453125 10.914062 14.976562 10.910156 C 14.496094 10.910156 14.039062 10.816406 13.597656 10.628906 C 13.15625 10.445312 12.769531 10.183594 12.433594 9.84375 C 12.09375 9.503906 11.835938 9.113281 11.65625 8.667969 C 11.476562 8.226562 11.386719 7.765625 11.390625 7.289062 C 11.390625 6.808594 11.480469 6.351562 11.664062 5.910156 C 11.847656 5.464844 12.109375 5.078125 12.445312 4.738281 C 12.785156 4.402344 13.175781 4.144531 13.617188 3.960938 C 14.0625 3.78125 14.519531 3.691406 15 3.691406 Z M 15 25.746094 C 9.433594 25.730469 4.9375 24.21875 4.9375 22.34375 C 4.9375 20.8125 7.976562 19.316406 12.152344 18.847656 C 13.671875 21.484375 14.996094 23.46875 14.996094 23.46875 C 14.996094 23.46875 16.308594 21.484375 17.863281 18.835938 C 22.027344 19.316406 25.070312 20.8125 25.070312 22.328125 C 25.0625 24.21875 20.554688 25.730469 14.996094 25.730469 Z M 15 25.746094 " fill-opacity="1" fill-rule="nonzero"/></g></svg>