<svg xmlns="http://www.w3.org/2000/svg" xmlns:xlink="http://www.w3.org/1999/xlink" width="40" zoomAndPan="magnify" viewBox="0 0 30 30.000001" height="40" preserveAspectRatio="xMidYMid meet" version="1.0"><defs><clipPath id="232bec7484"><path d="M 0.484375 0 L 29.515625 0 L 29.515625 29.03125 L 0.484375 29.03125 Z M 0.484375 0 " clip-rule="nonzero"/></clipPath></defs><path fill="#da6540" d="M 22.746094 11.226562 C 22.511719 10.925781 22.511719 10.640625 22.734375 10.335938 C 22.808594 10.238281 22.882812 10.144531 22.960938 10.050781 C 23.566406 9.339844 23.5 8.175781 22.574219 7.613281 C 22.296875 7.445312 22.054688 7.238281 21.929688 6.921875 C 21.832031 7.222656 21.867188 7.503906 22.007812 7.773438 C 22.085938 7.921875 22.175781 8.0625 22.257812 8.207031 C 22.46875 8.589844 22.417969 8.957031 22.109375 9.265625 C 21.980469 9.398438 21.84375 9.523438 21.722656 9.664062 C 21.273438 10.199219 21.1875 11.027344 21.554688 11.625 C 21.703125 11.871094 21.925781 12.082031 22.132812 12.292969 C 22.4375 12.613281 22.5 12.976562 22.285156 13.363281 C 22.203125 13.515625 22.109375 13.660156 22.035156 13.8125 C 21.910156 14.082031 21.859375 14.359375 21.964844 14.632812 C 22.066406 14.488281 22.160156 14.328125 22.285156 14.195312 C 22.402344 14.074219 22.550781 13.980469 22.691406 13.886719 C 23.484375 13.351562 23.554688 12.292969 23.0625 11.628906 C 22.960938 11.492188 22.851562 11.363281 22.746094 11.226562 " fill-opacity="1" fill-rule="nonzero"/><path fill="#da6540" d="M 20.507812 13.125 C 20.9375 12.738281 20.953125 12.105469 20.578125 11.679688 C 20.511719 11.605469 20.4375 11.539062 20.367188 11.464844 C 20.203125 11.292969 20.171875 11.082031 20.28125 10.871094 C 20.328125 10.78125 20.386719 10.695312 20.433594 10.601562 C 20.511719 10.449219 20.550781 10.285156 20.503906 10.140625 C 20.367188 10.265625 20.234375 10.402344 20.082031 10.511719 C 19.589844 10.863281 19.496094 11.453125 19.867188 11.929688 C 19.917969 11.996094 19.976562 12.0625 20.023438 12.132812 C 20.136719 12.296875 20.132812 12.460938 20.015625 12.621094 C 19.960938 12.695312 19.898438 12.769531 19.839844 12.84375 C 19.496094 13.3125 19.582031 13.875 20.046875 14.222656 C 20.199219 14.339844 20.335938 14.480469 20.476562 14.609375 C 20.535156 14.4375 20.484375 14.25 20.375 14.085938 C 20.121094 13.703125 20.140625 13.460938 20.507812 13.125 " fill-opacity="1" fill-rule="nonzero"/><path fill="#da6540" d="M 20.621094 17.300781 C 20.851562 17.300781 21.074219 17.300781 21.304688 17.300781 C 21.304688 16.496094 21.304688 15.695312 21.304688 14.894531 C 21.074219 14.894531 20.851562 14.894531 20.621094 14.894531 C 20.621094 15.699219 20.621094 16.496094 20.621094 17.300781 " fill-opacity="1" fill-rule="nonzero"/><path fill="#da6540" d="M 21.8125 17.300781 C 22.046875 17.300781 22.265625 17.300781 22.488281 17.300781 C 22.488281 16.488281 22.488281 15.691406 22.488281 14.894531 C 22.253906 14.894531 22.03125 14.894531 21.8125 14.894531 C 21.8125 15.703125 21.8125 16.503906 21.8125 17.300781 " fill-opacity="1" fill-rule="nonzero"/><g clip-path="url(#232bec7484)"><path fill="#da6540" d="M 23.320312 23.773438 L 17.628906 17.296875 C 18.457031 17.296875 19.285156 17.296875 20.113281 17.296875 C 20.113281 16.492188 20.113281 15.691406 20.113281 14.890625 C 18.578125 14.890625 17.042969 14.890625 15.511719 14.890625 L 6.886719 5.082031 C 9.066406 3.203125 11.902344 2.0625 15 2.0625 C 21.867188 2.0625 27.453125 7.648438 27.453125 14.515625 C 27.453125 18.1875 25.855469 21.492188 23.320312 23.773438 Z M 2.546875 14.515625 C 2.546875 11.425781 3.679688 8.601562 5.546875 6.421875 L 12.996094 14.890625 C 10.414062 14.890625 7.835938 14.890625 5.253906 14.890625 C 5.253906 15.703125 5.253906 16.5 5.253906 17.296875 C 8.542969 17.296875 11.828125 17.296875 15.113281 17.296875 L 21.820312 24.925781 C 19.859375 26.214844 17.515625 26.96875 15 26.96875 C 8.132812 26.96875 2.546875 21.382812 2.546875 14.515625 Z M 15 0.00390625 C 6.996094 0.00390625 0.484375 6.511719 0.484375 14.515625 C 0.484375 22.519531 6.996094 29.03125 15 29.03125 C 23.003906 29.03125 29.515625 22.519531 29.515625 14.515625 C 29.515625 6.511719 23.003906 0.00390625 15 0.00390625 " fill-opacity="1" fill-rule="nonzero"/></g></svg>