<svg xmlns="http://www.w3.org/2000/svg" xmlns:xlink="http://www.w3.org/1999/xlink" width="40" zoomAndPan="magnify" viewBox="0 0 30 30.000001" height="40" preserveAspectRatio="xMidYMid meet" version="1.0"><defs><g/><clipPath id="c5392d5ee0"><path d="M 1 0.816406 L 29.515625 0.816406 L 29.515625 28 L 1 28 Z M 1 0.816406 " clip-rule="nonzero"/></clipPath></defs><g clip-path="url(#c5392d5ee0)"><path fill="#0e2e50" d="M 20.117188 0.84375 C 20.058594 0.847656 20 0.847656 19.9375 0.851562 C 17.535156 1.269531 16.214844 3.808594 16.023438 6.046875 C 15.746094 8.082031 16.640625 10.695312 18.871094 11.148438 C 19.195312 11.210938 19.53125 11.183594 19.847656 11.097656 C 22.535156 10.195312 23.738281 7.011719 23.351562 4.375 C 23.238281 2.671875 21.953125 0.820312 20.117188 0.84375 Z M 9.933594 0.953125 C 8.441406 0.992188 7.277344 2.503906 7.039062 3.929688 C 6.539062 6.75 7.824219 10.257812 10.761719 11.148438 C 11.039062 11.210938 11.324219 11.214844 11.601562 11.171875 C 13.589844 10.839844 14.429688 8.613281 14.347656 6.816406 C 14.289062 4.445312 13.054688 1.699219 10.589844 1.035156 C 10.367188 0.972656 10.148438 0.949219 9.933594 0.953125 Z M 26.628906 8.96875 C 24.042969 9.121094 22.273438 11.699219 22.019531 14.109375 C 21.675781 15.84375 22.601562 18.167969 24.585938 18.304688 C 27.347656 18.273438 29.230469 15.320312 29.308594 12.78125 C 29.484375 11.101562 28.496094 9.0625 26.628906 8.96875 Z M 4.007812 9.539062 C 2.910156 9.53125 1.828125 10.1875 1.46875 11.304688 C 0.511719 14.296875 2.4375 18.082031 5.601562 18.710938 C 6.921875 18.9375 8.085938 17.921875 8.414062 16.699219 C 9.105469 14.089844 7.679688 11.058594 5.265625 9.871094 C 4.875 9.652344 4.441406 9.542969 4.007812 9.539062 Z M 15.59375 14.902344 C 13.4375 14.90625 11.25 16 9.855469 17.628906 C 8.347656 19.523438 7.113281 21.734375 6.628906 24.128906 C 6.042969 25.851562 7.371094 27.835938 9.214844 27.847656 C 11.433594 27.910156 13.335938 26.386719 15.542969 26.273438 C 17.410156 25.988281 19.085938 26.960938 20.769531 27.597656 C 22.199219 28.210938 24.179688 27.976562 24.910156 26.433594 C 25.484375 24.863281 24.636719 23.191406 23.9375 21.796875 C 22.507812 19.53125 20.976562 17.152344 18.628906 15.738281 C 17.691406 15.15625 16.648438 14.898438 15.59375 14.902344 Z M 15.59375 14.902344 " fill-opacity="1" fill-rule="nonzero"/></g><g fill="#ffffff" fill-opacity="1"><g transform="translate(12.56699, -0.0241871)"><g><path d="M 0.265625 0.234375 C 0.179688 0.234375 0.117188 0.21875 0.078125 0.1875 C 0.0351562 0.164062 0.015625 0.128906 0.015625 0.078125 C 0.015625 0.046875 0.0234375 0.0195312 0.046875 0 C 0.0664062 -0.0078125 0.09375 -0.0195312 0.125 -0.03125 C 0.101562 -0.0390625 0.0859375 -0.0507812 0.078125 -0.0625 C 0.078125 -0.0820312 0.078125 -0.101562 0.078125 -0.125 C 0.078125 -0.164062 0.101562 -0.191406 0.15625 -0.203125 L 0.15625 -0.21875 C 0.125 -0.226562 0.0976562 -0.242188 0.078125 -0.265625 C 0.0664062 -0.285156 0.0625 -0.316406 0.0625 -0.359375 C 0.0625 -0.390625 0.0703125 -0.414062 0.09375 -0.4375 C 0.113281 -0.46875 0.140625 -0.488281 0.171875 -0.5 C 0.203125 -0.519531 0.234375 -0.53125 0.265625 -0.53125 C 0.304688 -0.53125 0.34375 -0.523438 0.375 -0.515625 C 0.382812 -0.535156 0.394531 -0.5625 0.40625 -0.59375 L 0.515625 -0.578125 C 0.503906 -0.546875 0.492188 -0.519531 0.484375 -0.5 C 0.472656 -0.488281 0.457031 -0.476562 0.4375 -0.46875 L 0.4375 -0.453125 C 0.457031 -0.421875 0.46875 -0.382812 0.46875 -0.34375 C 0.46875 -0.3125 0.457031 -0.285156 0.4375 -0.265625 C 0.425781 -0.242188 0.40625 -0.222656 0.375 -0.203125 C 0.34375 -0.191406 0.304688 -0.1875 0.265625 -0.1875 L 0.25 -0.1875 C 0.238281 -0.1875 0.234375 -0.1875 0.234375 -0.1875 C 0.222656 -0.1875 0.210938 -0.179688 0.203125 -0.171875 C 0.191406 -0.171875 0.1875 -0.164062 0.1875 -0.15625 C 0.1875 -0.132812 0.191406 -0.117188 0.203125 -0.109375 C 0.210938 -0.109375 0.222656 -0.109375 0.234375 -0.109375 L 0.359375 -0.109375 C 0.472656 -0.109375 0.53125 -0.0546875 0.53125 0.046875 C 0.53125 0.078125 0.519531 0.109375 0.5 0.140625 C 0.488281 0.171875 0.460938 0.191406 0.421875 0.203125 C 0.378906 0.222656 0.328125 0.234375 0.265625 0.234375 Z M 0.265625 -0.265625 C 0.285156 -0.265625 0.300781 -0.269531 0.3125 -0.28125 C 0.332031 -0.300781 0.34375 -0.320312 0.34375 -0.34375 C 0.34375 -0.375 0.332031 -0.394531 0.3125 -0.40625 C 0.300781 -0.425781 0.285156 -0.4375 0.265625 -0.4375 C 0.242188 -0.4375 0.226562 -0.425781 0.21875 -0.40625 C 0.207031 -0.394531 0.203125 -0.375 0.203125 -0.34375 C 0.203125 -0.320312 0.207031 -0.300781 0.21875 -0.28125 C 0.226562 -0.269531 0.242188 -0.265625 0.265625 -0.265625 Z M 0.265625 0.125 C 0.304688 0.125 0.335938 0.117188 0.359375 0.109375 C 0.378906 0.0976562 0.390625 0.0820312 0.390625 0.0625 C 0.390625 0.0390625 0.382812 0.0234375 0.375 0.015625 C 0.363281 0.015625 0.347656 0.015625 0.328125 0.015625 L 0.234375 0 C 0.234375 0 0.226562 0 0.21875 0 C 0.195312 0 0.179688 0.00390625 0.171875 0.015625 C 0.160156 0.0234375 0.15625 0.0390625 0.15625 0.0625 C 0.15625 0.0820312 0.164062 0.0976562 0.1875 0.109375 C 0.207031 0.117188 0.234375 0.125 0.265625 0.125 Z M 0.265625 0.125 "/></g></g></g></svg>