<svg xmlns="http://www.w3.org/2000/svg" xmlns:xlink="http://www.w3.org/1999/xlink" width="40" zoomAndPan="magnify" viewBox="0 0 30 30.000001" height="40" preserveAspectRatio="xMidYMid meet" version="1.0"><defs><clipPath id="1363a41336"><path d="M 0.484375 8 L 9 8 L 9 18 L 0.484375 18 Z M 0.484375 8 " clip-rule="nonzero"/></clipPath><clipPath id="4e3f16925c"><path d="M 6 1.089844 L 15 1.089844 L 15 12 L 6 12 Z M 6 1.089844 " clip-rule="nonzero"/></clipPath><clipPath id="2ee445419f"><path d="M 15 1.089844 L 24 1.089844 L 24 12 L 15 12 Z M 15 1.089844 " clip-rule="nonzero"/></clipPath><clipPath id="bf4e37b4e7"><path d="M 4.414062 11.269531 L 25 11.269531 L 25 27.9375 L 4.414062 27.9375 Z M 4.414062 11.269531 " clip-rule="nonzero"/></clipPath><clipPath id="4806078ebc"><path d="M 21 8 L 29.515625 8 L 29.515625 18 L 21 18 Z M 21 8 " clip-rule="nonzero"/></clipPath></defs><g clip-path="url(#1363a41336)"><path fill="#da6540" d="M 5.535156 17.101562 C 5.597656 17.09375 5.664062 17.089844 5.726562 17.085938 C 6.425781 16.992188 7.039062 16.652344 7.511719 16.132812 C 7.894531 15.714844 8.144531 15.210938 8.289062 14.621094 C 8.410156 14.160156 8.429688 13.644531 8.355469 13.136719 C 8.238281 12.117188 7.839844 11.15625 7.15625 10.308594 C 6.941406 10.039062 6.695312 9.769531 6.414062 9.535156 C 5.792969 9.007812 5.15625 8.707031 4.46875 8.539062 C 4.011719 8.449219 3.589844 8.417969 3.148438 8.488281 C 2.449219 8.609375 1.863281 8.917969 1.390625 9.4375 C 1.011719 9.855469 0.734375 10.425781 0.625 11.046875 C 0.554688 11.371094 0.519531 11.695312 0.546875 12.015625 L 0.550781 12.113281 C 0.5625 12.207031 0.566406 12.304688 0.578125 12.402344 L 0.582031 12.492188 C 0.675781 13.226562 0.925781 13.914062 1.300781 14.558594 C 1.597656 15.046875 1.960938 15.5 2.378906 15.882812 C 2.96875 16.414062 3.609375 16.777344 4.296875 16.945312 C 4.730469 17.101562 5.148438 17.128906 5.535156 17.101562 " fill-opacity="1" fill-rule="nonzero"/></g><g clip-path="url(#4e3f16925c)"><path fill="#da6540" d="M 6.597656 7.304688 C 6.789062 8.070312 7.109375 8.746094 7.527344 9.320312 C 7.945312 9.898438 8.394531 10.316406 8.9375 10.636719 C 9.386719 10.925781 9.867188 11.085938 10.378906 11.117188 L 10.636719 11.117188 C 11.148438 11.117188 11.628906 10.988281 12.046875 10.699219 C 12.460938 10.476562 12.847656 10.121094 13.167969 9.707031 C 13.617188 9.128906 13.902344 8.425781 14.03125 7.589844 C 14.0625 7.238281 14.097656 6.886719 14.097656 6.5 C 14.097656 6.214844 14.0625 5.925781 14.03125 5.636719 C 13.96875 5.125 13.839844 4.644531 13.648438 4.164062 C 13.328125 3.363281 12.878906 2.6875 12.300781 2.175781 C 11.886719 1.792969 11.4375 1.503906 10.957031 1.34375 C 10.347656 1.117188 9.738281 1.085938 9.128906 1.246094 C 8.554688 1.375 8.039062 1.695312 7.589844 2.175781 C 7.207031 2.59375 6.949219 3.042969 6.726562 3.585938 C 6.503906 4.226562 6.375 4.898438 6.375 5.667969 C 6.375 5.796875 6.40625 5.925781 6.40625 6.117188 C 6.4375 6.5 6.503906 6.917969 6.597656 7.304688 " fill-opacity="1" fill-rule="nonzero"/></g><g clip-path="url(#2ee445419f)"><path fill="#da6540" d="M 15.699219 8.808594 C 15.921875 9.449219 16.242188 9.960938 16.691406 10.378906 C 17.269531 10.925781 17.941406 11.246094 18.710938 11.277344 L 18.902344 11.277344 C 19.289062 11.277344 19.640625 11.179688 20.023438 11.179688 C 20.570312 10.957031 21.050781 10.636719 21.53125 10.1875 C 22.011719 9.707031 22.394531 9.160156 22.683594 8.550781 C 23.101562 7.6875 23.324219 6.789062 23.355469 5.828125 C 23.355469 5.285156 23.324219 4.738281 23.195312 4.257812 C 23.035156 3.585938 22.8125 3.042969 22.460938 2.558594 C 21.882812 1.757812 21.113281 1.3125 20.21875 1.183594 C 20.183594 1.183594 20.183594 1.183594 20.152344 1.183594 L 19.414062 1.183594 C 19 1.246094 18.550781 1.375 18.167969 1.597656 C 17.652344 1.886719 17.171875 2.304688 16.757812 2.816406 C 16.308594 3.363281 15.988281 4.003906 15.730469 4.707031 C 15.507812 5.347656 15.410156 6.019531 15.378906 6.695312 C 15.378906 6.984375 15.378906 7.269531 15.410156 7.558594 C 15.472656 8.007812 15.570312 8.425781 15.699219 8.808594 " fill-opacity="1" fill-rule="nonzero"/></g><g clip-path="url(#bf4e37b4e7)"><path fill="#da6540" d="M 23.769531 19.640625 C 23.355469 19.03125 22.839844 18.453125 22.230469 17.941406 C 21.816406 17.558594 21.398438 17.140625 21.046875 16.691406 C 20.664062 16.210938 20.308594 15.699219 20.019531 15.25 L 19.796875 14.898438 C 19.574219 14.542969 19.347656 14.222656 19.125 13.871094 C 18.773438 13.359375 18.453125 12.941406 18.097656 12.621094 C 17.488281 12.046875 16.785156 11.660156 15.984375 11.46875 C 15.472656 11.339844 14.925781 11.308594 14.414062 11.308594 C 13.933594 11.308594 13.453125 11.40625 13.003906 11.597656 C 12.460938 11.820312 11.976562 12.171875 11.464844 12.652344 C 11.175781 12.941406 10.855469 13.296875 10.535156 13.710938 C 10.214844 14.128906 9.929688 14.542969 9.640625 14.960938 L 9.480469 15.21875 C 9.09375 15.730469 8.710938 16.308594 8.261719 16.820312 C 7.878906 17.269531 7.523438 17.621094 7.171875 17.941406 C 6.722656 18.324219 6.273438 18.773438 5.921875 19.253906 C 5.410156 19.929688 5.023438 20.664062 4.769531 21.402344 C 4.609375 21.914062 4.511719 22.425781 4.480469 22.941406 C 4.449219 23.390625 4.480469 23.871094 4.578125 24.285156 C 4.832031 25.472656 5.441406 26.433594 6.433594 27.136719 C 7.011719 27.554688 7.652344 27.8125 8.390625 27.875 C 8.484375 27.90625 8.550781 27.90625 8.644531 27.90625 L 9.125 27.90625 C 9.414062 27.90625 9.703125 27.875 9.929688 27.84375 C 10.570312 27.714844 11.210938 27.554688 11.785156 27.394531 L 11.820312 27.394531 C 12.363281 27.265625 12.90625 27.105469 13.453125 27.007812 C 13.675781 26.976562 13.964844 26.914062 14.253906 26.914062 C 14.636719 26.914062 14.992188 26.914062 15.3125 26.945312 C 15.757812 27.007812 16.273438 27.105469 16.816406 27.234375 C 17.074219 27.296875 17.363281 27.394531 17.617188 27.457031 C 17.96875 27.554688 18.355469 27.652344 18.738281 27.746094 C 19.125 27.84375 19.539062 27.9375 19.988281 27.9375 L 20.757812 27.9375 C 20.824219 27.9375 20.855469 27.90625 20.917969 27.8125 C 21.109375 27.8125 21.335938 27.777344 21.527344 27.714844 C 22.039062 27.585938 22.554688 27.363281 23.035156 27.007812 C 23.675781 26.5625 24.1875 25.984375 24.507812 25.3125 C 24.859375 24.574219 25.019531 23.804688 24.988281 22.941406 C 24.957031 22.460938 24.859375 21.914062 24.667969 21.402344 C 24.476562 20.792969 24.1875 20.214844 23.769531 19.640625 " fill-opacity="1" fill-rule="nonzero"/></g><g clip-path="url(#4806078ebc)"><path fill="#da6540" d="M 29.375 11.046875 C 29.265625 10.425781 28.988281 9.855469 28.605469 9.4375 C 28.136719 8.917969 27.550781 8.609375 26.851562 8.488281 C 26.40625 8.417969 25.988281 8.449219 25.53125 8.539062 C 24.839844 8.707031 24.207031 9.007812 23.585938 9.535156 C 23.304688 9.769531 23.058594 10.039062 22.84375 10.308594 C 22.160156 11.15625 21.761719 12.117188 21.644531 13.136719 C 21.570312 13.644531 21.589844 14.160156 21.714844 14.621094 C 21.859375 15.210938 22.105469 15.714844 22.488281 16.132812 C 22.960938 16.652344 23.574219 16.992188 24.273438 17.085938 C 24.335938 17.089844 24.402344 17.09375 24.464844 17.101562 C 24.851562 17.128906 25.269531 17.101562 25.699219 16.945312 C 26.386719 16.777344 27.03125 16.414062 27.621094 15.882812 C 28.039062 15.5 28.398438 15.046875 28.695312 14.558594 C 29.070312 13.914062 29.320312 13.226562 29.414062 12.492188 L 29.421875 12.402344 C 29.429688 12.304688 29.4375 12.207031 29.445312 12.113281 L 29.453125 12.015625 C 29.480469 11.695312 29.441406 11.371094 29.375 11.046875 " fill-opacity="1" fill-rule="nonzero"/></g></svg>