<svg xmlns="http://www.w3.org/2000/svg" xmlns:xlink="http://www.w3.org/1999/xlink" width="40" zoomAndPan="magnify" viewBox="0 0 30 30.000001" height="40" preserveAspectRatio="xMidYMid meet" version="1.0"><defs><clipPath id="a219d53652"><path d="M 1.144531 18 L 28.722656 18 L 28.722656 24 L 1.144531 24 Z M 1.144531 18 " clip-rule="nonzero"/></clipPath><clipPath id="d86f905551"><path d="M 1.144531 24 L 28.722656 24 L 28.722656 29 L 1.144531 29 Z M 1.144531 24 " clip-rule="nonzero"/></clipPath></defs><g clip-path="url(#a219d53652)"><path fill="#da6540" d="M 28.859375 20.769531 L 27.765625 21.863281 C 26.449219 23.175781 24.390625 23.382812 22.839844 22.351562 L 22.15625 21.894531 C 21.71875 21.601562 21.148438 21.601562 20.714844 21.894531 L 19.699219 22.570312 C 18.386719 23.445312 16.679688 23.445312 15.367188 22.570312 L 14.351562 21.894531 C 13.914062 21.601562 13.347656 21.601562 12.910156 21.894531 L 11.894531 22.570312 C 10.582031 23.445312 8.875 23.445312 7.5625 22.570312 L 6.546875 21.894531 C 6.109375 21.601562 5.542969 21.601562 5.105469 21.894531 L 2.644531 23.53125 L 1.203125 21.367188 L 3.660156 19.730469 C 4.972656 18.855469 6.679688 18.855469 7.992188 19.730469 L 9.007812 20.40625 C 9.445312 20.699219 10.011719 20.699219 10.449219 20.40625 L 11.464844 19.730469 C 12.777344 18.855469 14.484375 18.855469 15.796875 19.730469 L 16.8125 20.40625 C 17.25 20.699219 17.816406 20.699219 18.253906 20.40625 L 19.269531 19.730469 C 20.582031 18.855469 22.289062 18.855469 23.597656 19.730469 L 24.285156 20.183594 C 24.800781 20.527344 25.488281 20.460938 25.925781 20.023438 L 27.019531 18.929688 Z M 28.859375 20.769531 " fill-opacity="1" fill-rule="evenodd"/></g><g clip-path="url(#d86f905551)"><path fill="#da6540" d="M 28.859375 25.972656 L 27.765625 27.066406 C 26.449219 28.378906 24.390625 28.585938 22.839844 27.554688 L 22.15625 27.097656 C 21.71875 26.804688 21.148438 26.804688 20.714844 27.097656 L 19.699219 27.773438 C 18.386719 28.648438 16.679688 28.648438 15.367188 27.773438 L 14.351562 27.097656 C 13.914062 26.804688 13.347656 26.804688 12.910156 27.097656 L 11.894531 27.773438 C 10.582031 28.648438 8.875 28.648438 7.5625 27.773438 L 6.546875 27.097656 C 6.109375 26.804688 5.542969 26.804688 5.105469 27.097656 L 2.644531 28.734375 L 1.203125 26.570312 L 3.660156 24.933594 C 4.972656 24.058594 6.679688 24.058594 7.992188 24.933594 L 9.007812 25.609375 C 9.445312 25.902344 10.011719 25.902344 10.449219 25.609375 L 11.464844 24.933594 C 12.777344 24.058594 14.484375 24.058594 15.796875 24.933594 L 16.8125 25.609375 C 17.25 25.902344 17.816406 25.902344 18.253906 25.609375 L 19.269531 24.933594 C 20.582031 24.058594 22.289062 24.058594 23.597656 24.933594 L 24.285156 25.386719 C 24.800781 25.730469 25.488281 25.664062 25.925781 25.226562 L 27.019531 24.132812 Z M 28.859375 25.972656 " fill-opacity="1" fill-rule="evenodd"/></g><path fill="#da6540" d="M 7.128906 2.941406 C 6.410156 2.941406 5.828125 3.523438 5.828125 4.242188 L 5.828125 5.542969 L 3.226562 5.542969 L 3.226562 4.242188 C 3.226562 2.085938 4.972656 0.339844 7.128906 0.339844 L 8.429688 0.339844 C 10.582031 0.339844 12.328125 2.085938 12.328125 4.242188 L 12.328125 21.148438 L 9.726562 21.148438 L 9.726562 4.242188 C 9.726562 3.523438 9.144531 2.941406 8.429688 2.941406 Z M 7.128906 2.941406 " fill-opacity="1" fill-rule="evenodd"/><path fill="#da6540" d="M 18.832031 2.941406 C 18.113281 2.941406 17.53125 3.523438 17.53125 4.242188 L 17.53125 5.542969 L 14.929688 5.542969 L 14.929688 4.242188 C 14.929688 2.085938 16.679688 0.339844 18.832031 0.339844 L 20.132812 0.339844 C 22.289062 0.339844 24.035156 2.085938 24.035156 4.242188 L 24.035156 20.5 L 21.433594 20.5 L 21.433594 4.242188 C 21.433594 3.523438 20.851562 2.941406 20.132812 2.941406 Z M 18.832031 2.941406 " fill-opacity="1" fill-rule="evenodd"/><path fill="#da6540" d="M 11.027344 8.144531 L 22.734375 8.144531 L 22.734375 10.742188 L 11.027344 10.742188 Z M 11.027344 8.144531 " fill-opacity="1" fill-rule="evenodd"/><path fill="#da6540" d="M 11.027344 13.34375 L 22.734375 13.34375 L 22.734375 15.945312 L 11.027344 15.945312 Z M 11.027344 13.34375 " fill-opacity="1" fill-rule="evenodd"/></svg>