<svg xmlns="http://www.w3.org/2000/svg" xmlns:xlink="http://www.w3.org/1999/xlink" width="40" zoomAndPan="magnify" viewBox="0 0 30 30.000001" height="40" preserveAspectRatio="xMidYMid meet" version="1.0"><defs><clipPath id="aaa819d00f"><path d="M 4.476562 0 L 25.523438 0 L 25.523438 29.03125 L 4.476562 29.03125 Z M 4.476562 0 " clip-rule="nonzero"/></clipPath></defs><g clip-path="url(#aaa819d00f)"><path fill="#da6540" d="M 13.316406 23.613281 C 12.90625 22.414062 12.152344 21.359375 11.148438 20.582031 L 8.683594 18.667969 C 6.152344 16.703125 4.613281 13.722656 4.480469 10.519531 C 4.480469 4.710938 9.191406 0 15 0 C 20.808594 0 25.519531 4.710938 25.519531 10.519531 C 25.386719 13.722656 23.847656 16.703125 21.316406 18.667969 L 18.851562 20.582031 C 17.847656 21.359375 17.09375 22.414062 16.683594 23.613281 L 16.394531 24.460938 C 16.1875 25.054688 15.628906 25.457031 15 25.457031 C 14.371094 25.457031 13.8125 25.054688 13.605469 24.460938 Z M 15 29.03125 C 12.675781 29.03125 10.792969 28.75 10.792969 28.402344 C 10.792969 28.050781 12.675781 27.769531 15 27.769531 C 17.324219 27.769531 19.207031 28.050781 19.207031 28.402344 C 19.207031 28.75 17.324219 29.03125 15 29.03125 Z M 15 18.722656 C 19.648438 18.722656 23.414062 14.957031 23.414062 10.308594 C 23.414062 5.660156 19.648438 1.894531 15 1.894531 C 10.351562 1.894531 6.585938 5.660156 6.585938 10.308594 C 6.585938 14.957031 10.351562 18.722656 15 18.722656 Z M 13.46875 9.582031 L 13.847656 16.171875 C 13.871094 16.5625 13.449219 16.898438 12.96875 16.921875 C 12.492188 16.941406 12.035156 16.640625 12.011719 16.25 C 12.011719 16.222656 12.011719 16.195312 12.011719 16.171875 L 12.394531 9.582031 C 11.71875 9.433594 11.421875 8.832031 11.421875 8.113281 L 11.421875 4.691406 C 11.421875 4.539062 11.546875 4.417969 11.695312 4.417969 C 11.847656 4.417969 11.96875 4.539062 11.96875 4.691406 L 11.96875 7.480469 C 11.96875 7.554688 12.03125 7.617188 12.109375 7.617188 C 12.183594 7.617188 12.246094 7.554688 12.246094 7.480469 L 12.246094 4.691406 C 12.246094 4.539062 12.367188 4.417969 12.519531 4.417969 C 12.671875 4.417969 12.792969 4.539062 12.792969 4.691406 L 12.792969 7.480469 C 12.792969 7.554688 12.855469 7.617188 12.929688 7.617188 C 13.007812 7.617188 13.066406 7.554688 13.066406 7.480469 L 13.066406 4.691406 C 13.066406 4.539062 13.191406 4.417969 13.339844 4.417969 C 13.492188 4.417969 13.613281 4.539062 13.613281 4.691406 L 13.613281 7.480469 C 13.613281 7.554688 13.675781 7.617188 13.753906 7.617188 C 13.828125 7.617188 13.890625 7.554688 13.890625 7.480469 L 13.890625 4.691406 C 13.890625 4.539062 14.011719 4.417969 14.164062 4.417969 C 14.316406 4.417969 14.4375 4.539062 14.4375 4.691406 L 14.4375 8.113281 C 14.4375 8.832031 14.140625 9.433594 13.46875 9.582031 Z M 18.785156 11.339844 L 18.785156 16.054688 C 18.785156 16.53125 18.351562 16.921875 17.820312 16.921875 C 17.285156 16.921875 16.851562 16.53125 16.851562 16.054688 L 16.851562 11.726562 L 16.214844 11.515625 L 16.214844 6.910156 C 16.214844 5.535156 17.253906 4.417969 18.785156 4.417969 Z M 18.785156 11.339844 " fill-opacity="1" fill-rule="nonzero"/></g></svg>