<svg xmlns="http://www.w3.org/2000/svg" xmlns:xlink="http://www.w3.org/1999/xlink" width="40" zoomAndPan="magnify" viewBox="0 0 30 30.000001" height="40" preserveAspectRatio="xMidYMid meet" version="1.0"><defs><g/><clipPath id="6109e95783"><path d="M 7 0.222656 L 13 0.222656 L 13 6 L 7 6 Z M 7 0.222656 " clip-rule="nonzero"/></clipPath><clipPath id="eee101046e"><path d="M 3.386719 5 L 12 5 L 12 28.53125 L 3.386719 28.53125 Z M 3.386719 5 " clip-rule="nonzero"/></clipPath><clipPath id="a18f10ab45"><path d="M 17 21 L 20 21 L 20 28.53125 L 17 28.53125 Z M 17 21 " clip-rule="nonzero"/></clipPath><clipPath id="2f74ce7c2a"><path d="M 21 21 L 24 21 L 24 28.53125 L 21 28.53125 Z M 21 21 " clip-rule="nonzero"/></clipPath></defs><path fill="#0e2e50" d="M 17.152344 12.070312 L 17.152344 8.785156 C 17.109375 8.828125 17.109375 8.917969 17.066406 8.960938 C 17.019531 9.050781 16.621094 10.960938 14.535156 11.671875 C 14.84375 11.9375 15.023438 12.292969 15.023438 12.691406 C 15.023438 12.957031 14.933594 13.179688 14.800781 13.359375 C 15.820312 13.136719 16.578125 12.648438 17.152344 12.070312 Z M 17.152344 12.070312 " fill-opacity="1" fill-rule="nonzero"/><path fill="#0e2e50" d="M 10.757812 9.9375 C 12.3125 10.695312 13.957031 10.960938 15.554688 10.292969 C 16 10.117188 16.175781 9.582031 16 9.183594 C 15.820312 8.738281 15.289062 8.5625 14.890625 8.738281 C 13.691406 9.273438 12.3125 8.871094 11.113281 8.25 C 11.070312 8.5625 10.980469 8.828125 10.757812 9.9375 Z M 10.757812 9.9375 " fill-opacity="1" fill-rule="nonzero"/><g clip-path="url(#6109e95783)"><path fill="#0e2e50" d="M 9.558594 5.1875 C 10.890625 5.1875 12.003906 4.078125 12.003906 2.746094 C 12.003906 1.410156 10.890625 0.300781 9.558594 0.300781 C 8.226562 0.300781 7.117188 1.410156 7.117188 2.746094 C 7.117188 4.121094 8.226562 5.1875 9.558594 5.1875 Z M 9.558594 5.1875 " fill-opacity="1" fill-rule="nonzero"/></g><g clip-path="url(#eee101046e)"><path fill="#0e2e50" d="M 10.136719 16.332031 C 10.316406 15.800781 10.316406 15.222656 10.136719 14.644531 C 9.960938 14.203125 10.003906 13.445312 10.003906 13.003906 C 8.050781 11.890625 7.027344 10.117188 6.71875 8.960938 C 6.273438 7.320312 8.714844 6.652344 9.203125 8.25 C 9.203125 8.296875 9.335938 8.738281 9.691406 9.273438 C 9.871094 9.496094 10.046875 9.761719 10.316406 10.027344 C 10.625 8.339844 10.714844 8.382812 10.714844 7.894531 C 10.714844 6.742188 9.960938 5.675781 8.761719 5.363281 C 7.382812 5.007812 6.007812 5.851562 5.652344 7.230469 C 5.386719 8.207031 4.230469 13.359375 5.296875 16.332031 C 5.386719 16.554688 5.472656 16.734375 5.609375 16.910156 C 5.609375 17.089844 5.609375 17.308594 5.609375 17.578125 C 5.519531 19.53125 5.207031 23.660156 3.742188 26.148438 C 3.386719 26.769531 3.609375 27.570312 4.230469 27.925781 C 4.851562 28.28125 5.652344 28.058594 6.007812 27.4375 C 7.515625 24.859375 8.003906 21.085938 8.140625 18.6875 C 8.582031 20.773438 9.117188 24.148438 8.539062 26.636719 C 8.359375 27.347656 8.804688 28.011719 9.515625 28.191406 C 10.183594 28.367188 10.890625 27.96875 11.070312 27.257812 C 11.914062 23.660156 10.890625 18.910156 10.402344 17 C 10.226562 16.6875 10.183594 16.464844 10.136719 16.332031 Z M 10.136719 16.332031 " fill-opacity="1" fill-rule="nonzero"/></g><g clip-path="url(#a18f10ab45)"><path fill="#0e2e50" d="M 17.285156 23.261719 L 17.285156 27.4375 C 17.285156 28.144531 17.863281 28.722656 18.574219 28.722656 C 19.285156 28.722656 19.863281 28.144531 19.863281 27.4375 L 19.863281 22.195312 C 19.152344 22.152344 18.441406 21.972656 17.730469 21.75 Z M 17.285156 23.261719 " fill-opacity="1" fill-rule="nonzero"/></g><g clip-path="url(#2f74ce7c2a)"><path fill="#0e2e50" d="M 21.285156 27.4375 C 21.285156 28.144531 21.859375 28.722656 22.570312 28.722656 C 23.28125 28.722656 23.859375 28.144531 23.859375 27.4375 L 23.859375 21.574219 C 23.015625 21.929688 22.171875 22.105469 21.285156 22.195312 Z M 21.285156 27.4375 " fill-opacity="1" fill-rule="nonzero"/></g><path fill="#0e2e50" d="M 17.199219 16.957031 C 17.066406 16.910156 16.933594 16.910156 16.84375 16.957031 L 16.132812 20.550781 C 16.308594 20.640625 16.488281 20.730469 16.664062 20.863281 L 17.597656 17.710938 C 17.6875 17.398438 17.554688 17.042969 17.199219 16.957031 Z M 17.199219 16.957031 " fill-opacity="1" fill-rule="nonzero"/><path fill="#0e2e50" d="M 18.886719 17.84375 C 18.886719 17.933594 18.839844 17.976562 18.839844 18.066406 C 18.839844 18.109375 17.777344 21.574219 17.863281 21.351562 C 20.21875 22.195312 22.792969 21.882812 25.015625 20.550781 L 24.214844 16.734375 C 22.882812 17.53125 19.773438 18.289062 18.886719 17.84375 Z M 18.886719 17.84375 " fill-opacity="1" fill-rule="nonzero"/><path fill="#0e2e50" d="M 20.574219 7.40625 C 21.816406 7.40625 22.882812 6.386719 22.882812 5.097656 C 22.882812 3.808594 21.859375 2.789062 20.574219 2.789062 C 19.285156 2.789062 18.265625 3.808594 18.265625 5.097656 C 18.265625 6.339844 19.285156 7.40625 20.574219 7.40625 Z M 20.574219 7.40625 " fill-opacity="1" fill-rule="nonzero"/><path fill="#0e2e50" d="M 17.910156 19.664062 C 18.398438 17.976562 18.484375 17.84375 18.484375 17.53125 C 18.265625 17.265625 18.175781 17 18.175781 16.644531 C 18.21875 16.601562 17.863281 16.246094 17.464844 16.113281 C 16.398438 15.800781 15.953125 16.511719 15.597656 17.355469 C 15.554688 17.488281 15.644531 17.578125 15.734375 17.621094 C 15.867188 17.664062 15.953125 17.578125 16 17.488281 C 16.042969 17.355469 16.089844 16.957031 16.488281 16.6875 C 16.753906 16.511719 17.066406 16.464844 17.332031 16.554688 C 17.863281 16.734375 18.175781 17.308594 17.996094 17.84375 C 16.710938 22.105469 18.621094 15.84375 15.066406 27.703125 C 15.023438 27.835938 15.109375 27.925781 15.199219 27.96875 C 15.332031 28.011719 15.421875 27.925781 15.464844 27.835938 C 15.464844 27.746094 17.910156 19.621094 17.910156 19.664062 Z M 17.910156 19.664062 " fill-opacity="1" fill-rule="nonzero"/><path fill="#0e2e50" d="M 13.957031 11.847656 C 13.644531 11.757812 9.960938 11.890625 8.761719 8.382812 C 8.628906 7.941406 8.226562 7.671875 7.785156 7.761719 C 7.738281 7.761719 7.738281 7.761719 7.695312 7.761719 C 7.25 7.894531 6.984375 8.339844 7.074219 8.828125 C 7.695312 11.09375 9.738281 13.179688 13.734375 13.492188 C 14.179688 13.492188 14.578125 13.136719 14.578125 12.648438 C 14.621094 12.292969 14.3125 11.9375 13.957031 11.847656 Z M 13.957031 11.847656 " fill-opacity="1" fill-rule="nonzero"/><path fill="#0e2e50" d="M 23.195312 8.429688 C 21.507812 7.585938 19.816406 7.585938 18.128906 8.339844 C 17.953125 8.429688 17.777344 8.515625 17.597656 8.605469 L 17.597656 13.179688 L 17.109375 15.667969 C 17.554688 15.667969 17.996094 15.84375 18.308594 16.15625 C 18.484375 15.757812 18.886719 15.445312 19.375 15.402344 C 20.617188 15.3125 23.28125 14.914062 23.636719 13.667969 C 23.546875 13.359375 23.414062 12.246094 23.546875 11.847656 L 23.546875 11.492188 C 25.234375 14.601562 23.015625 15.535156 19.417969 15.800781 C 19.019531 15.84375 18.707031 16.113281 18.621094 16.511719 C 18.53125 16.957031 18.753906 17.398438 19.507812 17.53125 C 21.816406 17.355469 24.613281 16.820312 25.546875 14.734375 C 26.613281 12.246094 23.859375 8.5625 23.195312 8.429688 Z M 23.195312 8.429688 " fill-opacity="1" fill-rule="nonzero"/><g fill="#ffffff" fill-opacity="1"><g transform="translate(12.56699, -0.0241871)"><g><path d="M 0.265625 0.234375 C 0.179688 0.234375 0.117188 0.21875 0.078125 0.1875 C 0.0351562 0.164062 0.015625 0.128906 0.015625 0.078125 C 0.015625 0.046875 0.0234375 0.0195312 0.046875 0 C 0.0664062 -0.0078125 0.09375 -0.0195312 0.125 -0.03125 C 0.101562 -0.0390625 0.0859375 -0.0507812 0.078125 -0.0625 C 0.078125 -0.0820312 0.078125 -0.101562 0.078125 -0.125 C 0.078125 -0.164062 0.101562 -0.191406 0.15625 -0.203125 L 0.15625 -0.21875 C 0.125 -0.226562 0.0976562 -0.242188 0.078125 -0.265625 C 0.0664062 -0.285156 0.0625 -0.316406 0.0625 -0.359375 C 0.0625 -0.390625 0.0703125 -0.414062 0.09375 -0.4375 C 0.113281 -0.46875 0.140625 -0.488281 0.171875 -0.5 C 0.203125 -0.519531 0.234375 -0.53125 0.265625 -0.53125 C 0.304688 -0.53125 0.34375 -0.523438 0.375 -0.515625 C 0.382812 -0.535156 0.394531 -0.5625 0.40625 -0.59375 L 0.515625 -0.578125 C 0.503906 -0.546875 0.492188 -0.519531 0.484375 -0.5 C 0.472656 -0.488281 0.457031 -0.476562 0.4375 -0.46875 L 0.4375 -0.453125 C 0.457031 -0.421875 0.46875 -0.382812 0.46875 -0.34375 C 0.46875 -0.3125 0.457031 -0.285156 0.4375 -0.265625 C 0.425781 -0.242188 0.40625 -0.222656 0.375 -0.203125 C 0.34375 -0.191406 0.304688 -0.1875 0.265625 -0.1875 L 0.25 -0.1875 C 0.238281 -0.1875 0.234375 -0.1875 0.234375 -0.1875 C 0.222656 -0.1875 0.210938 -0.179688 0.203125 -0.171875 C 0.191406 -0.171875 0.1875 -0.164062 0.1875 -0.15625 C 0.1875 -0.132812 0.191406 -0.117188 0.203125 -0.109375 C 0.210938 -0.109375 0.222656 -0.109375 0.234375 -0.109375 L 0.359375 -0.109375 C 0.472656 -0.109375 0.53125 -0.0546875 0.53125 0.046875 C 0.53125 0.078125 0.519531 0.109375 0.5 0.140625 C 0.488281 0.171875 0.460938 0.191406 0.421875 0.203125 C 0.378906 0.222656 0.328125 0.234375 0.265625 0.234375 Z M 0.265625 -0.265625 C 0.285156 -0.265625 0.300781 -0.269531 0.3125 -0.28125 C 0.332031 -0.300781 0.34375 -0.320312 0.34375 -0.34375 C 0.34375 -0.375 0.332031 -0.394531 0.3125 -0.40625 C 0.300781 -0.425781 0.285156 -0.4375 0.265625 -0.4375 C 0.242188 -0.4375 0.226562 -0.425781 0.21875 -0.40625 C 0.207031 -0.394531 0.203125 -0.375 0.203125 -0.34375 C 0.203125 -0.320312 0.207031 -0.300781 0.21875 -0.28125 C 0.226562 -0.269531 0.242188 -0.265625 0.265625 -0.265625 Z M 0.265625 0.125 C 0.304688 0.125 0.335938 0.117188 0.359375 0.109375 C 0.378906 0.0976562 0.390625 0.0820312 0.390625 0.0625 C 0.390625 0.0390625 0.382812 0.0234375 0.375 0.015625 C 0.363281 0.015625 0.347656 0.015625 0.328125 0.015625 L 0.234375 0 C 0.234375 0 0.226562 0 0.21875 0 C 0.195312 0 0.179688 0.00390625 0.171875 0.015625 C 0.160156 0.0234375 0.15625 0.0390625 0.15625 0.0625 C 0.15625 0.0820312 0.164062 0.0976562 0.1875 0.109375 C 0.207031 0.117188 0.234375 0.125 0.265625 0.125 Z M 0.265625 0.125 "/></g></g></g></svg>