<svg xmlns="http://www.w3.org/2000/svg" xmlns:xlink="http://www.w3.org/1999/xlink" width="40" zoomAndPan="magnify" viewBox="0 0 30 30.000001" height="40" preserveAspectRatio="xMidYMid meet" version="1.0"><defs><clipPath id="bd735cdef3"><path d="M 14 9 L 17.394531 9 L 17.394531 12 L 14 12 Z M 14 9 " clip-rule="nonzero"/></clipPath><clipPath id="a6dba423e8"><path d="M 12.316406 9 L 16 9 L 16 10 L 12.316406 10 Z M 12.316406 9 " clip-rule="nonzero"/></clipPath><clipPath id="d466b77460"><path d="M 12.316406 10 L 14 10 L 14 12 L 12.316406 12 Z M 12.316406 10 " clip-rule="nonzero"/></clipPath><clipPath id="079175164a"><path d="M 16 10 L 17.394531 10 L 17.394531 12 L 16 12 Z M 16 10 " clip-rule="nonzero"/></clipPath><clipPath id="21b2fec231"><path d="M 16 9 L 17.394531 9 L 17.394531 12 L 16 12 Z M 16 9 " clip-rule="nonzero"/></clipPath><clipPath id="f3a4d5698a"><path d="M 12.316406 9 L 14 9 L 14 12 L 12.316406 12 Z M 12.316406 9 " clip-rule="nonzero"/></clipPath><clipPath id="15e9f6f487"><path d="M 14 8.113281 L 16 8.113281 L 16 9 L 14 9 Z M 14 8.113281 " clip-rule="nonzero"/></clipPath><clipPath id="54f707b819"><path d="M 14 12 L 16 12 L 16 13.191406 L 14 13.191406 Z M 14 12 " clip-rule="nonzero"/></clipPath><clipPath id="9e7384d75f"><path d="M 16 8.113281 L 17 8.113281 L 17 9 L 16 9 Z M 16 8.113281 " clip-rule="nonzero"/></clipPath><clipPath id="e5865a905c"><path d="M 13 12 L 14 12 L 14 13.191406 L 13 13.191406 Z M 13 12 " clip-rule="nonzero"/></clipPath><clipPath id="3a128a9890"><path d="M 16 12 L 17 12 L 17 13.191406 L 16 13.191406 Z M 16 12 " clip-rule="nonzero"/></clipPath><clipPath id="ef45f2dc5e"><path d="M 13 8.113281 L 14 8.113281 L 14 9 L 13 9 Z M 13 8.113281 " clip-rule="nonzero"/></clipPath><clipPath id="74fcd11738"><path d="M 3.207031 5 L 12 5 L 12 29 L 3.207031 29 Z M 3.207031 5 " clip-rule="nonzero"/></clipPath></defs><g clip-path="url(#bd735cdef3)"><path fill="#ffffff" d="M 15.0625 10.097656 Z M 16.503906 11.652344 C 16.441406 11.652344 16.375 11.628906 16.320312 11.585938 L 15.824219 11.203125 C 15.789062 11.175781 15.78125 11.121094 15.808594 11.082031 C 15.839844 11.042969 15.894531 11.039062 15.929688 11.066406 L 16.425781 11.449219 C 16.480469 11.492188 16.554688 11.484375 16.597656 11.4375 C 16.628906 11.410156 16.640625 11.375 16.640625 11.335938 C 16.636719 11.300781 16.621094 11.265625 16.589844 11.242188 L 16.472656 11.148438 C 16.285156 11.003906 15.925781 10.71875 15.605469 10.480469 C 15.605469 10.480469 15.601562 10.476562 15.597656 10.476562 C 15.214844 10.1875 15.105469 10.117188 15.070312 10.101562 C 14.996094 10.113281 14.898438 10.203125 14.8125 10.285156 C 14.695312 10.394531 14.578125 10.507812 14.445312 10.507812 C 14.207031 10.507812 14.070312 10.335938 14.0625 10.328125 C 14.039062 10.296875 14.039062 10.25 14.066406 10.21875 C 14.113281 10.164062 14.179688 10.070312 14.246094 9.976562 C 14.371094 9.789062 14.457031 9.671875 14.519531 9.628906 C 14.597656 9.582031 14.777344 9.503906 14.976562 9.457031 C 15.105469 9.425781 15.230469 9.410156 15.34375 9.410156 C 15.542969 9.410156 15.84375 9.527344 16.109375 9.632812 C 16.253906 9.691406 16.417969 9.753906 16.46875 9.753906 L 16.925781 9.753906 C 16.976562 9.753906 17.015625 9.792969 17.015625 9.84375 C 17.015625 9.890625 16.976562 9.929688 16.925781 9.929688 L 16.46875 9.929688 C 16.390625 9.929688 16.261719 9.878906 16.042969 9.792969 C 15.804688 9.699219 15.507812 9.582031 15.34375 9.582031 C 15.246094 9.582031 15.132812 9.597656 15.015625 9.625 C 14.828125 9.671875 14.667969 9.738281 14.617188 9.773438 C 14.574219 9.804688 14.464844 9.957031 14.386719 10.074219 C 14.339844 10.144531 14.289062 10.210938 14.25 10.265625 C 14.289062 10.300781 14.355469 10.335938 14.445312 10.335938 C 14.507812 10.335938 14.605469 10.242188 14.691406 10.160156 C 14.8125 10.046875 14.9375 9.929688 15.082031 9.929688 C 15.121094 9.929688 15.160156 9.929688 15.695312 10.332031 C 15.699219 10.335938 15.703125 10.335938 15.703125 10.339844 C 16.023438 10.578125 16.390625 10.863281 16.578125 11.015625 L 16.695312 11.105469 C 16.765625 11.160156 16.808594 11.242188 16.8125 11.324219 C 16.816406 11.410156 16.785156 11.496094 16.726562 11.554688 C 16.664062 11.621094 16.585938 11.652344 16.503906 11.652344 " fill-opacity="1" fill-rule="nonzero"/></g><path fill="#ffffff" d="M 16.175781 11.972656 C 16.109375 11.972656 16.039062 11.949219 15.984375 11.90625 L 15.515625 11.527344 C 15.480469 11.496094 15.472656 11.441406 15.503906 11.40625 C 15.53125 11.367188 15.585938 11.363281 15.625 11.390625 L 16.09375 11.769531 C 16.144531 11.8125 16.21875 11.808594 16.265625 11.765625 L 16.28125 11.75 C 16.308594 11.722656 16.324219 11.683594 16.324219 11.648438 C 16.320312 11.609375 16.304688 11.574219 16.273438 11.550781 L 16.261719 11.539062 C 16.222656 11.511719 16.214844 11.457031 16.246094 11.417969 C 16.273438 11.382812 16.328125 11.375 16.367188 11.402344 L 16.378906 11.414062 C 16.449219 11.46875 16.492188 11.550781 16.496094 11.640625 C 16.5 11.726562 16.464844 11.8125 16.402344 11.875 L 16.382812 11.890625 C 16.324219 11.945312 16.25 11.972656 16.175781 11.972656 " fill-opacity="1" fill-rule="nonzero"/><path fill="#ffffff" d="M 15.757812 12.234375 C 15.6875 12.234375 15.617188 12.210938 15.5625 12.160156 L 15.109375 11.773438 C 15.070312 11.742188 15.066406 11.6875 15.097656 11.652344 C 15.128906 11.617188 15.183594 11.609375 15.21875 11.640625 L 15.675781 12.03125 C 15.722656 12.070312 15.792969 12.070312 15.84375 12.027344 L 15.871094 12.003906 C 15.898438 11.980469 15.914062 11.945312 15.914062 11.90625 C 15.914062 11.871094 15.898438 11.835938 15.867188 11.8125 C 15.832031 11.78125 15.824219 11.726562 15.855469 11.691406 C 15.886719 11.652344 15.941406 11.644531 15.976562 11.675781 C 16.046875 11.730469 16.085938 11.816406 16.089844 11.902344 C 16.089844 11.992188 16.050781 12.078125 15.984375 12.136719 L 15.957031 12.160156 C 15.898438 12.210938 15.828125 12.234375 15.757812 12.234375 " fill-opacity="1" fill-rule="nonzero"/><path fill="#ffffff" d="M 15.378906 12.4375 C 15.320312 12.4375 15.261719 12.421875 15.207031 12.386719 L 14.933594 12.195312 C 14.894531 12.167969 14.886719 12.117188 14.914062 12.078125 C 14.941406 12.035156 14.996094 12.027344 15.035156 12.054688 L 15.304688 12.242188 C 15.355469 12.273438 15.417969 12.273438 15.460938 12.234375 C 15.484375 12.214844 15.5 12.1875 15.5 12.15625 C 15.5 12.125 15.488281 12.097656 15.464844 12.078125 L 15.4375 12.058594 C 15.402344 12.027344 15.398438 11.972656 15.429688 11.933594 C 15.460938 11.898438 15.515625 11.894531 15.550781 11.925781 L 15.578125 11.945312 C 15.636719 12 15.671875 12.078125 15.671875 12.15625 C 15.671875 12.242188 15.636719 12.316406 15.570312 12.367188 C 15.515625 12.414062 15.449219 12.4375 15.378906 12.4375 " fill-opacity="1" fill-rule="nonzero"/><path fill="#ffffff" d="M 15.652344 10.492188 C 15.605469 10.492188 15.566406 10.453125 15.566406 10.40625 C 15.566406 10.359375 15.605469 10.320312 15.652344 10.320312 C 15.699219 10.320312 15.738281 10.359375 15.738281 10.40625 C 15.738281 10.453125 15.699219 10.492188 15.652344 10.492188 " fill-opacity="1" fill-rule="nonzero"/><path fill="#ffffff" d="M 13.484375 11.652344 C 13.40625 11.652344 13.328125 11.621094 13.269531 11.558594 C 13.207031 11.496094 13.175781 11.410156 13.183594 11.324219 C 13.1875 11.242188 13.226562 11.160156 13.296875 11.105469 L 13.445312 10.988281 C 13.460938 10.976562 13.480469 10.96875 13.503906 10.96875 C 13.550781 10.96875 13.589844 11.007812 13.589844 11.054688 C 13.589844 11.082031 13.574219 11.109375 13.550781 11.125 L 13.402344 11.242188 C 13.375 11.265625 13.355469 11.300781 13.355469 11.335938 C 13.351562 11.375 13.363281 11.410156 13.390625 11.433594 C 13.4375 11.484375 13.503906 11.492188 13.554688 11.457031 C 13.589844 11.429688 13.636719 11.433594 13.667969 11.464844 C 13.703125 11.5 13.703125 11.554688 13.667969 11.585938 C 13.667969 11.589844 13.660156 11.59375 13.65625 11.597656 C 13.65625 11.597656 13.652344 11.597656 13.652344 11.601562 C 13.601562 11.632812 13.542969 11.652344 13.484375 11.652344 " fill-opacity="1" fill-rule="nonzero"/><path fill="#ffffff" d="M 13.605469 11.613281 C 13.582031 11.613281 13.558594 11.605469 13.542969 11.589844 C 13.507812 11.554688 13.507812 11.5 13.542969 11.46875 C 13.546875 11.464844 13.550781 11.460938 13.554688 11.457031 L 13.703125 11.339844 C 13.734375 11.316406 13.75 11.285156 13.753906 11.246094 C 13.753906 11.210938 13.742188 11.175781 13.714844 11.148438 C 13.671875 11.101562 13.601562 11.09375 13.550781 11.125 C 13.527344 11.144531 13.488281 11.148438 13.457031 11.132812 C 13.417969 11.113281 13.398438 11.058594 13.421875 11.015625 C 13.429688 11.003906 13.441406 10.992188 13.453125 10.984375 L 13.453125 10.980469 C 13.574219 10.902344 13.734375 10.917969 13.835938 11.023438 C 13.898438 11.089844 13.929688 11.171875 13.925781 11.257812 C 13.921875 11.34375 13.878906 11.421875 13.8125 11.476562 L 13.660156 11.59375 C 13.660156 11.59375 13.660156 11.597656 13.65625 11.597656 C 13.640625 11.609375 13.625 11.613281 13.605469 11.613281 " fill-opacity="1" fill-rule="nonzero"/><g clip-path="url(#a6dba423e8)"><path fill="#ffffff" d="M 13.527344 9.929688 L 13.066406 9.929688 C 13.015625 9.929688 12.980469 9.890625 12.980469 9.84375 C 12.980469 9.792969 13.015625 9.753906 13.066406 9.753906 L 13.527344 9.753906 C 13.574219 9.753906 13.738281 9.691406 13.886719 9.632812 C 14.148438 9.527344 14.449219 9.410156 14.652344 9.410156 C 14.761719 9.410156 14.886719 9.425781 15.015625 9.457031 C 15.0625 9.46875 15.09375 9.515625 15.082031 9.5625 C 15.070312 9.609375 15.023438 9.636719 14.976562 9.625 C 14.859375 9.597656 14.746094 9.582031 14.652344 9.582031 C 14.484375 9.582031 14.1875 9.699219 13.949219 9.792969 C 13.730469 9.878906 13.601562 9.929688 13.527344 9.929688 " fill-opacity="1" fill-rule="nonzero"/></g><path fill="#ffffff" d="M 14.117188 11.601562 Z M 13.816406 11.972656 C 13.742188 11.972656 13.667969 11.945312 13.609375 11.890625 L 13.59375 11.875 C 13.527344 11.8125 13.492188 11.726562 13.496094 11.640625 C 13.5 11.5625 13.535156 11.488281 13.589844 11.4375 L 13.625 11.40625 C 13.660156 11.375 13.714844 11.378906 13.746094 11.417969 C 13.777344 11.453125 13.773438 11.507812 13.734375 11.539062 L 13.703125 11.566406 C 13.6875 11.582031 13.671875 11.613281 13.671875 11.648438 C 13.667969 11.6875 13.683594 11.722656 13.710938 11.75 L 13.730469 11.765625 C 13.777344 11.808594 13.847656 11.8125 13.898438 11.769531 L 14.101562 11.605469 C 14.101562 11.605469 14.105469 11.605469 14.109375 11.601562 C 14.109375 11.601562 14.109375 11.601562 14.113281 11.597656 L 14.125 11.589844 C 14.152344 11.558594 14.199219 11.554688 14.234375 11.578125 C 14.277344 11.605469 14.285156 11.65625 14.257812 11.699219 C 14.253906 11.703125 14.246094 11.714844 14.238281 11.71875 C 14.238281 11.71875 14.234375 11.722656 14.234375 11.726562 L 14.21875 11.734375 C 14.214844 11.738281 14.214844 11.738281 14.210938 11.738281 L 14.007812 11.90625 C 13.953125 11.949219 13.882812 11.972656 13.816406 11.972656 " fill-opacity="1" fill-rule="nonzero"/><path fill="#ffffff" d="M 14.117188 11.601562 Z M 14.160156 11.757812 C 14.132812 11.757812 14.105469 11.746094 14.089844 11.722656 C 14.0625 11.683594 14.066406 11.628906 14.105469 11.601562 C 14.105469 11.601562 14.113281 11.597656 14.113281 11.597656 L 14.121094 11.59375 C 14.121094 11.59375 14.121094 11.59375 14.125 11.589844 C 14.125 11.589844 14.125 11.589844 14.128906 11.585938 C 14.152344 11.5625 14.164062 11.53125 14.167969 11.5 C 14.167969 11.460938 14.15625 11.425781 14.125 11.398438 L 14.109375 11.382812 C 14.0625 11.335938 13.988281 11.335938 13.9375 11.375 L 13.703125 11.566406 C 13.667969 11.59375 13.613281 11.589844 13.582031 11.554688 C 13.550781 11.515625 13.554688 11.460938 13.59375 11.433594 L 13.625 11.40625 L 13.828125 11.242188 C 13.945312 11.148438 14.117188 11.152344 14.226562 11.253906 L 14.246094 11.273438 C 14.308594 11.332031 14.34375 11.417969 14.339844 11.507812 C 14.335938 11.585938 14.304688 11.65625 14.25 11.710938 C 14.246094 11.714844 14.242188 11.714844 14.238281 11.71875 C 14.238281 11.71875 14.234375 11.722656 14.234375 11.726562 L 14.210938 11.742188 C 14.195312 11.75 14.175781 11.757812 14.160156 11.757812 " fill-opacity="1" fill-rule="nonzero"/><path fill="#ffffff" d="M 14.234375 12.234375 C 14.164062 12.234375 14.09375 12.210938 14.035156 12.160156 L 14.007812 12.136719 C 13.941406 12.078125 13.902344 11.992188 13.90625 11.90625 C 13.90625 11.8125 13.949219 11.730469 14.015625 11.675781 C 14.054688 11.644531 14.109375 11.652344 14.136719 11.691406 C 14.167969 11.726562 14.164062 11.78125 14.125 11.8125 C 14.097656 11.835938 14.078125 11.871094 14.078125 11.910156 C 14.078125 11.945312 14.09375 11.980469 14.121094 12.003906 L 14.148438 12.027344 C 14.199219 12.070312 14.269531 12.070312 14.320312 12.03125 L 14.53125 11.847656 C 14.535156 11.84375 14.539062 11.839844 14.542969 11.835938 C 14.578125 11.804688 14.632812 11.804688 14.667969 11.835938 C 14.699219 11.871094 14.699219 11.925781 14.667969 11.960938 C 14.660156 11.964844 14.652344 11.972656 14.644531 11.980469 L 14.429688 12.160156 C 14.375 12.210938 14.304688 12.234375 14.234375 12.234375 " fill-opacity="1" fill-rule="nonzero"/><path fill="#ffffff" d="M 14.589844 12 C 14.5625 12 14.539062 11.988281 14.523438 11.96875 C 14.492188 11.933594 14.496094 11.878906 14.53125 11.847656 C 14.535156 11.84375 14.539062 11.839844 14.542969 11.835938 C 14.566406 11.8125 14.578125 11.78125 14.582031 11.75 C 14.582031 11.714844 14.566406 11.679688 14.539062 11.652344 L 14.507812 11.628906 C 14.460938 11.585938 14.386719 11.585938 14.339844 11.628906 L 14.128906 11.808594 C 14.089844 11.839844 14.035156 11.835938 14.003906 11.800781 C 13.972656 11.765625 13.976562 11.710938 14.015625 11.679688 L 14.226562 11.496094 C 14.339844 11.398438 14.511719 11.402344 14.621094 11.496094 L 14.652344 11.523438 C 14.71875 11.582031 14.753906 11.664062 14.753906 11.753906 C 14.753906 11.832031 14.71875 11.90625 14.667969 11.960938 C 14.660156 11.964844 14.652344 11.972656 14.644531 11.980469 C 14.628906 11.992188 14.609375 12 14.589844 12 " fill-opacity="1" fill-rule="nonzero"/><path fill="#ffffff" d="M 14.613281 12.4375 C 14.542969 12.4375 14.476562 12.414062 14.421875 12.367188 C 14.359375 12.316406 14.320312 12.242188 14.320312 12.160156 C 14.320312 12.078125 14.355469 12 14.417969 11.945312 L 14.441406 11.925781 C 14.476562 11.894531 14.53125 11.898438 14.5625 11.933594 C 14.59375 11.972656 14.589844 12.027344 14.554688 12.058594 L 14.53125 12.078125 C 14.507812 12.097656 14.492188 12.128906 14.492188 12.15625 C 14.492188 12.1875 14.507812 12.214844 14.53125 12.234375 C 14.574219 12.273438 14.640625 12.273438 14.6875 12.242188 L 14.878906 12.109375 C 14.917969 12.082031 14.972656 12.089844 15 12.132812 C 15.027344 12.171875 15.015625 12.222656 14.976562 12.25 L 14.785156 12.382812 C 14.734375 12.421875 14.671875 12.4375 14.613281 12.4375 " fill-opacity="1" fill-rule="nonzero"/><path fill="#ffffff" d="M 14.929688 12.265625 C 14.90625 12.265625 14.878906 12.257812 14.863281 12.234375 C 14.832031 12.199219 14.835938 12.144531 14.871094 12.113281 L 14.898438 12.09375 C 14.921875 12.074219 14.933594 12.042969 14.933594 12.011719 C 14.933594 11.984375 14.917969 11.957031 14.894531 11.9375 C 14.851562 11.898438 14.785156 11.898438 14.738281 11.929688 L 14.546875 12.0625 C 14.507812 12.089844 14.453125 12.078125 14.425781 12.039062 C 14.398438 12 14.410156 11.949219 14.449219 11.921875 L 14.640625 11.785156 C 14.753906 11.710938 14.902344 11.71875 15.003906 11.800781 C 15.070312 11.855469 15.105469 11.929688 15.105469 12.011719 C 15.105469 12.09375 15.070312 12.171875 15.011719 12.226562 L 14.984375 12.246094 C 14.96875 12.261719 14.949219 12.265625 14.929688 12.265625 " fill-opacity="1" fill-rule="nonzero"/><g clip-path="url(#d466b77460)"><path fill="#ffffff" d="M 13.46875 11.167969 C 13.449219 11.167969 13.429688 11.164062 13.414062 11.152344 C 13.363281 11.109375 13.265625 11.070312 12.945312 11.058594 C 12.894531 11.054688 12.859375 11.015625 12.859375 10.96875 C 12.863281 10.917969 12.902344 10.882812 12.949219 10.882812 C 13.25 10.894531 13.414062 10.933594 13.519531 11.015625 C 13.558594 11.042969 13.566406 11.097656 13.535156 11.136719 C 13.519531 11.15625 13.492188 11.167969 13.46875 11.167969 " fill-opacity="1" fill-rule="nonzero"/></g><g clip-path="url(#079175164a)"><path fill="#ffffff" d="M 16.527344 11.167969 C 16.5 11.167969 16.472656 11.15625 16.457031 11.136719 C 16.425781 11.097656 16.433594 11.042969 16.472656 11.015625 C 16.578125 10.933594 16.742188 10.894531 17.042969 10.882812 C 17.089844 10.882812 17.128906 10.917969 17.132812 10.96875 C 17.132812 11.015625 17.097656 11.054688 17.050781 11.058594 C 16.726562 11.070312 16.628906 11.109375 16.578125 11.152344 C 16.5625 11.164062 16.542969 11.167969 16.527344 11.167969 " fill-opacity="1" fill-rule="nonzero"/></g><g clip-path="url(#21b2fec231)"><path fill="#ffffff" d="M 17.59375 11.3125 L 17.074219 11.3125 C 17.027344 11.3125 16.992188 11.28125 16.988281 11.234375 L 16.8125 9.59375 C 16.8125 9.566406 16.820312 9.542969 16.835938 9.523438 C 16.851562 9.507812 16.875 9.496094 16.898438 9.496094 L 17.59375 9.496094 C 17.640625 9.496094 17.679688 9.535156 17.679688 9.582031 C 17.679688 9.628906 17.640625 9.667969 17.59375 9.667969 L 16.996094 9.667969 L 17.152344 11.140625 L 17.59375 11.140625 C 17.640625 11.140625 17.679688 11.179688 17.679688 11.226562 C 17.679688 11.273438 17.640625 11.3125 17.59375 11.3125 " fill-opacity="1" fill-rule="nonzero"/></g><g clip-path="url(#f3a4d5698a)"><path fill="#ffffff" d="M 12.921875 11.3125 L 12.402344 11.3125 C 12.351562 11.3125 12.316406 11.273438 12.316406 11.226562 C 12.316406 11.179688 12.351562 11.140625 12.402344 11.140625 L 12.84375 11.140625 L 12.996094 9.667969 L 12.402344 9.667969 C 12.351562 9.667969 12.316406 9.628906 12.316406 9.582031 C 12.316406 9.535156 12.351562 9.496094 12.402344 9.496094 L 13.09375 9.496094 C 13.117188 9.496094 13.140625 9.507812 13.15625 9.523438 C 13.175781 9.542969 13.183594 9.566406 13.179688 9.59375 L 13.007812 11.234375 C 13 11.28125 12.964844 11.3125 12.921875 11.3125 " fill-opacity="1" fill-rule="nonzero"/></g><g clip-path="url(#15e9f6f487)"><path fill="#ffffff" d="M 14.996094 8.632812 C 14.949219 8.632812 14.910156 8.59375 14.910156 8.542969 L 14.910156 8.199219 C 14.910156 8.152344 14.949219 8.113281 14.996094 8.113281 C 15.042969 8.113281 15.082031 8.152344 15.082031 8.199219 L 15.082031 8.542969 C 15.082031 8.59375 15.042969 8.632812 14.996094 8.632812 " fill-opacity="1" fill-rule="nonzero"/></g><g clip-path="url(#54f707b819)"><path fill="#ffffff" d="M 14.996094 13.476562 C 14.949219 13.476562 14.910156 13.4375 14.910156 13.390625 L 14.910156 13.042969 C 14.910156 12.996094 14.949219 12.957031 14.996094 12.957031 C 15.042969 12.957031 15.082031 12.996094 15.082031 13.042969 L 15.082031 13.390625 C 15.082031 13.4375 15.042969 13.476562 14.996094 13.476562 " fill-opacity="1" fill-rule="nonzero"/></g><g clip-path="url(#9e7384d75f)"><path fill="#ffffff" d="M 16.121094 8.933594 C 16.105469 8.933594 16.089844 8.929688 16.078125 8.921875 C 16.035156 8.898438 16.023438 8.84375 16.046875 8.804688 L 16.21875 8.503906 C 16.242188 8.460938 16.296875 8.445312 16.335938 8.472656 C 16.378906 8.496094 16.394531 8.546875 16.371094 8.589844 L 16.195312 8.890625 C 16.179688 8.917969 16.152344 8.933594 16.121094 8.933594 " fill-opacity="1" fill-rule="nonzero"/></g><g clip-path="url(#e5865a905c)"><path fill="#ffffff" d="M 13.699219 13.128906 C 13.683594 13.128906 13.667969 13.125 13.65625 13.117188 C 13.613281 13.09375 13.601562 13.039062 13.625 13 L 13.796875 12.699219 C 13.820312 12.65625 13.875 12.644531 13.914062 12.667969 C 13.957031 12.691406 13.972656 12.742188 13.945312 12.785156 L 13.773438 13.085938 C 13.757812 13.113281 13.730469 13.128906 13.699219 13.128906 " fill-opacity="1" fill-rule="nonzero"/></g><g clip-path="url(#3a128a9890)"><path fill="#ffffff" d="M 16.292969 13.128906 C 16.265625 13.128906 16.234375 13.113281 16.21875 13.085938 L 16.046875 12.785156 C 16.023438 12.742188 16.035156 12.691406 16.078125 12.667969 C 16.121094 12.644531 16.171875 12.65625 16.195312 12.699219 L 16.371094 13 C 16.394531 13.039062 16.378906 13.09375 16.335938 13.117188 C 16.324219 13.125 16.308594 13.128906 16.292969 13.128906 " fill-opacity="1" fill-rule="nonzero"/></g><g clip-path="url(#ef45f2dc5e)"><path fill="#ffffff" d="M 13.871094 8.933594 C 13.84375 8.933594 13.8125 8.917969 13.796875 8.890625 L 13.625 8.589844 C 13.601562 8.546875 13.613281 8.496094 13.65625 8.472656 C 13.695312 8.445312 13.75 8.460938 13.773438 8.503906 L 13.945312 8.804688 C 13.972656 8.84375 13.957031 8.898438 13.914062 8.921875 C 13.902344 8.929688 13.886719 8.933594 13.871094 8.933594 " fill-opacity="1" fill-rule="nonzero"/></g><path fill="#da6540" d="M 17.078125 11.941406 L 17.078125 8.628906 C 17.035156 8.675781 17.035156 8.761719 16.992188 8.808594 C 16.945312 8.898438 16.542969 10.820312 14.4375 11.539062 C 14.753906 11.808594 14.933594 12.164062 14.933594 12.566406 C 14.933594 12.835938 14.84375 13.058594 14.707031 13.238281 C 15.738281 13.015625 16.5 12.523438 17.078125 11.941406 Z M 17.078125 11.941406 " fill-opacity="1" fill-rule="nonzero"/><path fill="#da6540" d="M 10.636719 9.792969 C 12.203125 10.554688 13.859375 10.820312 15.46875 10.152344 C 15.917969 9.972656 16.09375 9.433594 15.917969 9.03125 C 15.738281 8.585938 15.199219 8.40625 14.796875 8.585938 C 13.589844 9.121094 12.203125 8.71875 10.992188 8.09375 C 10.949219 8.40625 10.859375 8.675781 10.636719 9.792969 Z M 10.636719 9.792969 " fill-opacity="1" fill-rule="nonzero"/><path fill="#da6540" d="M 9.425781 5.003906 C 10.769531 5.003906 11.886719 3.886719 11.886719 2.542969 C 11.886719 1.199219 10.769531 0.0820312 9.425781 0.0820312 C 8.085938 0.0820312 6.964844 1.199219 6.964844 2.542969 C 6.964844 3.929688 8.085938 5.003906 9.425781 5.003906 Z M 9.425781 5.003906 " fill-opacity="1" fill-rule="nonzero"/><g clip-path="url(#74fcd11738)"><path fill="#da6540" d="M 10.007812 16.238281 C 10.1875 15.699219 10.1875 15.117188 10.007812 14.535156 C 9.828125 14.089844 9.875 13.328125 9.875 12.882812 C 7.90625 11.761719 6.875 9.972656 6.5625 8.808594 C 6.113281 7.152344 8.578125 6.480469 9.070312 8.09375 C 9.070312 8.136719 9.203125 8.585938 9.5625 9.121094 C 9.738281 9.34375 9.917969 9.613281 10.1875 9.882812 C 10.5 8.183594 10.589844 8.226562 10.589844 7.734375 C 10.589844 6.570312 9.828125 5.496094 8.621094 5.183594 C 7.234375 4.824219 5.847656 5.675781 5.488281 7.0625 C 5.21875 8.046875 4.054688 13.238281 5.128906 16.238281 C 5.21875 16.460938 5.308594 16.640625 5.445312 16.820312 C 5.445312 17 5.445312 17.222656 5.445312 17.492188 C 5.355469 19.460938 5.039062 23.621094 3.5625 26.128906 C 3.207031 26.753906 3.429688 27.5625 4.054688 27.917969 C 4.683594 28.277344 5.488281 28.054688 5.847656 27.425781 C 7.367188 24.832031 7.859375 21.027344 7.996094 18.609375 C 8.441406 20.714844 8.980469 24.113281 8.398438 26.621094 C 8.21875 27.335938 8.664062 28.007812 9.382812 28.1875 C 10.054688 28.367188 10.769531 27.964844 10.949219 27.246094 C 11.796875 23.621094 10.769531 18.832031 10.277344 16.910156 C 10.097656 16.597656 10.054688 16.371094 10.007812 16.238281 Z M 10.007812 16.238281 " fill-opacity="1" fill-rule="nonzero"/></g><path fill="#da6540" d="M 17.214844 23.21875 L 17.214844 27.425781 C 17.214844 28.144531 17.796875 28.722656 18.511719 28.722656 C 19.226562 28.722656 19.808594 28.144531 19.808594 27.425781 L 19.808594 22.144531 C 19.09375 22.101562 18.378906 21.921875 17.660156 21.699219 Z M 17.214844 23.21875 " fill-opacity="1" fill-rule="nonzero"/><path fill="#da6540" d="M 21.242188 27.425781 C 21.242188 28.144531 21.824219 28.722656 22.539062 28.722656 C 23.257812 28.722656 23.839844 28.144531 23.839844 27.425781 L 23.839844 21.519531 C 22.988281 21.875 22.136719 22.054688 21.242188 22.144531 Z M 21.242188 27.425781 " fill-opacity="1" fill-rule="nonzero"/><path fill="#da6540" d="M 17.125 16.863281 C 16.992188 16.820312 16.855469 16.820312 16.765625 16.863281 L 16.050781 20.488281 C 16.230469 20.578125 16.410156 20.667969 16.585938 20.804688 L 17.527344 17.625 C 17.617188 17.3125 17.484375 16.953125 17.125 16.863281 Z M 17.125 16.863281 " fill-opacity="1" fill-rule="nonzero"/><path fill="#da6540" d="M 18.824219 17.757812 C 18.824219 17.847656 18.78125 17.894531 18.78125 17.984375 C 18.78125 18.027344 17.707031 21.519531 17.796875 21.296875 C 20.167969 22.144531 22.765625 21.832031 25 20.488281 L 24.195312 16.640625 C 22.851562 17.445312 19.71875 18.207031 18.824219 17.757812 Z M 18.824219 17.757812 " fill-opacity="1" fill-rule="nonzero"/><path fill="#da6540" d="M 20.527344 7.242188 C 21.777344 7.242188 22.851562 6.210938 22.851562 4.914062 C 22.851562 3.617188 21.824219 2.585938 20.527344 2.585938 C 19.226562 2.585938 18.199219 3.617188 18.199219 4.914062 C 18.199219 6.167969 19.226562 7.242188 20.527344 7.242188 Z M 20.527344 7.242188 " fill-opacity="1" fill-rule="nonzero"/><path fill="#da6540" d="M 17.839844 19.59375 C 18.332031 17.894531 18.421875 17.757812 18.421875 17.445312 C 18.199219 17.175781 18.109375 16.910156 18.109375 16.550781 C 18.152344 16.507812 17.796875 16.148438 17.394531 16.015625 C 16.320312 15.699219 15.871094 16.417969 15.511719 17.265625 C 15.46875 17.402344 15.558594 17.492188 15.648438 17.535156 C 15.78125 17.582031 15.871094 17.492188 15.917969 17.402344 C 15.960938 17.265625 16.003906 16.863281 16.410156 16.597656 C 16.675781 16.417969 16.992188 16.371094 17.257812 16.460938 C 17.796875 16.640625 18.109375 17.222656 17.929688 17.757812 C 16.632812 22.054688 18.558594 15.746094 14.976562 27.695312 C 14.933594 27.828125 15.019531 27.917969 15.109375 27.964844 C 15.246094 28.007812 15.335938 27.917969 15.378906 27.828125 C 15.378906 27.738281 17.839844 19.550781 17.839844 19.59375 Z M 17.839844 19.59375 " fill-opacity="1" fill-rule="nonzero"/><path fill="#da6540" d="M 13.859375 11.71875 C 13.542969 11.628906 9.828125 11.761719 8.621094 8.226562 C 8.488281 7.777344 8.085938 7.511719 7.636719 7.601562 C 7.589844 7.601562 7.589844 7.601562 7.546875 7.601562 C 7.097656 7.734375 6.832031 8.183594 6.921875 8.675781 C 7.546875 10.957031 9.605469 13.058594 13.632812 13.375 C 14.082031 13.375 14.484375 13.015625 14.484375 12.523438 C 14.527344 12.164062 14.214844 11.808594 13.859375 11.71875 Z M 13.859375 11.71875 " fill-opacity="1" fill-rule="nonzero"/><path fill="#da6540" d="M 23.167969 8.269531 C 21.464844 7.421875 19.765625 7.421875 18.066406 8.183594 C 17.886719 8.269531 17.707031 8.359375 17.527344 8.449219 L 17.527344 13.058594 L 17.035156 15.566406 C 17.484375 15.566406 17.929688 15.746094 18.242188 16.058594 C 18.421875 15.65625 18.824219 15.34375 19.316406 15.296875 C 20.570312 15.207031 23.257812 14.804688 23.613281 13.550781 C 23.523438 13.238281 23.390625 12.121094 23.523438 11.71875 L 23.523438 11.359375 C 25.226562 14.492188 22.988281 15.433594 19.363281 15.699219 C 18.960938 15.746094 18.644531 16.015625 18.558594 16.417969 C 18.46875 16.863281 18.691406 17.3125 19.453125 17.445312 C 21.777344 17.265625 24.597656 16.730469 25.539062 14.625 C 26.613281 12.121094 23.839844 8.40625 23.167969 8.269531 Z M 23.167969 8.269531 " fill-opacity="1" fill-rule="nonzero"/></svg>