<svg xmlns="http://www.w3.org/2000/svg" xmlns:xlink="http://www.w3.org/1999/xlink" width="40" zoomAndPan="magnify" viewBox="0 0 30 30.000001" height="40" preserveAspectRatio="xMidYMid meet" version="1.0"><defs><clipPath id="74129a11c5"><path d="M 0.484375 5.988281 L 29.515625 5.988281 L 29.515625 23 L 0.484375 23 Z M 0.484375 5.988281 " clip-rule="nonzero"/></clipPath></defs><path fill="#da6540" d="M 8.636719 15.886719 C 9.972656 16.171875 11.15625 16.734375 12.15625 17.378906 C 11.734375 16.269531 11.425781 14.992188 11.425781 13.628906 C 11.425781 13.121094 11.46875 12.625 11.542969 12.148438 C 9.003906 10.027344 5.789062 9.519531 5.789062 9.519531 C 5.789062 9.519531 5.617188 12.765625 7.164062 15.695312 C 7.667969 15.722656 8.160156 15.785156 8.636719 15.886719 Z M 8.636719 15.886719 " fill-opacity="1" fill-rule="nonzero"/><path fill="#da6540" d="M 17.84375 17.378906 C 18.84375 16.734375 20.027344 16.171875 21.363281 15.886719 C 21.839844 15.785156 22.332031 15.722656 22.835938 15.695312 C 24.382812 12.765625 24.210938 9.519531 24.210938 9.519531 C 24.210938 9.519531 20.996094 10.027344 18.457031 12.148438 C 18.53125 12.625 18.574219 13.121094 18.574219 13.628906 C 18.574219 14.992188 18.265625 16.269531 17.84375 17.378906 Z M 17.84375 17.378906 " fill-opacity="1" fill-rule="nonzero"/><g clip-path="url(#74129a11c5)"><path fill="#da6540" d="M 21.625 16.335938 C 18.5625 16.984375 16.3125 19.253906 15.421875 20.285156 C 16.246094 19.199219 17.996094 16.523438 17.996094 13.394531 C 17.996094 9.304688 15 5.988281 15 5.988281 C 15 5.988281 12.003906 9.304688 12.003906 13.394531 C 12.003906 16.523438 13.753906 19.199219 14.578125 20.285156 C 13.6875 19.253906 11.4375 16.984375 8.375 16.335938 C 4.375 15.484375 0.507812 17.722656 0.507812 17.722656 C 0.507812 17.722656 3.128906 21.34375 7.128906 22.195312 C 11.132812 23.042969 15 20.804688 15 20.804688 C 15 20.804688 18.867188 23.042969 22.871094 22.195312 C 26.871094 21.34375 29.492188 17.722656 29.492188 17.722656 C 29.492188 17.722656 25.625 15.484375 21.625 16.335938 Z M 21.625 16.335938 " fill-opacity="1" fill-rule="nonzero"/></g></svg>