<svg xmlns="http://www.w3.org/2000/svg" xmlns:xlink="http://www.w3.org/1999/xlink" width="40" zoomAndPan="magnify" viewBox="0 0 30 30.000001" height="40" preserveAspectRatio="xMidYMid meet" version="1.0"><defs><clipPath id="22b79ab659"><path d="M 0.484375 1.304688 L 29.515625 1.304688 L 29.515625 27.433594 L 0.484375 27.433594 Z M 0.484375 1.304688 " clip-rule="nonzero"/></clipPath></defs><g clip-path="url(#22b79ab659)"><path fill="#da6540" d="M 21.121094 1.304688 L 8.878906 1.304688 C 8.171875 1.304688 7.589844 1.886719 7.589844 2.59375 L 7.589844 27.71875 L 22.410156 27.71875 L 22.410156 2.59375 C 22.410156 1.886719 21.828125 1.304688 21.121094 1.304688 Z M 15 3.238281 C 17.480469 3.238281 19.507812 5.269531 19.507812 7.75 C 19.507812 10.230469 17.480469 12.257812 15 12.257812 C 12.519531 12.257812 10.492188 10.230469 10.492188 7.75 C 10.492188 5.269531 12.519531 3.238281 15 3.238281 Z M 15 25.140625 C 11.972656 25.140625 9.523438 22.695312 9.523438 19.667969 C 9.523438 16.636719 11.972656 14.191406 15 14.191406 C 18.027344 14.191406 20.476562 16.636719 20.476562 19.667969 C 20.476562 22.695312 18.027344 25.140625 15 25.140625 Z M 15 15.480469 C 12.679688 15.480469 10.8125 17.347656 10.8125 19.667969 C 10.8125 21.984375 12.679688 23.855469 15 23.855469 C 17.320312 23.855469 19.1875 21.984375 19.1875 19.667969 C 19.1875 17.347656 17.320312 15.480469 15 15.480469 Z M 15.578125 19.925781 C 15.546875 19.988281 15.515625 20.085938 15.449219 20.117188 C 15.320312 20.246094 15.160156 20.3125 15 20.3125 C 14.839844 20.3125 14.679688 20.246094 14.550781 20.117188 C 14.421875 19.988281 14.355469 19.828125 14.355469 19.667969 C 14.355469 19.632812 14.355469 19.570312 14.355469 19.539062 C 14.355469 19.503906 14.386719 19.441406 14.386719 19.410156 C 14.386719 19.375 14.421875 19.34375 14.453125 19.3125 C 14.484375 19.28125 14.484375 19.246094 14.515625 19.214844 C 14.679688 19.054688 14.871094 18.988281 15.097656 19.054688 C 15.128906 19.054688 15.160156 19.085938 15.226562 19.085938 C 15.257812 19.117188 15.289062 19.117188 15.320312 19.152344 C 15.355469 19.183594 15.386719 19.214844 15.417969 19.214844 C 15.449219 19.246094 15.484375 19.28125 15.484375 19.3125 C 15.515625 19.34375 15.515625 19.375 15.546875 19.410156 C 15.578125 19.441406 15.578125 19.472656 15.578125 19.539062 C 15.578125 19.570312 15.578125 19.632812 15.578125 19.667969 C 15.644531 19.761719 15.644531 19.828125 15.578125 19.925781 Z M 15 10.96875 C 16.773438 10.96875 18.222656 9.519531 18.222656 7.75 C 18.222656 5.976562 16.773438 4.527344 15 4.527344 C 13.226562 4.527344 11.777344 5.976562 11.777344 7.75 C 11.777344 9.519531 13.226562 10.96875 15 10.96875 Z M 14.355469 7.621094 C 14.355469 7.585938 14.386719 7.523438 14.386719 7.492188 C 14.386719 7.457031 14.421875 7.425781 14.453125 7.394531 C 14.484375 7.363281 14.484375 7.328125 14.515625 7.296875 C 14.550781 7.265625 14.582031 7.234375 14.613281 7.234375 C 14.644531 7.234375 14.679688 7.199219 14.710938 7.167969 C 14.742188 7.167969 14.773438 7.136719 14.839844 7.136719 C 15.0625 7.105469 15.257812 7.167969 15.417969 7.296875 C 15.449219 7.328125 15.484375 7.363281 15.484375 7.394531 C 15.515625 7.425781 15.515625 7.457031 15.546875 7.492188 C 15.578125 7.523438 15.578125 7.554688 15.578125 7.621094 C 15.578125 7.652344 15.578125 7.714844 15.578125 7.75 C 15.578125 7.910156 15.515625 8.070312 15.386719 8.199219 C 15.320312 8.328125 15.160156 8.394531 15 8.394531 C 14.839844 8.394531 14.679688 8.328125 14.550781 8.199219 C 14.421875 8.070312 14.355469 7.910156 14.355469 7.75 C 14.355469 7.714844 14.355469 7.652344 14.355469 7.621094 Z M 29.496094 14.511719 C 29.496094 14.867188 29.203125 15.15625 28.851562 15.15625 L 26.917969 15.15625 C 26.5625 15.15625 26.273438 14.867188 26.273438 14.511719 C 26.273438 14.160156 26.5625 13.867188 26.917969 13.867188 L 28.851562 13.867188 C 29.203125 13.867188 29.496094 14.160156 29.496094 14.511719 Z M 25.824219 11.742188 C 25.566406 11.484375 25.566406 11.097656 25.824219 10.839844 L 27.109375 9.550781 C 27.367188 9.292969 27.753906 9.292969 28.011719 9.550781 C 28.269531 9.808594 28.269531 10.195312 28.011719 10.453125 L 26.722656 11.742188 C 26.597656 11.871094 26.433594 11.9375 26.273438 11.9375 C 26.113281 11.9375 25.953125 11.871094 25.824219 11.742188 Z M 28.011719 18.570312 C 28.269531 18.828125 28.269531 19.214844 28.011719 19.472656 C 27.882812 19.601562 27.722656 19.667969 27.5625 19.667969 C 27.402344 19.667969 27.238281 19.601562 27.109375 19.472656 L 25.824219 18.183594 C 25.566406 17.925781 25.566406 17.539062 25.824219 17.28125 C 26.082031 17.023438 26.46875 17.023438 26.722656 17.28125 Z M 3.082031 15.15625 L 1.148438 15.15625 C 0.796875 15.15625 0.503906 14.867188 0.503906 14.511719 C 0.503906 14.160156 0.796875 13.867188 1.148438 13.867188 L 3.082031 13.867188 C 3.4375 13.867188 3.726562 14.160156 3.726562 14.511719 C 3.726562 14.867188 3.4375 15.15625 3.082031 15.15625 Z M 4.175781 10.839844 C 4.433594 11.097656 4.433594 11.484375 4.175781 11.742188 C 4.046875 11.871094 3.886719 11.9375 3.726562 11.9375 C 3.566406 11.9375 3.402344 11.871094 3.277344 11.742188 L 1.988281 10.453125 C 1.730469 10.195312 1.730469 9.808594 1.988281 9.550781 C 2.246094 9.292969 2.632812 9.292969 2.890625 9.550781 Z M 4.175781 17.28125 C 4.433594 17.539062 4.433594 17.925781 4.175781 18.183594 L 2.890625 19.472656 C 2.761719 19.601562 2.597656 19.667969 2.4375 19.667969 C 2.277344 19.667969 2.117188 19.601562 1.988281 19.472656 C 1.730469 19.214844 1.730469 18.828125 1.988281 18.570312 L 3.277344 17.28125 C 3.53125 17.023438 3.917969 17.023438 4.175781 17.28125 Z M 4.175781 17.28125 " fill-opacity="1" fill-rule="nonzero"/></g></svg>