<svg xmlns="http://www.w3.org/2000/svg" xmlns:xlink="http://www.w3.org/1999/xlink" width="40" zoomAndPan="magnify" viewBox="0 0 30 30.000001" height="40" preserveAspectRatio="xMidYMid meet" version="1.0"><defs><clipPath id="1ba04fafec"><path d="M 0.808594 16 L 14 16 L 14 29.03125 L 0.808594 29.03125 Z M 0.808594 16 " clip-rule="nonzero"/></clipPath><clipPath id="e275e14a37"><path d="M 16.152344 16.496094 L 29.011719 16.496094 L 29.011719 29 L 16.152344 29 Z M 16.152344 16.496094 " clip-rule="nonzero"/></clipPath></defs><path fill="#da6540" d="M 19.003906 14.046875 L 18.597656 14.515625 C 17.777344 15.511719 16.429688 16.097656 14.96875 16.097656 C 13.503906 16.097656 12.097656 15.511719 11.277344 14.515625 L 10.867188 14.046875 L 10.929688 13.695312 C 11.980469 14.808594 13.382812 15.570312 14.90625 15.570312 C 16.488281 15.570312 17.832031 14.808594 18.886719 13.695312 L 19.003906 14.046875 " fill-opacity="1" fill-rule="nonzero"/><g clip-path="url(#1ba04fafec)"><path fill="#da6540" d="M 10.398438 17.210938 C 12.15625 19.375 13.09375 21.832031 13.09375 24.289062 L 13.09375 29.03125 L 1.5625 29.03125 C 1.210938 29.03125 0.976562 28.742188 0.976562 28.445312 L 0.976562 22.652344 C 0.976562 18.203125 8.175781 17.148438 10.34375 16.914062 L 10.34375 17.089844 L 10.398438 17.210938 " fill-opacity="1" fill-rule="nonzero"/></g><g clip-path="url(#e275e14a37)"><path fill="#da6540" d="M 29.015625 22.59375 L 29.015625 28.386719 C 29.015625 28.742188 28.71875 28.972656 28.429688 28.972656 L 16.78125 28.972656 L 16.78125 24.234375 C 16.78125 21.773438 17.71875 19.316406 19.53125 17.148438 L 19.648438 16.976562 L 19.648438 16.855469 C 21.816406 17.089844 29.015625 18.144531 29.015625 22.59375 " fill-opacity="1" fill-rule="nonzero"/></g><path fill="#da6540" d="M 14.96875 20.953125 C 14.558594 20.953125 14.203125 20.605469 14.203125 20.195312 C 14.203125 19.785156 14.558594 19.433594 14.96875 19.433594 C 15.375 19.433594 15.726562 19.785156 15.726562 20.195312 C 15.726562 20.605469 15.375 20.953125 14.96875 20.953125 Z M 14.96875 24.117188 C 14.558594 24.117188 14.203125 23.765625 14.203125 23.355469 C 14.203125 22.945312 14.558594 22.59375 14.96875 22.59375 C 15.375 22.59375 15.726562 22.945312 15.726562 23.355469 C 15.726562 23.765625 15.375 24.117188 14.96875 24.117188 Z M 14.96875 27.273438 C 14.558594 27.273438 14.203125 26.925781 14.203125 26.515625 C 14.203125 26.105469 14.558594 25.753906 14.96875 25.753906 C 15.375 25.753906 15.726562 26.105469 15.726562 26.515625 C 15.726562 26.925781 15.375 27.273438 14.96875 27.273438 Z M 19.0625 14.867188 C 17.132812 17.265625 12.800781 17.210938 10.867188 14.867188 L 10.867188 16.800781 C 12.625 18.90625 13.738281 21.480469 13.738281 24.234375 L 13.738281 28.972656 L 16.195312 28.972656 L 16.195312 24.234375 C 16.195312 21.480469 17.308594 18.90625 19.0625 16.800781 L 19.0625 14.867188 " fill-opacity="1" fill-rule="nonzero"/><path fill="#da6540" d="M 21.582031 9.1875 C 21.40625 9.953125 20.875 10.417969 20.410156 10.300781 C 19.472656 12.875 17.421875 14.984375 14.96875 14.984375 C 12.507812 14.984375 10.457031 12.875 9.523438 10.300781 C 9.054688 10.417969 8.585938 9.953125 8.351562 9.1875 C 8.175781 8.429688 8.351562 7.785156 8.820312 7.667969 L 9.054688 7.667969 L 9.054688 7.492188 C 9.054688 7.257812 9.054688 6.964844 9.113281 6.730469 L 9.347656 6.671875 C 11.21875 6.261719 13.09375 6.089844 15.023438 6.089844 C 16.957031 6.089844 18.828125 6.261719 20.703125 6.671875 L 20.9375 6.730469 C 20.996094 6.964844 20.996094 7.199219 20.996094 7.492188 L 20.996094 7.667969 L 21.230469 7.667969 C 21.582031 7.785156 21.753906 8.488281 21.582031 9.1875 " fill-opacity="1" fill-rule="nonzero"/><path fill="#da6540" d="M 20.761719 1.699219 L 20.761719 3.746094 C 18.886719 3.335938 16.957031 3.160156 14.96875 3.160156 C 12.972656 3.160156 11.042969 3.335938 9.171875 3.746094 L 9.171875 1.699219 C 9.171875 1.464844 9.34375 1.230469 9.523438 1.109375 C 11.277344 0.410156 13.09375 0 14.96875 0 C 16.78125 0 18.652344 0.351562 20.410156 1.109375 C 20.640625 1.230469 20.761719 1.464844 20.761719 1.699219 " fill-opacity="1" fill-rule="nonzero"/><path fill="#da6540" d="M 20.640625 5.679688 L 20.761719 5.738281 L 20.761719 6.148438 C 18.828125 5.738281 16.898438 5.558594 14.96875 5.558594 C 13.035156 5.558594 11.042969 5.792969 9.171875 6.148438 L 9.171875 5.679688 L 9.289062 5.617188 C 11.160156 5.210938 13.09375 5.035156 14.96875 5.035156 C 16.898438 5.09375 18.769531 5.269531 20.640625 5.679688 " fill-opacity="1" fill-rule="nonzero"/><path fill="#da6540" d="M 9.171875 4.390625 L 9.171875 5.148438 C 11.101562 4.738281 13.035156 4.566406 14.96875 4.566406 C 16.898438 4.566406 18.886719 4.800781 20.761719 5.148438 L 20.761719 4.390625 C 18.828125 3.980469 16.898438 3.804688 14.96875 3.804688 C 13.035156 3.746094 11.042969 3.980469 9.171875 4.390625 " fill-opacity="1" fill-rule="nonzero"/></svg>