<svg xmlns="http://www.w3.org/2000/svg" xmlns:xlink="http://www.w3.org/1999/xlink" width="40" zoomAndPan="magnify" viewBox="0 0 30 30.000001" height="40" preserveAspectRatio="xMidYMid meet" version="1.0"><defs><clipPath id="63be5fa0e7"><path d="M 2 4 L 29.515625 4 L 29.515625 24.929688 L 2 24.929688 Z M 2 4 " clip-rule="nonzero"/></clipPath><clipPath id="b124a507b1"><path d="M 0.484375 3.882812 L 15 3.882812 L 15 18 L 0.484375 18 Z M 0.484375 3.882812 " clip-rule="nonzero"/></clipPath></defs><g clip-path="url(#63be5fa0e7)"><path fill="#da6540" d="M 29.390625 18.878906 C 29.226562 18.867188 29.058594 18.863281 28.890625 18.859375 C 28.160156 18.828125 27.429688 18.785156 26.699219 18.773438 C 25.398438 18.75 24.097656 18.75 22.792969 18.730469 C 22.28125 18.71875 21.769531 18.683594 21.257812 18.65625 C 21.246094 18.65625 21.234375 18.65625 21.226562 18.65625 C 21.210938 18.652344 21.195312 18.644531 21.179688 18.640625 C 21.191406 18.628906 21.203125 18.613281 21.214844 18.613281 C 21.238281 18.609375 21.261719 18.605469 21.285156 18.605469 C 21.773438 18.589844 22.265625 18.566406 22.753906 18.558594 C 23.609375 18.550781 24.46875 18.554688 25.328125 18.554688 C 25.5625 18.558594 25.785156 18.507812 25.992188 18.402344 C 26.699219 18.054688 27.261719 17.550781 27.6875 16.890625 C 28.238281 16.035156 28.542969 15.085938 28.714844 14.089844 C 28.730469 13.988281 28.734375 13.882812 28.726562 13.78125 C 28.71875 13.550781 28.609375 13.46875 28.390625 13.515625 C 28.277344 13.542969 28.167969 13.578125 28.058594 13.621094 C 27.554688 13.796875 27.058594 13.996094 26.542969 14.148438 C 26.023438 14.300781 25.5 14.429688 24.972656 14.546875 C 24.964844 14.546875 24.960938 14.550781 24.957031 14.550781 C 23.945312 14.777344 22.929688 14.972656 21.902344 15.109375 C 20.953125 15.238281 20.007812 15.375 19.0625 15.5 C 18.828125 15.53125 18.589844 15.535156 18.355469 15.550781 C 18.332031 15.546875 18.308594 15.542969 18.285156 15.535156 C 18.304688 15.527344 18.324219 15.519531 18.347656 15.511719 C 18.753906 15.429688 19.15625 15.335938 19.5625 15.265625 C 20.160156 15.167969 20.757812 15.085938 21.355469 14.996094 C 21.683594 14.941406 22.011719 14.882812 22.339844 14.824219 C 22.363281 14.820312 22.382812 14.8125 22.398438 14.800781 C 22.378906 14.796875 22.355469 14.792969 22.332031 14.789062 C 22.269531 14.792969 22.207031 14.796875 22.144531 14.800781 C 21.230469 14.882812 20.320312 14.964844 19.410156 15.050781 C 19.34375 15.0625 19.300781 15.039062 19.269531 14.980469 C 19.179688 14.839844 19.089844 14.703125 18.988281 14.570312 C 18.851562 14.367188 18.667969 14.292969 18.429688 14.335938 C 18.265625 14.363281 18.101562 14.390625 17.9375 14.429688 C 17.851562 14.449219 17.792969 14.453125 17.730469 14.371094 C 17.636719 14.242188 17.507812 14.1875 17.351562 14.203125 C 17.265625 14.203125 17.179688 14.210938 17.09375 14.226562 C 16.832031 14.277344 16.574219 14.332031 16.316406 14.386719 C 16.097656 14.4375 15.878906 14.488281 15.660156 14.539062 C 15.582031 14.558594 15.527344 14.542969 15.511719 14.449219 C 15.484375 14.285156 15.441406 14.125 15.429688 13.960938 C 15.425781 13.859375 15.449219 13.769531 15.496094 13.683594 C 15.566406 13.578125 15.652344 13.480469 15.746094 13.398438 C 15.796875 13.355469 15.828125 13.304688 15.832031 13.238281 C 15.84375 13.183594 15.851562 13.125 15.855469 13.066406 C 15.835938 12.863281 15.972656 12.769531 16.117188 12.679688 C 16.160156 12.652344 16.203125 12.652344 16.242188 12.683594 C 16.410156 12.785156 16.578125 12.882812 16.753906 12.972656 C 16.8125 12.988281 16.871094 13 16.933594 13 C 16.976562 13.003906 17.015625 13.015625 17.058594 13.027344 C 17.101562 13.042969 17.136719 13.074219 17.179688 13.085938 C 17.476562 13.179688 17.769531 13.28125 18.070312 13.359375 C 18.242188 13.402344 18.417969 13.433594 18.597656 13.445312 C 18.769531 13.46875 18.894531 13.402344 18.972656 13.25 C 19.074219 13.082031 19.164062 12.910156 19.246094 12.730469 C 19.398438 12.34375 19.480469 11.9375 19.492188 11.519531 C 19.5 11.300781 19.550781 11.085938 19.644531 10.886719 C 19.710938 10.753906 19.769531 10.617188 19.820312 10.476562 C 19.863281 10.363281 19.890625 10.246094 19.894531 10.125 C 19.894531 10.011719 19.941406 9.929688 20.039062 9.871094 C 20.773438 9.371094 21.519531 8.863281 22.261719 8.363281 C 22.453125 8.230469 22.667969 8.15625 22.90625 8.144531 C 23.398438 8.113281 23.871094 7.992188 24.320312 7.785156 C 25.042969 7.46875 25.691406 7.035156 26.269531 6.496094 C 26.429688 6.332031 26.582031 6.160156 26.722656 5.976562 C 26.832031 5.839844 26.847656 5.691406 26.769531 5.535156 C 26.605469 5.175781 26.386719 4.855469 26.117188 4.566406 C 26.011719 4.441406 25.878906 4.402344 25.722656 4.449219 C 25.5625 4.492188 25.40625 4.546875 25.253906 4.621094 C 24.628906 4.957031 24.054688 5.371094 23.542969 5.867188 C 23.039062 6.339844 22.609375 6.871094 22.363281 7.527344 C 22.300781 7.695312 22.199219 7.839844 22.066406 7.960938 C 21.382812 8.5625 20.582031 9.035156 19.835938 9.554688 C 19.683594 9.664062 19.535156 9.753906 19.332031 9.746094 C 19.210938 9.75 19.097656 9.78125 18.996094 9.847656 C 18.910156 9.898438 18.859375 9.996094 18.746094 10.023438 C 18.648438 10.042969 18.625 10.265625 18.632812 10.34375 C 18.648438 10.417969 18.621094 10.476562 18.554688 10.511719 C 18.054688 10.851562 17.558594 11.199219 17.058594 11.539062 C 16.9375 11.621094 16.816406 11.695312 16.691406 11.769531 C 16.675781 11.777344 16.652344 11.773438 16.632812 11.773438 C 16.640625 11.753906 16.648438 11.738281 16.664062 11.722656 C 16.730469 11.660156 16.804688 11.601562 16.871094 11.539062 C 16.902344 11.503906 16.929688 11.46875 16.957031 11.433594 C 16.917969 11.410156 16.882812 11.386719 16.839844 11.375 C 16.679688 11.34375 16.550781 11.265625 16.453125 11.136719 C 16.222656 10.847656 15.921875 10.699219 15.554688 10.6875 C 15.476562 10.6875 15.410156 10.65625 15.359375 10.601562 C 15.191406 10.429688 14.988281 10.351562 14.75 10.363281 C 14.515625 10.367188 14.515625 10.363281 14.457031 10.128906 C 14.449219 10.109375 14.445312 10.085938 14.441406 10.0625 C 14.398438 9.824219 14.398438 9.824219 14.640625 9.8125 C 14.832031 9.804688 14.898438 9.75 14.921875 9.558594 C 14.957031 9.304688 14.976562 9.042969 15 8.785156 C 15.011719 8.667969 15.023438 8.546875 15.027344 8.425781 C 15.03125 8.351562 15.066406 8.332031 15.132812 8.320312 C 15.246094 8.304688 15.359375 8.277344 15.46875 8.242188 C 15.59375 8.195312 15.617188 8.117188 15.574219 7.992188 C 15.496094 7.773438 15.339844 7.667969 15.109375 7.667969 C 15.0625 7.664062 15.015625 7.667969 14.972656 7.675781 C 14.871094 7.707031 14.792969 7.679688 14.734375 7.59375 C 14.589844 7.421875 14.402344 7.332031 14.175781 7.324219 C 14.050781 7.3125 13.921875 7.316406 13.796875 7.328125 C 13.316406 7.398438 13.0625 7.722656 12.976562 8.164062 C 12.933594 8.382812 12.953125 8.613281 12.964844 8.835938 C 12.964844 9.027344 13.050781 9.171875 13.214844 9.265625 C 13.246094 9.28125 13.265625 9.308594 13.273438 9.339844 C 13.292969 9.496094 13.300781 9.648438 13.292969 9.804688 C 13.265625 10.039062 13.160156 10.105469 12.925781 10.082031 C 12.804688 10.066406 12.6875 10.058594 12.566406 10.0625 C 12.355469 10.066406 12.167969 10.125 11.996094 10.246094 C 11.929688 10.292969 11.863281 10.359375 11.898438 10.445312 C 11.945312 10.574219 11.890625 10.632812 11.789062 10.691406 C 11.734375 10.722656 11.6875 10.765625 11.640625 10.8125 C 11.347656 11.09375 11.15625 11.433594 11.066406 11.835938 C 11.058594 11.878906 11.050781 11.933594 11.019531 11.957031 C 10.9375 12.019531 10.929688 12.097656 10.941406 12.1875 C 10.949219 12.253906 10.945312 12.320312 10.863281 12.335938 C 10.738281 12.359375 10.710938 12.433594 10.710938 12.546875 C 10.714844 12.644531 10.707031 12.746094 10.582031 12.78125 C 10.5625 12.785156 10.542969 12.824219 10.542969 12.847656 C 10.539062 12.90625 10.546875 12.964844 10.558594 13.019531 C 10.589844 13.148438 10.582031 13.269531 10.53125 13.390625 C 10.445312 13.597656 10.402344 13.808594 10.410156 14.03125 C 10.417969 14.253906 10.460938 14.300781 10.675781 14.34375 C 11.039062 14.410156 11.40625 14.414062 11.773438 14.351562 C 11.957031 14.324219 12.136719 14.285156 12.316406 14.246094 C 12.460938 14.21875 12.476562 14.222656 12.554688 14.34375 C 12.566406 14.359375 12.574219 14.375 12.582031 14.386719 C 12.648438 14.480469 12.652344 14.484375 12.558594 14.550781 C 12.347656 14.703125 12.136719 14.851562 11.921875 15 C 11.84375 15.058594 11.761719 15.113281 11.675781 15.160156 C 11.636719 15.183594 11.597656 15.191406 11.550781 15.179688 C 11.421875 15.113281 11.308594 15.15625 11.1875 15.207031 C 10.429688 15.515625 9.703125 15.890625 9.011719 16.328125 C 8.339844 16.761719 7.695312 17.234375 7.082031 17.75 C 7.050781 17.773438 7.023438 17.800781 6.996094 17.824219 C 7.027344 17.847656 7.0625 17.863281 7.097656 17.878906 C 7.164062 17.902344 7.230469 17.917969 7.296875 17.933594 C 7.75 18.054688 8.21875 18.078125 8.683594 18.101562 C 9.40625 18.136719 10.132812 18.152344 10.859375 18.179688 C 11.023438 18.1875 11.191406 18.203125 11.359375 18.21875 C 11.375 18.21875 11.390625 18.222656 11.402344 18.230469 C 11.386719 18.234375 11.371094 18.238281 11.355469 18.242188 C 11.246094 18.253906 11.136719 18.269531 11.027344 18.277344 C 10.414062 18.316406 9.796875 18.351562 9.179688 18.339844 C 8.425781 18.332031 7.675781 18.257812 6.933594 18.117188 C 6.488281 18.027344 6.035156 17.960938 5.578125 18.011719 C 5.441406 18.03125 5.308594 18.058594 5.175781 18.09375 C 5.160156 18.097656 5.148438 18.113281 5.136719 18.125 C 5.148438 18.144531 5.164062 18.15625 5.179688 18.167969 C 5.207031 18.183594 5.234375 18.191406 5.261719 18.195312 C 5.738281 18.3125 6.210938 18.429688 6.703125 18.460938 C 6.726562 18.464844 6.746094 18.464844 6.769531 18.46875 C 6.746094 18.480469 6.726562 18.488281 6.703125 18.492188 C 6.488281 18.527344 6.273438 18.554688 6.058594 18.597656 C 5.777344 18.652344 5.496094 18.71875 5.21875 18.789062 C 5.148438 18.8125 5.078125 18.839844 5.011719 18.875 C 4.992188 18.882812 4.980469 18.90625 4.964844 18.921875 C 4.988281 18.9375 5.011719 18.949219 5.035156 18.964844 C 5.039062 18.96875 5.046875 18.964844 5.050781 18.964844 C 5.5 19.027344 5.953125 19.089844 6.402344 19.148438 C 6.558594 19.167969 6.710938 19.175781 6.867188 19.195312 C 6.882812 19.195312 6.898438 19.214844 6.917969 19.226562 C 6.902344 19.234375 6.886719 19.238281 6.871094 19.238281 C 6.75 19.246094 6.628906 19.25 6.507812 19.25 C 5.355469 19.265625 4.203125 19.277344 3.054688 19.289062 C 2.988281 19.289062 2.925781 19.289062 2.863281 19.292969 C 2.84375 19.296875 2.828125 19.300781 2.808594 19.304688 C 2.828125 19.308594 2.84375 19.3125 2.859375 19.3125 C 3.003906 19.328125 3.148438 19.339844 3.289062 19.355469 C 3.621094 19.382812 3.957031 19.410156 4.289062 19.4375 C 4.695312 19.46875 5.101562 19.5 5.511719 19.523438 C 5.875 19.546875 6.234375 19.550781 6.597656 19.570312 C 6.78125 19.578125 6.964844 19.589844 7.148438 19.605469 C 7.167969 19.605469 7.183594 19.628906 7.199219 19.636719 C 7.183594 19.648438 7.167969 19.652344 7.152344 19.65625 C 6.972656 19.671875 6.796875 19.6875 6.617188 19.699219 C 6.25 19.726562 5.882812 19.746094 5.515625 19.769531 C 5.5 19.773438 5.480469 19.777344 5.464844 19.78125 C 5.476562 19.792969 5.492188 19.800781 5.503906 19.808594 C 5.574219 19.824219 5.636719 19.847656 5.703125 19.871094 C 5.84375 19.945312 5.984375 20.023438 6.121094 20.105469 C 6.183594 20.128906 6.203125 20.171875 6.183594 20.234375 C 6.164062 20.292969 6.128906 20.359375 6.179688 20.410156 C 6.230469 20.460938 6.285156 20.5 6.347656 20.527344 C 6.46875 20.570312 6.589844 20.601562 6.714844 20.628906 C 6.898438 20.671875 7.085938 20.710938 7.269531 20.75 C 7.285156 20.753906 7.296875 20.769531 7.308594 20.78125 C 7.296875 20.789062 7.285156 20.800781 7.269531 20.804688 C 7.183594 20.820312 7.101562 20.832031 7.015625 20.839844 C 6.699219 20.859375 6.382812 20.871094 6.066406 20.886719 C 5.839844 20.894531 5.617188 20.902344 5.390625 20.914062 C 5.371094 20.917969 5.347656 20.921875 5.328125 20.925781 C 5.351562 20.929688 5.375 20.933594 5.394531 20.9375 C 5.492188 20.949219 5.589844 20.960938 5.6875 20.972656 C 6.324219 21.03125 6.949219 21.148438 7.566406 21.316406 C 7.75 21.371094 7.933594 21.417969 8.117188 21.46875 C 8.15625 21.476562 8.191406 21.480469 8.230469 21.480469 C 8.203125 21.460938 8.171875 21.441406 8.144531 21.425781 C 8.09375 21.398438 8.042969 21.375 7.992188 21.339844 C 7.96875 21.320312 7.945312 21.300781 7.925781 21.273438 C 7.953125 21.253906 7.984375 21.238281 8.015625 21.230469 C 8.152344 21.210938 8.289062 21.199219 8.425781 21.195312 C 9.324219 21.203125 10.222656 21.207031 11.121094 21.222656 C 11.402344 21.226562 11.683594 21.265625 11.964844 21.292969 C 11.980469 21.292969 12 21.296875 12.015625 21.304688 C 12 21.308594 11.980469 21.3125 11.964844 21.316406 C 11.917969 21.320312 11.871094 21.320312 11.828125 21.324219 C 11.453125 21.347656 11.078125 21.371094 10.707031 21.394531 C 10.6875 21.398438 10.667969 21.402344 10.648438 21.410156 C 10.667969 21.414062 10.683594 21.421875 10.699219 21.425781 C 10.890625 21.484375 11.085938 21.535156 11.273438 21.597656 C 11.402344 21.640625 11.519531 21.707031 11.648438 21.738281 C 12.101562 21.859375 12.5625 21.96875 13.019531 22.082031 C 13.121094 22.105469 13.222656 22.128906 13.324219 22.148438 C 13.339844 22.15625 13.355469 22.160156 13.367188 22.167969 C 13.351562 22.175781 13.332031 22.179688 13.3125 22.1875 C 13.308594 22.1875 13.300781 22.1875 13.296875 22.1875 C 12.785156 22.210938 12.273438 22.234375 11.761719 22.253906 C 10.84375 22.28125 9.929688 22.304688 9.015625 22.332031 C 8.980469 22.332031 8.945312 22.335938 8.910156 22.335938 C 8.894531 22.335938 8.875 22.339844 8.859375 22.34375 C 8.878906 22.347656 8.898438 22.351562 8.917969 22.351562 C 8.941406 22.355469 8.964844 22.359375 8.984375 22.359375 C 9.363281 22.386719 9.742188 22.410156 10.125 22.4375 C 10.796875 22.480469 11.46875 22.523438 12.140625 22.570312 C 12.488281 22.59375 12.839844 22.617188 13.191406 22.652344 C 13.648438 22.699219 14.105469 22.753906 14.5625 22.804688 C 14.625 22.8125 14.683594 22.824219 14.746094 22.835938 C 14.679688 22.855469 14.613281 22.867188 14.546875 22.875 C 14.1875 22.890625 13.832031 22.902344 13.476562 22.914062 C 13.128906 22.925781 12.785156 22.9375 12.441406 22.953125 C 12.390625 22.960938 12.34375 22.972656 12.296875 22.988281 C 12.335938 23.019531 12.375 23.046875 12.417969 23.070312 C 12.632812 23.164062 12.824219 23.285156 13 23.4375 C 13.035156 23.46875 13.066406 23.488281 13.054688 23.550781 C 13.015625 23.714844 13.046875 23.800781 13.191406 23.875 C 13.3125 23.933594 13.433594 23.980469 13.5625 24.011719 C 13.878906 24.082031 14.195312 24.136719 14.511719 24.195312 C 14.523438 24.203125 14.539062 24.207031 14.550781 24.214844 C 14.539062 24.226562 14.527344 24.242188 14.515625 24.246094 C 14.347656 24.261719 14.183594 24.285156 14.015625 24.285156 C 13.355469 24.296875 12.691406 24.304688 12.027344 24.3125 C 12.007812 24.3125 11.984375 24.308594 11.960938 24.3125 C 11.949219 24.3125 11.941406 24.316406 11.933594 24.316406 C 11.941406 24.324219 11.949219 24.335938 11.960938 24.339844 C 11.992188 24.347656 12.027344 24.355469 12.058594 24.363281 C 12.371094 24.414062 12.683594 24.457031 12.996094 24.515625 C 14.0625 24.722656 15.128906 24.9375 16.195312 25.144531 C 16.21875 25.148438 16.238281 25.144531 16.257812 25.140625 C 16.246094 25.125 16.230469 25.105469 16.210938 25.09375 C 16.070312 24.992188 15.925781 24.898438 15.789062 24.792969 C 15.621094 24.664062 15.457031 24.527344 15.296875 24.386719 C 15.195312 24.296875 15.207031 24.21875 15.328125 24.160156 C 15.378906 24.136719 15.433594 24.125 15.492188 24.125 C 15.894531 24.097656 16.296875 24.078125 16.699219 24.054688 C 16.730469 24.054688 16.757812 24.050781 16.785156 24.046875 C 16.796875 24.046875 16.8125 24.042969 16.824219 24.035156 C 16.8125 24.027344 16.804688 24.023438 16.792969 24.019531 C 16.765625 24.007812 16.738281 24 16.710938 23.996094 C 16.257812 23.910156 15.804688 23.824219 15.355469 23.742188 C 15.039062 23.679688 14.722656 23.621094 14.40625 23.554688 C 14.386719 23.546875 14.367188 23.539062 14.347656 23.523438 C 14.367188 23.515625 14.386719 23.511719 14.40625 23.507812 C 14.691406 23.46875 14.976562 23.445312 15.257812 23.390625 C 15.625 23.324219 15.976562 23.210938 16.25 22.9375 C 16.355469 22.824219 16.484375 22.777344 16.636719 22.796875 C 16.675781 22.800781 16.71875 22.796875 16.757812 22.796875 C 17.738281 22.8125 18.714844 22.828125 19.695312 22.84375 C 19.863281 22.847656 20.027344 22.847656 20.195312 22.847656 C 20.214844 22.84375 20.230469 22.835938 20.25 22.828125 C 20.230469 22.824219 20.214844 22.820312 20.199219 22.816406 C 20.054688 22.800781 19.914062 22.785156 19.769531 22.769531 C 18.96875 22.691406 18.167969 22.605469 17.363281 22.535156 C 16.734375 22.480469 16.101562 22.429688 15.488281 22.261719 C 15.445312 22.246094 15.40625 22.226562 15.367188 22.210938 C 15.40625 22.191406 15.449219 22.179688 15.492188 22.167969 C 15.984375 22.058594 16.484375 22.023438 16.980469 21.984375 C 17.699219 21.929688 18.417969 21.886719 19.136719 21.835938 C 19.160156 21.832031 19.183594 21.828125 19.207031 21.824219 C 19.183594 21.816406 19.164062 21.8125 19.140625 21.8125 C 18.582031 21.773438 18.023438 21.742188 17.46875 21.703125 C 17.074219 21.675781 16.675781 21.632812 16.28125 21.597656 C 16.257812 21.597656 16.238281 21.589844 16.214844 21.585938 C 16.234375 21.578125 16.253906 21.570312 16.273438 21.566406 C 16.441406 21.542969 16.605469 21.519531 16.769531 21.496094 C 16.953125 21.46875 17.132812 21.4375 17.316406 21.40625 C 17.339844 21.398438 17.367188 21.390625 17.390625 21.375 C 17.367188 21.371094 17.34375 21.363281 17.324219 21.359375 C 16.933594 21.28125 16.539062 21.238281 16.140625 21.226562 C 15.5 21.195312 14.863281 21.183594 14.222656 21.148438 C 13.765625 21.125 13.304688 21.078125 12.847656 21.039062 C 12.832031 21.039062 12.8125 21.035156 12.796875 21.03125 C 12.816406 21.027344 12.835938 21.023438 12.859375 21.019531 C 12.933594 21.015625 13.007812 21.011719 13.082031 21.007812 C 13.679688 21 14.28125 20.988281 14.878906 20.980469 C 15.4375 20.976562 15.996094 20.964844 16.546875 20.871094 C 16.589844 20.859375 16.632812 20.851562 16.671875 20.835938 C 16.636719 20.8125 16.597656 20.789062 16.558594 20.769531 C 16.246094 20.632812 15.933594 20.5 15.625 20.363281 C 15.519531 20.3125 15.417969 20.261719 15.320312 20.203125 C 15.292969 20.1875 15.277344 20.152344 15.261719 20.125 C 15.289062 20.121094 15.3125 20.113281 15.339844 20.109375 C 15.375 20.105469 15.410156 20.109375 15.445312 20.109375 C 16.03125 20.105469 16.621094 20.101562 17.207031 20.105469 C 19.382812 20.128906 21.5625 20.144531 23.738281 20.183594 C 24.582031 20.199219 25.425781 20.277344 26.273438 20.328125 C 26.421875 20.339844 26.570312 20.351562 26.71875 20.363281 C 26.738281 20.367188 26.75 20.382812 26.769531 20.394531 C 26.753906 20.402344 26.742188 20.414062 26.726562 20.414062 C 26.652344 20.421875 26.578125 20.425781 26.503906 20.425781 C 24.953125 20.449219 23.402344 20.472656 21.855469 20.492188 C 20.4375 20.507812 19.019531 20.511719 17.605469 20.523438 C 17.523438 20.523438 17.441406 20.53125 17.363281 20.535156 C 17.351562 20.535156 17.339844 20.539062 17.328125 20.542969 C 17.339844 20.546875 17.351562 20.550781 17.367188 20.554688 C 17.40625 20.558594 17.445312 20.558594 17.484375 20.5625 C 17.910156 20.601562 18.335938 20.632812 18.757812 20.679688 C 19.253906 20.738281 19.75 20.808594 20.246094 20.875 C 20.53125 20.914062 20.816406 20.960938 21.101562 21.003906 C 21.128906 21.011719 21.152344 21.019531 21.179688 21.03125 C 21.15625 21.039062 21.128906 21.042969 21.101562 21.046875 C 20.425781 21.09375 19.75 21.144531 19.070312 21.191406 C 18.863281 21.203125 18.65625 21.21875 18.449219 21.230469 C 18.433594 21.230469 18.417969 21.234375 18.398438 21.234375 C 18.414062 21.246094 18.433594 21.253906 18.453125 21.257812 C 18.515625 21.269531 18.578125 21.28125 18.640625 21.289062 C 18.800781 21.308594 18.960938 21.324219 19.121094 21.34375 C 19.609375 21.40625 20.101562 21.46875 20.59375 21.53125 C 21.121094 21.59375 21.65625 21.660156 22.1875 21.71875 C 22.773438 21.785156 23.363281 21.847656 23.953125 21.910156 C 24.417969 21.960938 24.882812 22.007812 25.34375 22.054688 C 25.363281 22.058594 25.378906 22.0625 25.394531 22.0625 C 25.378906 22.078125 25.359375 22.085938 25.339844 22.089844 C 25.140625 22.117188 24.941406 22.148438 24.742188 22.160156 C 24.109375 22.207031 23.480469 22.257812 22.847656 22.289062 C 22.285156 22.316406 21.71875 22.320312 21.15625 22.335938 C 21.121094 22.335938 21.085938 22.339844 21.050781 22.34375 C 21.039062 22.34375 21.027344 22.359375 21.011719 22.367188 C 21.027344 22.375 21.039062 22.386719 21.050781 22.386719 C 21.207031 22.402344 21.363281 22.410156 21.515625 22.429688 C 21.996094 22.480469 22.476562 22.527344 22.957031 22.589844 C 23.503906 22.664062 24.046875 22.757812 24.59375 22.839844 C 25.265625 22.941406 25.9375 23.039062 26.609375 23.140625 C 26.675781 23.148438 26.746094 23.160156 26.8125 23.171875 C 26.742188 23.191406 26.671875 23.203125 26.601562 23.214844 C 26.003906 23.25 25.410156 23.296875 24.808594 23.324219 C 24.023438 23.359375 23.234375 23.378906 22.445312 23.410156 C 22.277344 23.414062 22.109375 23.425781 21.945312 23.4375 C 21.925781 23.441406 21.902344 23.445312 21.882812 23.449219 C 21.90625 23.453125 21.929688 23.457031 21.949219 23.460938 C 22.359375 23.476562 22.769531 23.492188 23.175781 23.507812 C 24.035156 23.550781 24.890625 23.59375 25.746094 23.632812 C 26.5 23.667969 27.253906 23.699219 28.007812 23.726562 C 28.09375 23.726562 28.179688 23.722656 28.265625 23.707031 C 28.300781 23.699219 28.332031 23.667969 28.363281 23.648438 C 28.34375 23.621094 28.324219 23.59375 28.300781 23.570312 C 28.238281 23.523438 28.167969 23.476562 28.101562 23.433594 C 27.980469 23.347656 27.980469 23.347656 28.117188 23.277344 C 28.238281 23.21875 28.253906 23.144531 28.152344 23.054688 C 28.078125 23 28 22.953125 27.914062 22.917969 C 27.773438 22.855469 27.625 22.804688 27.484375 22.742188 C 27.453125 22.726562 27.433594 22.6875 27.410156 22.660156 C 27.433594 22.636719 27.460938 22.617188 27.492188 22.601562 C 27.628906 22.546875 27.773438 22.503906 27.90625 22.4375 C 28.046875 22.371094 28.054688 22.285156 27.933594 22.191406 C 27.847656 22.128906 27.761719 22.074219 27.667969 22.027344 C 27.476562 21.914062 27.472656 21.859375 27.632812 21.710938 C 27.796875 21.5625 27.789062 21.425781 27.597656 21.316406 C 27.5 21.265625 27.398438 21.222656 27.296875 21.1875 C 27.214844 21.15625 27.136719 21.125 27.058594 21.085938 C 27.015625 21.0625 27.019531 21.035156 27.066406 21.015625 C 27.148438 20.984375 27.226562 20.949219 27.300781 20.90625 C 27.417969 20.832031 27.4375 20.753906 27.378906 20.628906 C 27.308594 20.476562 27.1875 20.398438 27.023438 20.386719 C 26.9375 20.378906 27.015625 20.355469 27.011719 20.339844 C 27 20.304688 26.988281 20.273438 26.976562 20.242188 C 26.90625 20.082031 26.765625 20.003906 26.609375 19.949219 C 26.527344 19.921875 26.445312 19.898438 26.367188 19.867188 C 26.292969 19.835938 26.292969 19.8125 26.347656 19.757812 C 26.445312 19.660156 26.449219 19.609375 26.339844 19.523438 C 26.269531 19.472656 26.195312 19.429688 26.113281 19.398438 C 26.042969 19.363281 25.960938 19.34375 25.890625 19.3125 C 25.863281 19.296875 25.84375 19.265625 25.820312 19.246094 C 25.84375 19.222656 25.871094 19.203125 25.898438 19.183594 C 25.933594 19.167969 25.972656 19.152344 26.011719 19.148438 C 26.226562 19.101562 26.441406 19.070312 26.65625 19.046875 C 27.265625 19.011719 27.878906 18.992188 28.488281 18.96875 C 28.792969 18.957031 29.097656 18.945312 29.402344 18.929688 C 29.441406 18.925781 29.476562 18.921875 29.515625 18.914062 C 29.476562 18.898438 29.433594 18.886719 29.390625 18.878906 Z M 17.625 11.609375 C 17.964844 11.375 18.308594 11.140625 18.652344 10.914062 C 18.769531 10.832031 18.78125 10.835938 18.839844 10.964844 C 18.875 11.042969 18.902344 11.125 18.929688 11.210938 C 18.898438 11.316406 18.886719 11.414062 18.84375 11.488281 C 18.703125 11.730469 18.554688 11.972656 18.394531 12.203125 C 18.308594 12.328125 18.261719 12.324219 18.148438 12.21875 C 18.109375 12.175781 18.070312 12.136719 18.023438 12.097656 C 17.96875 12.050781 17.902344 12.019531 17.832031 12.003906 C 17.730469 11.996094 17.648438 11.949219 17.589844 11.863281 C 17.46875 11.714844 17.460938 11.71875 17.625 11.609375 Z M 12.359375 13.507812 C 12.351562 13.507812 12.339844 13.507812 12.300781 13.507812 C 12.152344 13.492188 11.972656 13.472656 11.796875 13.449219 C 11.777344 13.445312 11.761719 13.4375 11.742188 13.425781 C 11.75 13.410156 11.761719 13.394531 11.773438 13.382812 C 11.800781 13.355469 11.832031 13.332031 11.863281 13.304688 C 11.902344 13.273438 11.941406 13.238281 11.976562 13.207031 C 12.003906 13.246094 12.03125 13.28125 12.050781 13.320312 C 12.117188 13.445312 12.246094 13.445312 12.359375 13.476562 C 12.386719 13.484375 12.414062 13.488281 12.441406 13.496094 C 12.414062 13.5 12.386719 13.503906 12.359375 13.507812 Z M 17.503906 16.214844 C 17.519531 16.210938 17.539062 16.210938 17.554688 16.207031 C 18.425781 16.050781 19.296875 15.894531 20.167969 15.734375 C 21.414062 15.503906 22.652344 15.242188 23.882812 14.949219 C 24.46875 14.8125 25.058594 14.675781 25.648438 14.542969 C 25.65625 14.539062 25.667969 14.535156 25.679688 14.53125 C 25.707031 14.53125 25.734375 14.53125 25.757812 14.535156 C 25.734375 14.546875 25.710938 14.5625 25.683594 14.574219 C 25.65625 14.585938 25.628906 14.59375 25.601562 14.601562 C 24.347656 15.019531 23.070312 15.359375 21.769531 15.617188 C 21.082031 15.757812 20.390625 15.886719 19.699219 15.992188 C 19.078125 16.085938 18.453125 16.140625 17.832031 16.214844 C 17.75 16.222656 17.671875 16.234375 17.589844 16.246094 C 17.589844 16.242188 17.589844 16.242188 17.589844 16.238281 C 17.5625 16.238281 17.535156 16.238281 17.503906 16.238281 C 17.5 16.238281 17.496094 16.234375 17.488281 16.234375 C 17.496094 16.226562 17.5 16.21875 17.503906 16.214844 Z M 15.070312 18.761719 C 15.496094 18.746094 15.921875 18.726562 16.347656 18.726562 C 16.652344 18.726562 16.957031 18.75 17.261719 18.765625 C 17.28125 18.769531 17.296875 18.777344 17.3125 18.785156 C 17.296875 18.789062 17.28125 18.792969 17.261719 18.796875 C 16.832031 18.8125 16.398438 18.832031 16.113281 18.84375 C 15.667969 18.824219 15.371094 18.808594 15.070312 18.792969 C 15.046875 18.789062 15.027344 18.785156 15.003906 18.78125 C 15.027344 18.769531 15.046875 18.765625 15.070312 18.761719 Z M 11.804688 15.621094 C 11.828125 15.574219 11.855469 15.535156 11.890625 15.5 C 12.058594 15.371094 12.230469 15.246094 12.402344 15.121094 C 12.453125 15.082031 12.480469 15.078125 12.484375 15.152344 C 12.488281 15.203125 12.496094 15.257812 12.5 15.308594 C 12.507812 15.367188 12.484375 15.40625 12.414062 15.40625 C 12.394531 15.410156 12.371094 15.410156 12.347656 15.410156 C 12.164062 15.386719 12.027344 15.472656 11.90625 15.597656 C 11.890625 15.617188 11.867188 15.636719 11.847656 15.65625 C 11.835938 15.664062 11.820312 15.664062 11.804688 15.667969 C 11.804688 15.652344 11.796875 15.632812 11.804688 15.621094 Z M 10.699219 17.554688 C 10.546875 17.546875 10.488281 17.648438 10.417969 17.742188 C 10.414062 17.746094 10.4375 17.789062 10.457031 17.792969 C 10.6875 17.828125 10.921875 17.867188 11.152344 17.902344 C 11.175781 17.90625 11.199219 17.90625 11.222656 17.910156 C 11.230469 17.910156 11.242188 17.925781 11.242188 17.929688 C 11.238281 17.9375 11.230469 17.949219 11.222656 17.953125 C 11.183594 17.960938 11.140625 17.964844 11.101562 17.96875 C 10.632812 17.992188 10.160156 18.015625 9.6875 18.027344 C 9.488281 18.035156 9.285156 18.011719 9.085938 18 C 9.066406 17.996094 9.046875 17.992188 9.027344 17.988281 C 9.046875 17.976562 9.070312 17.972656 9.089844 17.964844 C 9.195312 17.957031 9.296875 17.945312 9.398438 17.933594 C 9.527344 17.929688 9.652344 17.914062 9.777344 17.894531 C 9.855469 17.878906 9.925781 17.847656 9.988281 17.792969 C 10.304688 17.5 10.609375 17.199219 10.921875 16.898438 C 10.96875 16.855469 11.011719 16.808594 11.054688 16.765625 C 11.066406 16.757812 11.082031 16.75 11.097656 16.746094 C 11.09375 16.761719 11.089844 16.777344 11.085938 16.789062 C 11.003906 16.917969 10.917969 17.039062 10.835938 17.164062 C 10.804688 17.210938 10.796875 17.242188 10.871094 17.25 C 11.230469 17.292969 11.589844 17.34375 11.949219 17.382812 C 12.246094 17.417969 12.546875 17.4375 12.84375 17.460938 C 12.871094 17.464844 12.902344 17.46875 12.929688 17.476562 C 12.9375 17.476562 12.945312 17.484375 12.957031 17.492188 C 12.945312 17.5 12.933594 17.507812 12.921875 17.511719 C 12.898438 17.515625 12.878906 17.515625 12.855469 17.515625 C 12.40625 17.535156 11.957031 17.554688 11.507812 17.574219 C 11.507812 17.566406 11.507812 17.5625 11.507812 17.558594 C 11.238281 17.554688 10.96875 17.566406 10.699219 17.554688 Z M 20.320312 19.246094 C 20.089844 19.269531 19.863281 19.296875 19.632812 19.3125 C 18.996094 19.351562 18.355469 19.378906 17.71875 19.425781 C 16.824219 19.496094 15.925781 19.457031 15.027344 19.445312 C 14.429688 19.441406 13.828125 19.433594 13.230469 19.425781 C 12.777344 19.421875 12.324219 19.453125 11.871094 19.515625 C 11.410156 19.578125 10.945312 19.609375 10.476562 19.605469 C 10.160156 19.597656 9.84375 19.601562 9.527344 19.605469 C 9.511719 19.605469 9.492188 19.613281 9.476562 19.621094 C 9.492188 19.632812 9.507812 19.640625 9.523438 19.644531 C 9.71875 19.683594 9.917969 19.710938 10.113281 19.753906 C 10.496094 19.839844 10.875 19.933594 11.257812 20.019531 C 11.328125 20.035156 11.402344 20.046875 11.472656 20.0625 C 11.390625 20.078125 11.3125 20.097656 11.226562 20.105469 C 11.027344 20.121094 10.828125 20.128906 10.628906 20.152344 C 10.558594 20.160156 10.492188 20.183594 10.433594 20.21875 C 10.277344 20.296875 10.246094 20.441406 10.359375 20.574219 C 10.425781 20.644531 10.5 20.707031 10.582031 20.761719 C 10.636719 20.792969 10.691406 20.820312 10.753906 20.839844 C 10.816406 20.871094 10.882812 20.902344 10.949219 20.929688 C 10.875 20.933594 10.800781 20.941406 10.726562 20.941406 C 10.113281 20.941406 9.503906 20.941406 8.894531 20.9375 C 8.714844 20.9375 8.539062 20.921875 8.359375 20.910156 C 8.320312 20.910156 8.28125 20.902344 8.246094 20.878906 C 8.183594 20.824219 8.085938 20.773438 8.109375 20.679688 C 8.121094 20.640625 8.234375 20.613281 8.300781 20.605469 C 8.46875 20.589844 8.636719 20.59375 8.800781 20.585938 C 8.816406 20.585938 8.832031 20.582031 8.84375 20.574219 C 8.828125 20.5625 8.816406 20.546875 8.804688 20.546875 C 8.609375 20.515625 8.417969 20.488281 8.222656 20.464844 C 7.886719 20.425781 7.546875 20.390625 7.210938 20.355469 C 7.195312 20.351562 7.175781 20.34375 7.160156 20.335938 C 7.175781 20.328125 7.191406 20.320312 7.207031 20.3125 C 7.378906 20.269531 7.550781 20.226562 7.722656 20.179688 C 7.945312 20.117188 8.164062 20.050781 8.382812 19.980469 C 8.425781 19.960938 8.460938 19.9375 8.496094 19.910156 C 8.464844 19.875 8.425781 19.839844 8.386719 19.808594 C 8.320312 19.769531 8.242188 19.746094 8.171875 19.707031 C 8.140625 19.6875 8.121094 19.652344 8.097656 19.621094 C 8.125 19.597656 8.15625 19.574219 8.191406 19.558594 C 8.265625 19.542969 8.339844 19.535156 8.414062 19.53125 C 8.863281 19.503906 9.308594 19.484375 9.757812 19.453125 C 9.929688 19.441406 10.097656 19.40625 10.269531 19.382812 C 10.28125 19.382812 10.292969 19.378906 10.304688 19.375 C 10.292969 19.363281 10.28125 19.347656 10.265625 19.34375 C 10.222656 19.335938 10.175781 19.328125 10.132812 19.324219 C 9.574219 19.289062 9.015625 19.25 8.460938 19.210938 C 8.4375 19.214844 8.414062 19.210938 8.390625 19.207031 C 8.371094 19.199219 8.355469 19.1875 8.339844 19.171875 C 8.355469 19.160156 8.375 19.148438 8.394531 19.140625 C 8.566406 19.09375 8.738281 19.050781 8.910156 19.007812 C 8.960938 18.996094 9.011719 18.984375 9.058594 18.964844 C 9.089844 18.953125 9.136719 18.917969 9.132812 18.90625 C 9.125 18.871094 9.101562 18.839844 9.070312 18.820312 C 8.902344 18.730469 8.714844 18.722656 8.535156 18.699219 C 8.414062 18.683594 8.296875 18.671875 8.175781 18.660156 C 8.160156 18.65625 8.140625 18.652344 8.125 18.644531 C 8.140625 18.640625 8.160156 18.636719 8.175781 18.632812 C 8.867188 18.539062 9.558594 18.492188 10.257812 18.574219 C 10.371094 18.585938 10.484375 18.585938 10.601562 18.59375 L 12.964844 18.722656 C 13.066406 18.726562 13.167969 18.734375 13.273438 18.738281 C 13.296875 18.742188 13.316406 18.746094 13.339844 18.75 C 13.320312 18.757812 13.300781 18.765625 13.277344 18.769531 C 13.023438 18.792969 12.773438 18.820312 12.519531 18.832031 C 11.949219 18.863281 11.382812 18.882812 10.8125 18.910156 C 10.789062 18.910156 10.765625 18.914062 10.742188 18.914062 C 10.726562 18.914062 10.710938 18.917969 10.691406 18.921875 C 10.710938 18.925781 10.726562 18.929688 10.746094 18.929688 C 11.082031 18.957031 11.421875 18.980469 11.761719 19.003906 C 12.78125 19.074219 13.808594 19.105469 14.832031 19.117188 C 15.1875 19.121094 15.546875 19.144531 15.902344 19.140625 C 16.433594 19.136719 16.960938 19.109375 17.492188 19.113281 C 18.050781 19.117188 18.605469 19.148438 19.164062 19.171875 C 19.550781 19.1875 19.933594 19.207031 20.320312 19.222656 C 20.34375 19.226562 20.367188 19.230469 20.386719 19.230469 C 20.367188 19.238281 20.34375 19.242188 20.320312 19.246094 Z M 20.320312 19.246094 " fill-opacity="1" fill-rule="nonzero"/></g><g clip-path="url(#b124a507b1)"><path fill="#da6540" d="M 4.042969 16.835938 C 4.355469 16.851562 4.671875 16.882812 4.988281 16.90625 C 5.003906 16.90625 5.023438 16.910156 5.039062 16.914062 C 5.019531 16.917969 5.003906 16.925781 4.984375 16.925781 C 4.757812 16.941406 4.535156 16.957031 4.3125 16.96875 C 4.042969 16.984375 3.769531 17 3.5 17.015625 C 3.484375 17.019531 3.472656 17.023438 3.457031 17.027344 C 3.46875 17.039062 3.480469 17.050781 3.492188 17.058594 C 3.507812 17.0625 3.527344 17.066406 3.542969 17.066406 C 4.175781 17.101562 4.808594 17.136719 5.441406 17.171875 C 6.0625 17.210938 6.683594 17.171875 7.304688 17.160156 C 7.433594 17.152344 7.546875 17.105469 7.648438 17.019531 C 7.660156 17.011719 7.664062 16.992188 7.671875 16.980469 C 7.65625 16.972656 7.640625 16.96875 7.621094 16.96875 C 7.46875 16.957031 7.3125 16.949219 7.15625 16.9375 C 6.910156 16.914062 6.664062 16.886719 6.417969 16.859375 C 6.402344 16.859375 6.386719 16.855469 6.367188 16.851562 C 6.386719 16.84375 6.402344 16.839844 6.421875 16.835938 C 6.5625 16.828125 6.707031 16.816406 6.851562 16.804688 C 7.195312 16.78125 7.539062 16.75 7.882812 16.730469 C 7.976562 16.726562 8.0625 16.699219 8.136719 16.644531 C 8.839844 16.152344 9.570312 15.703125 10.363281 15.367188 C 10.4375 15.335938 10.515625 15.308594 10.589844 15.28125 C 10.601562 15.277344 10.609375 15.261719 10.617188 15.25 C 10.609375 15.242188 10.601562 15.234375 10.589844 15.230469 C 10.542969 15.222656 10.5 15.214844 10.453125 15.207031 C 10.128906 15.171875 9.800781 15.136719 9.476562 15.09375 C 8.597656 14.980469 7.726562 14.820312 6.863281 14.617188 C 6.726562 14.582031 6.585938 14.546875 6.445312 14.511719 C 6.429688 14.507812 6.414062 14.5 6.398438 14.496094 C 6.414062 14.488281 6.429688 14.488281 6.449219 14.484375 C 6.503906 14.484375 6.5625 14.480469 6.621094 14.484375 C 7.476562 14.519531 8.335938 14.554688 9.191406 14.59375 C 9.472656 14.605469 9.757812 14.609375 10.035156 14.636719 C 10.625 14.691406 11.214844 14.757812 11.804688 14.820312 C 11.878906 14.832031 11.941406 14.816406 11.996094 14.769531 C 12.085938 14.6875 12.183594 14.617188 12.277344 14.539062 C 12.292969 14.527344 12.308594 14.507812 12.320312 14.492188 C 12.300781 14.484375 12.277344 14.484375 12.253906 14.484375 C 12.023438 14.523438 11.792969 14.574219 11.558594 14.601562 C 11.203125 14.648438 10.855469 14.625 10.515625 14.527344 C 10.359375 14.488281 10.261719 14.390625 10.226562 14.234375 C 10.210938 14.167969 10.199219 14.097656 10.195312 14.03125 C 10.1875 13.828125 10.21875 13.628906 10.285156 13.4375 C 10.335938 13.277344 10.285156 13.203125 10.117188 13.207031 C 10.007812 13.214844 9.902344 13.230469 9.796875 13.253906 C 9.746094 13.257812 9.675781 13.277344 9.648438 13.253906 C 9.503906 13.121094 9.335938 13.15625 9.171875 13.183594 C 8.953125 13.226562 8.734375 13.277344 8.515625 13.324219 C 8.484375 13.332031 8.449219 13.34375 8.4375 13.289062 C 8.394531 13.113281 8.347656 12.933594 8.308594 12.753906 C 8.265625 12.542969 8.304688 12.34375 8.484375 12.210938 C 8.605469 12.125 8.613281 12.023438 8.617188 11.902344 C 8.617188 11.734375 8.625 11.566406 8.628906 11.398438 C 8.628906 11.351562 8.640625 11.308594 8.691406 11.363281 C 8.796875 11.476562 8.925781 11.523438 9.082031 11.5 C 9.144531 11.5 9.207031 11.511719 9.265625 11.53125 C 9.515625 11.589844 9.765625 11.605469 10.019531 11.578125 C 10.210938 11.558594 10.300781 11.46875 10.308594 11.316406 C 10.316406 11.183594 10.335938 11.050781 10.335938 10.917969 C 10.339844 10.644531 10.253906 10.386719 10.183594 10.125 C 10.117188 9.902344 10.132812 9.683594 10.226562 9.46875 C 10.285156 9.355469 10.3125 9.234375 10.3125 9.105469 C 10.304688 9.015625 10.332031 8.941406 10.394531 8.878906 C 10.679688 8.558594 10.96875 8.246094 11.238281 7.917969 C 11.445312 7.679688 11.667969 7.449219 11.902344 7.234375 C 11.960938 7.183594 12.03125 7.140625 12.101562 7.105469 C 12.175781 7.070312 12.25 7.042969 12.328125 7.019531 C 12.617188 6.914062 12.882812 6.765625 13.117188 6.566406 C 13.507812 6.226562 13.84375 5.84375 14.125 5.410156 C 14.222656 5.261719 14.308594 5.105469 14.382812 4.945312 C 14.445312 4.832031 14.441406 4.722656 14.371094 4.613281 C 14.226562 4.382812 14.054688 4.175781 13.847656 4 C 13.71875 3.882812 13.585938 3.871094 13.445312 3.96875 C 13.351562 4.027344 13.265625 4.09375 13.1875 4.167969 C 12.726562 4.613281 12.351562 5.117188 12.0625 5.6875 C 11.898438 5.996094 11.792969 6.324219 11.738281 6.667969 C 11.726562 6.777344 11.691406 6.878906 11.636719 6.972656 C 11.550781 7.101562 11.460938 7.226562 11.359375 7.34375 C 10.949219 7.832031 10.519531 8.304688 10.09375 8.785156 C 10.050781 8.84375 9.992188 8.871094 9.917969 8.871094 C 9.847656 8.867188 9.785156 8.882812 9.722656 8.917969 C 9.628906 8.984375 9.542969 9.058594 9.460938 9.140625 C 9.441406 9.167969 9.429688 9.199219 9.433594 9.234375 C 9.429688 9.285156 9.4375 9.335938 9.449219 9.386719 C 9.472656 9.449219 9.460938 9.5 9.417969 9.542969 C 9.257812 9.730469 9.101562 9.925781 8.941406 10.113281 C 8.847656 10.226562 8.84375 10.230469 8.710938 10.144531 C 8.617188 10.089844 8.527344 10.027344 8.445312 9.957031 C 8.300781 9.8125 8.125 9.757812 7.921875 9.789062 C 7.761719 9.804688 7.757812 9.796875 7.71875 9.636719 C 7.714844 9.621094 7.710938 9.601562 7.710938 9.585938 C 7.691406 9.449219 7.691406 9.449219 7.828125 9.417969 C 7.996094 9.382812 8.027344 9.355469 8.050781 9.183594 C 8.074219 9.042969 8.085938 8.898438 8.089844 8.753906 C 8.089844 8.550781 8.132812 8.390625 8.363281 8.347656 C 8.378906 8.339844 8.394531 8.335938 8.410156 8.324219 C 8.597656 8.230469 8.613281 8.152344 8.460938 8.007812 C 8.414062 7.960938 8.363281 7.929688 8.300781 7.914062 C 8.207031 7.890625 8.097656 7.910156 8.015625 7.871094 C 7.933594 7.828125 7.886719 7.722656 7.804688 7.675781 C 7.492188 7.492188 7.1875 7.5 6.886719 7.707031 C 6.6875 7.832031 6.59375 8.015625 6.605469 8.25 C 6.605469 8.363281 6.625 8.480469 6.628906 8.59375 C 6.632812 8.726562 6.679688 8.839844 6.777344 8.933594 C 6.828125 8.984375 6.855469 9.046875 6.847656 9.121094 C 6.847656 9.183594 6.847656 9.246094 6.84375 9.3125 C 6.832031 9.527344 6.753906 9.59375 6.539062 9.578125 C 6.359375 9.5625 6.183594 9.582031 6.011719 9.644531 C 5.863281 9.703125 5.742188 9.796875 5.703125 9.96875 C 5.695312 10.003906 5.699219 10.039062 5.753906 10.027344 C 5.773438 10.023438 5.796875 10.023438 5.820312 10.023438 C 5.84375 10.027344 5.863281 10.035156 5.886719 10.042969 C 5.871094 10.0625 5.859375 10.089844 5.839844 10.101562 C 5.578125 10.238281 5.433594 10.472656 5.34375 10.738281 C 5.308594 10.859375 5.285156 10.984375 5.265625 11.109375 C 5.257812 11.148438 5.253906 11.203125 5.230469 11.21875 C 5.136719 11.28125 5.117188 11.375 5.085938 11.46875 C 5.078125 11.5 5.0625 11.53125 5.035156 11.550781 C 4.898438 11.628906 4.90625 11.757812 4.941406 11.871094 C 4.984375 11.988281 4.976562 12.105469 4.925781 12.21875 C 4.859375 12.371094 4.84375 12.53125 4.875 12.695312 C 4.894531 12.792969 4.941406 12.886719 5.042969 12.914062 C 5.367188 13 5.695312 13.066406 6.035156 13.019531 C 6.082031 13.015625 6.132812 13.011719 6.179688 13.015625 C 6.175781 13.070312 6.160156 13.125 6.140625 13.175781 C 6.101562 13.246094 6.054688 13.3125 6 13.375 C 5.882812 13.507812 5.753906 13.632812 5.636719 13.765625 C 5.566406 13.84375 5.480469 13.878906 5.378906 13.867188 C 4.75 13.867188 4.125 13.855469 3.503906 13.726562 C 2.875 13.597656 2.242188 13.472656 1.636719 13.25 C 1.566406 13.226562 1.492188 13.207031 1.417969 13.195312 C 1.347656 13.179688 1.304688 13.214844 1.3125 13.289062 C 1.3125 13.351562 1.328125 13.414062 1.351562 13.472656 C 1.5 13.769531 1.644531 14.070312 1.808594 14.359375 C 1.929688 14.570312 2.066406 14.773438 2.304688 14.875 C 2.3125 14.878906 2.316406 14.890625 2.324219 14.902344 C 2.3125 14.910156 2.300781 14.921875 2.289062 14.925781 C 2.261719 14.929688 2.230469 14.933594 2.203125 14.9375 C 1.925781 14.957031 1.652344 14.992188 1.375 15.027344 C 1.109375 15.0625 0.839844 15.078125 0.570312 15.097656 L 0.5625 15.097656 C 0.535156 15.101562 0.511719 15.109375 0.488281 15.121094 C 0.507812 15.125 0.53125 15.128906 0.554688 15.132812 C 1.164062 15.15625 1.773438 15.183594 2.382812 15.210938 C 2.417969 15.210938 2.453125 15.210938 2.488281 15.214844 C 2.5 15.214844 2.507812 15.222656 2.519531 15.226562 C 2.511719 15.234375 2.5 15.238281 2.488281 15.238281 C 2.402344 15.253906 2.320312 15.269531 2.234375 15.273438 C 1.871094 15.300781 1.507812 15.320312 1.148438 15.34375 C 1.136719 15.34375 1.125 15.347656 1.113281 15.347656 C 1.101562 15.351562 1.085938 15.359375 1.074219 15.363281 C 1.085938 15.367188 1.09375 15.371094 1.105469 15.371094 C 1.128906 15.375 1.152344 15.378906 1.175781 15.378906 C 1.746094 15.414062 2.3125 15.441406 2.882812 15.480469 C 3.035156 15.492188 3.160156 15.445312 3.265625 15.332031 C 3.570312 15.027344 3.871094 14.714844 4.226562 14.46875 C 4.242188 14.457031 4.253906 14.445312 4.261719 14.429688 C 4.246094 14.417969 4.230469 14.40625 4.210938 14.394531 C 4.191406 14.382812 4.167969 14.382812 4.144531 14.375 C 3.597656 14.152344 3.046875 13.933594 2.496094 13.710938 C 2.472656 13.695312 2.445312 13.679688 2.421875 13.660156 C 2.449219 13.65625 2.476562 13.652344 2.507812 13.65625 C 2.789062 13.703125 3.070312 13.761719 3.355469 13.800781 C 3.800781 13.863281 4.242188 13.933594 4.695312 13.9375 C 4.902344 13.941406 5.109375 13.953125 5.316406 13.964844 C 5.332031 13.964844 5.347656 13.988281 5.363281 14 C 5.347656 14.007812 5.335938 14.019531 5.320312 14.023438 C 5.042969 14.074219 4.824219 14.230469 4.605469 14.390625 C 4.144531 14.726562 3.71875 15.105469 3.332031 15.527344 C 3.222656 15.644531 3.113281 15.765625 3.007812 15.886719 C 2.992188 15.90625 2.980469 15.933594 2.972656 15.957031 C 2.992188 15.960938 3.015625 15.964844 3.039062 15.96875 C 3.042969 15.96875 3.050781 15.96875 3.054688 15.96875 C 3.777344 16.003906 4.503906 16.039062 5.226562 16.074219 C 5.28125 16.078125 5.332031 16.085938 5.382812 16.097656 C 5.398438 16.101562 5.410156 16.109375 5.421875 16.121094 C 5.40625 16.125 5.390625 16.128906 5.375 16.128906 C 5.339844 16.132812 5.304688 16.132812 5.269531 16.136719 C 4.503906 16.167969 3.738281 16.191406 2.910156 16.144531 C 2.21875 16.144531 1.464844 16.144531 0.710938 16.144531 C 0.664062 16.144531 0.621094 16.148438 0.574219 16.152344 C 0.558594 16.152344 0.542969 16.15625 0.527344 16.15625 C 0.542969 16.160156 0.558594 16.160156 0.578125 16.164062 C 1.101562 16.199219 1.621094 16.234375 2.144531 16.277344 C 2.515625 16.308594 2.890625 16.347656 3.257812 16.398438 C 3.597656 16.449219 3.9375 16.523438 4.273438 16.589844 C 4.292969 16.59375 4.308594 16.597656 4.324219 16.605469 C 4.304688 16.613281 4.28125 16.617188 4.261719 16.621094 C 4.042969 16.632812 3.824219 16.644531 3.605469 16.660156 C 3.285156 16.683594 2.964844 16.707031 2.644531 16.734375 C 2.628906 16.734375 2.613281 16.738281 2.597656 16.746094 C 2.613281 16.75 2.628906 16.757812 2.644531 16.761719 C 2.738281 16.773438 2.828125 16.785156 2.917969 16.789062 C 3.292969 16.808594 3.667969 16.816406 4.042969 16.835938 Z M 9.117188 10.355469 C 9.261719 10.179688 9.410156 10.011719 9.558594 9.84375 C 9.605469 9.792969 9.648438 9.796875 9.671875 9.871094 C 9.703125 9.960938 9.726562 10.046875 9.742188 10.140625 C 9.71875 10.316406 9.695312 10.457031 9.679688 10.597656 C 9.675781 10.667969 9.640625 10.683594 9.578125 10.679688 C 9.496094 10.675781 9.421875 10.679688 9.378906 10.582031 C 9.34375 10.496094 9.246094 10.507812 9.171875 10.480469 C 9.078125 10.445312 9.058594 10.425781 9.117188 10.355469 Z M 6.058594 12.46875 C 5.996094 12.441406 5.933594 12.414062 5.871094 12.386719 C 5.769531 12.339844 5.753906 12.289062 5.824219 12.207031 C 5.835938 12.199219 5.84375 12.191406 5.855469 12.1875 C 5.859375 12.191406 5.871094 12.199219 5.871094 12.207031 C 5.90625 12.316406 6.007812 12.359375 6.085938 12.425781 C 6.097656 12.4375 6.101562 12.449219 6.109375 12.464844 C 6.09375 12.46875 6.078125 12.46875 6.058594 12.46875 Z M 5.699219 14.1875 C 5.761719 14.113281 5.824219 14.039062 5.890625 13.96875 C 5.90625 13.945312 5.925781 13.941406 5.953125 13.949219 C 5.976562 13.957031 5.988281 13.972656 5.988281 14 C 5.996094 14.03125 5.992188 14.066406 5.976562 14.097656 C 5.902344 14.234375 5.824219 14.367188 5.746094 14.5 C 5.742188 14.507812 5.730469 14.515625 5.722656 14.523438 C 5.714844 14.511719 5.707031 14.5 5.703125 14.484375 C 5.691406 14.417969 5.679688 14.351562 5.667969 14.273438 C 5.675781 14.242188 5.683594 14.214844 5.699219 14.1875 Z M 4.769531 16.441406 C 4.886719 16.441406 5 16.441406 5.113281 16.441406 C 5.695312 16.441406 6.273438 16.484375 6.855469 16.523438 C 6.917969 16.53125 6.980469 16.539062 7.039062 16.554688 C 7.054688 16.558594 7.070312 16.566406 7.082031 16.574219 C 7.0625 16.578125 7.039062 16.582031 7.015625 16.585938 C 6.585938 16.582031 6.152344 16.59375 5.722656 16.574219 C 5.402344 16.5625 5.082031 16.515625 4.761719 16.480469 C 4.730469 16.476562 4.703125 16.46875 4.671875 16.460938 C 4.703125 16.449219 4.738281 16.445312 4.769531 16.441406 Z M 4.769531 16.441406 " fill-opacity="1" fill-rule="nonzero"/></g><path fill="#da6540" d="M 4.914062 17.601562 C 4.589844 17.609375 4.269531 17.640625 3.949219 17.660156 C 3.925781 17.664062 3.902344 17.667969 3.882812 17.671875 C 3.90625 17.679688 3.929688 17.683594 3.957031 17.6875 C 4.207031 17.699219 4.460938 17.714844 4.714844 17.726562 C 5.167969 17.753906 5.621094 17.773438 6.070312 17.667969 C 6.121094 17.65625 6.171875 17.644531 6.21875 17.628906 C 6.164062 17.613281 6.109375 17.605469 6.054688 17.597656 C 5.671875 17.597656 5.292969 17.589844 4.914062 17.601562 Z M 4.914062 17.601562 " fill-opacity="1" fill-rule="nonzero"/><path fill="#da6540" d="M 3.015625 15.585938 C 3.023438 15.578125 3.027344 15.558594 3.027344 15.554688 C 3.015625 15.542969 3.003906 15.539062 2.988281 15.535156 C 2.71875 15.554688 2.449219 15.574219 2.179688 15.597656 C 2.09375 15.605469 2.007812 15.621094 1.921875 15.636719 C 1.902344 15.640625 1.886719 15.660156 1.871094 15.671875 C 1.886719 15.675781 1.902344 15.679688 1.921875 15.679688 C 2.183594 15.703125 2.449219 15.726562 2.726562 15.75 C 2.851562 15.765625 2.9375 15.679688 3.015625 15.585938 Z M 3.015625 15.585938 " fill-opacity="1" fill-rule="nonzero"/><path fill="#da6540" d="M 6.765625 17.453125 C 6.832031 17.453125 6.902344 17.457031 6.96875 17.453125 C 7.015625 17.449219 7.0625 17.441406 7.105469 17.433594 C 7.117188 17.429688 7.140625 17.402344 7.136719 17.398438 C 7.125 17.378906 7.113281 17.367188 7.09375 17.355469 C 7.089844 17.351562 7.082031 17.351562 7.078125 17.351562 C 6.679688 17.289062 6.277344 17.332031 5.878906 17.359375 C 5.867188 17.359375 5.859375 17.371094 5.847656 17.378906 C 5.855469 17.382812 5.863281 17.394531 5.875 17.394531 C 5.90625 17.402344 5.941406 17.40625 5.976562 17.410156 C 6.238281 17.421875 6.5 17.4375 6.765625 17.449219 Z M 6.765625 17.453125 " fill-opacity="1" fill-rule="nonzero"/><path fill="#da6540" d="M 1.722656 15.9375 C 1.742188 15.945312 1.761719 15.953125 1.785156 15.957031 C 2.058594 15.957031 2.335938 15.972656 2.613281 15.96875 C 2.65625 15.96875 2.71875 15.96875 2.71875 15.910156 C 2.722656 15.835938 2.652344 15.867188 2.617188 15.867188 C 2.335938 15.878906 2.054688 15.894531 1.773438 15.910156 C 1.753906 15.910156 1.738281 15.925781 1.722656 15.9375 Z M 1.722656 15.9375 " fill-opacity="1" fill-rule="nonzero"/></svg>