<svg xmlns="http://www.w3.org/2000/svg" xmlns:xlink="http://www.w3.org/1999/xlink" width="40" zoomAndPan="magnify" viewBox="0 0 30 30.000001" height="40" preserveAspectRatio="xMidYMid meet" version="1.0"><defs><clipPath id="a36072b7bd"><path d="M 0.484375 6.386719 L 29.515625 6.386719 L 29.515625 22.355469 L 0.484375 22.355469 Z M 0.484375 6.386719 " clip-rule="nonzero"/></clipPath></defs><g clip-path="url(#a36072b7bd)"><path fill="#da6540" d="M 3.085938 6.363281 C 3.078125 6.363281 3.070312 6.367188 3.0625 6.375 L -1.464844 11 C -1.472656 11.007812 -1.476562 11.023438 -1.46875 11.039062 L -1.230469 11.597656 C -1.222656 11.613281 -1.203125 11.625 -1.1875 11.617188 C -1.179688 11.613281 -1.175781 11.609375 -1.171875 11.605469 L 3.003906 7.335938 C 3.027344 7.3125 3.058594 7.300781 3.085938 7.300781 L 3.09375 7.300781 C 3.125 7.300781 3.152344 7.3125 3.175781 7.335938 L 7.351562 11.605469 C 7.363281 11.621094 7.386719 11.621094 7.398438 11.605469 C 7.402344 11.605469 7.40625 11.597656 7.410156 11.59375 L 7.648438 11.035156 C 7.652344 11.023438 7.652344 11.007812 7.640625 10.996094 L 3.113281 6.371094 C 3.109375 6.367188 3.097656 6.363281 3.085938 6.363281 Z M 1.023438 6.882812 L 0.0859375 6.886719 C 0.0664062 6.886719 0.0507812 6.898438 0.0507812 6.917969 L 0.0507812 9.027344 C 0.0507812 9.046875 0.0664062 9.0625 0.0859375 9.0625 C 0.09375 9.0625 0.105469 9.058594 0.109375 9.050781 L 1.046875 8.09375 C 1.054688 8.085938 1.058594 8.078125 1.058594 8.066406 C 1.058594 8.066406 1.058594 8.066406 1.058594 8.0625 L 1.058594 6.917969 C 1.058594 6.898438 1.042969 6.882812 1.023438 6.882812 Z M 3.085938 7.609375 C 3.078125 7.609375 3.070312 7.613281 3.066406 7.621094 L 0.0117188 10.738281 C 0.0078125 10.746094 0.00390625 10.753906 0.00390625 10.761719 L 0.00390625 22.308594 C 0.00390625 22.328125 0.0195312 22.34375 0.0390625 22.34375 L 6.621094 22.34375 C 6.640625 22.34375 6.65625 22.328125 6.65625 22.308594 L 6.65625 11.253906 C 6.65625 11.246094 6.652344 11.234375 6.644531 11.230469 L 3.113281 7.621094 C 3.109375 7.613281 3.097656 7.609375 3.085938 7.609375 Z M 6.640625 9.546875 C 6.621094 9.546875 6.605469 9.558594 6.601562 9.578125 C 6.601562 9.589844 6.605469 9.601562 6.613281 9.605469 L 7.882812 10.90625 C 7.921875 10.941406 7.929688 10.992188 7.910156 11.035156 L 7.910156 11.039062 L 7.90625 11.039062 L 7.539062 11.902344 C 7.511719 11.964844 7.445312 11.992188 7.382812 11.964844 C 7.367188 11.960938 7.355469 11.953125 7.34375 11.941406 L 6.957031 11.546875 C 6.945312 11.53125 6.921875 11.53125 6.90625 11.542969 C 6.898438 11.550781 6.894531 11.558594 6.894531 11.570312 L 6.894531 12.523438 C 6.894531 12.542969 6.910156 12.558594 6.929688 12.558594 L 8.746094 12.558594 C 8.761719 12.558594 8.773438 12.546875 8.777344 12.53125 L 8.925781 11.921875 C 8.933594 11.90625 8.921875 11.886719 8.902344 11.878906 C 8.898438 11.878906 8.894531 11.878906 8.894531 11.878906 L 8.878906 11.878906 C 8.8125 11.878906 8.757812 11.828125 8.757812 11.757812 C 8.757812 11.691406 8.8125 11.640625 8.878906 11.640625 L 13.472656 11.640625 C 13.542969 11.640625 13.59375 11.691406 13.59375 11.757812 C 13.59375 11.828125 13.542969 11.878906 13.472656 11.878906 L 13.378906 11.878906 C 13.359375 11.878906 13.347656 11.894531 13.347656 11.914062 C 13.347656 11.917969 13.347656 11.921875 13.347656 11.921875 L 13.496094 12.53125 C 13.5 12.546875 13.511719 12.558594 13.527344 12.558594 L 15.269531 12.558594 C 15.289062 12.558594 15.304688 12.542969 15.304688 12.523438 C 15.304688 12.523438 15.304688 12.519531 15.304688 12.515625 L 14.328125 9.570312 C 14.324219 9.554688 14.308594 9.546875 14.292969 9.546875 Z M 19.273438 11.347656 C 19.261719 11.347656 19.246094 11.355469 19.234375 11.363281 L 19.25 11.351562 C 19.238281 11.351562 19.226562 11.359375 19.21875 11.367188 L 19.113281 11.476562 L 15.332031 15.464844 L 15.332031 15.707031 C 15.324219 15.703125 15.316406 15.699219 15.308594 15.699219 L 7.683594 15.699219 C 7.671875 15.699219 7.664062 15.703125 7.660156 15.710938 L 7.167969 16.277344 C 7.152344 16.292969 7.15625 16.3125 7.167969 16.324219 C 7.175781 16.332031 7.183594 16.335938 7.191406 16.335938 L 15.308594 16.335938 C 15.316406 16.335938 15.328125 16.332031 15.335938 16.324219 L 15.335938 16.585938 C 15.328125 16.578125 15.320312 16.574219 15.308594 16.574219 L 6.929688 16.574219 C 6.910156 16.574219 6.894531 16.589844 6.894531 16.609375 L 6.894531 22.304688 C 6.894531 22.324219 6.910156 22.339844 6.929688 22.339844 L 7.902344 22.339844 C 7.921875 22.339844 7.9375 22.324219 7.9375 22.304688 L 7.9375 17.585938 C 7.9375 17.519531 7.988281 17.464844 8.054688 17.464844 L 14.230469 17.464844 C 14.296875 17.464844 14.347656 17.519531 14.347656 17.585938 L 14.347656 22.304688 C 14.347656 22.324219 14.363281 22.339844 14.382812 22.339844 L 15.308594 22.339844 C 15.320312 22.339844 15.328125 22.335938 15.332031 22.328125 L 15.332031 22.339844 L 23.203125 22.339844 L 23.203125 15.453125 L 19.429688 11.476562 L 19.328125 11.367188 C 19.320312 11.359375 19.3125 11.351562 19.300781 11.351562 L 19.316406 11.367188 C 19.304688 11.355469 19.292969 11.347656 19.273438 11.347656 Z M 1.882812 11.40625 L 4.761719 11.40625 C 4.828125 11.40625 4.878906 11.460938 4.878906 11.527344 L 4.878906 13.578125 C 4.878906 13.644531 4.828125 13.699219 4.761719 13.699219 L 1.882812 13.699219 C 1.816406 13.699219 1.765625 13.644531 1.765625 13.578125 L 1.765625 11.527344 C 1.765625 11.460938 1.816406 11.40625 1.882812 11.40625 Z M 1.949219 11.558594 C 1.929688 11.558594 1.914062 11.570312 1.914062 11.589844 C 1.914062 11.589844 1.914062 11.589844 1.914062 11.59375 L 1.914062 12.390625 C 1.914062 12.410156 1.929688 12.425781 1.949219 12.425781 L 2.515625 12.425781 C 2.535156 12.425781 2.550781 12.410156 2.550781 12.390625 L 2.550781 11.59375 C 2.550781 11.574219 2.535156 11.558594 2.515625 11.558594 Z M 2.652344 11.558594 C 2.632812 11.558594 2.617188 11.570312 2.617188 11.589844 C 2.617188 11.589844 2.617188 11.589844 2.617188 11.59375 L 2.617188 12.390625 C 2.617188 12.410156 2.632812 12.425781 2.652344 12.425781 L 3.207031 12.425781 C 3.222656 12.425781 3.238281 12.410156 3.238281 12.390625 L 3.238281 11.59375 C 3.238281 11.574219 3.222656 11.558594 3.207031 11.558594 Z M 3.425781 11.558594 C 3.40625 11.558594 3.390625 11.570312 3.390625 11.589844 C 3.390625 11.589844 3.390625 11.589844 3.390625 11.59375 L 3.390625 12.390625 C 3.390625 12.410156 3.40625 12.425781 3.425781 12.425781 L 3.992188 12.425781 C 4.011719 12.425781 4.027344 12.410156 4.027344 12.390625 L 4.027344 11.59375 C 4.027344 11.574219 4.011719 11.558594 3.992188 11.558594 Z M 4.128906 11.558594 C 4.109375 11.558594 4.09375 11.570312 4.09375 11.589844 C 4.09375 11.589844 4.09375 11.589844 4.09375 11.59375 L 4.09375 12.390625 C 4.09375 12.410156 4.109375 12.425781 4.128906 12.425781 L 4.695312 12.425781 C 4.714844 12.425781 4.730469 12.410156 4.730469 12.390625 L 4.730469 11.59375 C 4.730469 11.574219 4.714844 11.558594 4.695312 11.558594 Z M 9.210938 11.878906 C 9.195312 11.878906 9.179688 11.890625 9.175781 11.90625 L 8.984375 12.707031 C 8.984375 12.703125 8.984375 12.710938 8.976562 12.722656 C 8.976562 12.726562 8.972656 12.726562 8.972656 12.730469 C 8.964844 12.742188 8.960938 12.75 8.953125 12.761719 C 8.953125 12.761719 8.949219 12.761719 8.945312 12.769531 C 8.933594 12.777344 8.925781 12.78125 8.917969 12.785156 C 8.914062 12.789062 8.90625 12.789062 8.902344 12.792969 C 8.894531 12.796875 8.886719 12.796875 8.875 12.796875 C 8.875 12.796875 8.875 12.796875 8.871094 12.796875 C 8.859375 12.800781 8.855469 12.800781 8.859375 12.800781 L 7.746094 12.800781 C 7.726562 12.800781 7.710938 12.816406 7.710938 12.835938 L 7.710938 15.425781 C 7.710938 15.445312 7.726562 15.460938 7.746094 15.460938 L 15.308594 15.460938 C 15.328125 15.460938 15.34375 15.445312 15.34375 15.425781 L 15.34375 12.835938 C 15.34375 12.816406 15.328125 12.800781 15.308594 12.800781 L 13.410156 12.800781 C 13.417969 12.800781 13.414062 12.800781 13.398438 12.796875 C 13.386719 12.796875 13.378906 12.796875 13.371094 12.792969 C 13.363281 12.789062 13.359375 12.789062 13.355469 12.785156 C 13.347656 12.78125 13.339844 12.777344 13.328125 12.769531 C 13.324219 12.765625 13.324219 12.761719 13.320312 12.761719 C 13.3125 12.75 13.304688 12.742188 13.300781 12.734375 C 13.300781 12.734375 13.300781 12.730469 13.300781 12.730469 C 13.300781 12.730469 13.296875 12.726562 13.296875 12.722656 C 13.289062 12.707031 13.285156 12.703125 13.289062 12.707031 L 13.09375 11.90625 C 13.09375 11.890625 13.078125 11.878906 13.0625 11.878906 Z M 1.949219 12.574219 C 1.929688 12.574219 1.914062 12.589844 1.914062 12.609375 L 1.914062 13.515625 C 1.914062 13.535156 1.929688 13.550781 1.949219 13.550781 L 2.515625 13.550781 C 2.535156 13.550781 2.550781 13.535156 2.550781 13.515625 L 2.550781 12.609375 C 2.550781 12.59375 2.535156 12.574219 2.515625 12.574219 Z M 2.652344 12.574219 C 2.632812 12.574219 2.617188 12.589844 2.617188 12.609375 L 2.617188 13.511719 C 2.617188 13.53125 2.632812 13.546875 2.652344 13.546875 L 3.207031 13.546875 C 3.222656 13.546875 3.238281 13.53125 3.238281 13.511719 L 3.238281 12.609375 C 3.238281 12.59375 3.222656 12.574219 3.207031 12.574219 Z M 3.425781 12.574219 C 3.40625 12.574219 3.390625 12.589844 3.390625 12.609375 L 3.390625 13.511719 C 3.390625 13.53125 3.40625 13.546875 3.425781 13.546875 L 3.992188 13.546875 C 4.011719 13.546875 4.027344 13.535156 4.027344 13.515625 C 4.027344 13.515625 4.027344 13.515625 4.027344 13.511719 L 4.027344 12.609375 C 4.027344 12.589844 4.011719 12.574219 3.992188 12.574219 Z M 4.128906 12.574219 C 4.109375 12.574219 4.09375 12.589844 4.09375 12.609375 L 4.09375 13.511719 C 4.09375 13.53125 4.109375 13.546875 4.128906 13.546875 L 4.695312 13.546875 C 4.714844 13.546875 4.730469 13.535156 4.730469 13.515625 C 4.730469 13.515625 4.730469 13.515625 4.730469 13.511719 L 4.730469 12.609375 C 4.730469 12.59375 4.714844 12.574219 4.695312 12.574219 Z M 6.929688 12.800781 C 6.910156 12.800781 6.894531 12.8125 6.894531 12.832031 L 6.894531 16.128906 C 6.894531 16.148438 6.910156 16.164062 6.929688 16.164062 C 6.9375 16.164062 6.949219 16.160156 6.957031 16.152344 L 7.464844 15.566406 C 7.46875 15.5625 7.472656 15.554688 7.472656 15.546875 L 7.472656 12.832031 C 7.472656 12.8125 7.457031 12.796875 7.4375 12.796875 L 6.929688 12.796875 Z M 9.8125 13.042969 C 9.816406 13.042969 9.816406 13.042969 9.816406 13.042969 L 10.371094 13.042969 C 10.382812 13.042969 10.394531 13.050781 10.394531 13.0625 L 10.394531 13.851562 C 10.394531 13.863281 10.382812 13.871094 10.371094 13.871094 L 9.816406 13.871094 C 9.804688 13.871094 9.792969 13.863281 9.792969 13.851562 L 9.792969 13.0625 C 9.792969 13.050781 9.800781 13.042969 9.8125 13.042969 Z M 10.503906 13.042969 C 10.507812 13.042969 10.507812 13.042969 10.507812 13.042969 L 11.054688 13.042969 C 11.066406 13.042969 11.074219 13.050781 11.074219 13.0625 L 11.074219 13.851562 C 11.074219 13.863281 11.066406 13.871094 11.054688 13.871094 L 10.507812 13.871094 C 10.496094 13.871094 10.488281 13.863281 10.488281 13.851562 L 10.488281 13.0625 C 10.488281 13.050781 10.496094 13.042969 10.503906 13.042969 Z M 11.269531 13.042969 L 11.828125 13.042969 C 11.839844 13.042969 11.851562 13.050781 11.851562 13.0625 L 11.851562 13.851562 C 11.851562 13.863281 11.839844 13.871094 11.828125 13.871094 L 11.269531 13.871094 C 11.257812 13.871094 11.25 13.863281 11.25 13.851562 L 11.25 13.0625 C 11.25 13.050781 11.257812 13.042969 11.269531 13.042969 Z M 11.960938 13.042969 C 11.960938 13.042969 11.964844 13.042969 11.964844 13.042969 L 12.519531 13.042969 C 12.53125 13.042969 12.542969 13.050781 12.542969 13.0625 L 12.542969 13.851562 C 12.542969 13.863281 12.53125 13.871094 12.519531 13.871094 L 11.964844 13.871094 C 11.953125 13.871094 11.941406 13.863281 11.941406 13.851562 L 11.941406 13.0625 C 11.941406 13.050781 11.953125 13.042969 11.960938 13.042969 Z M 9.8125 14.046875 C 9.816406 14.046875 9.816406 14.046875 9.816406 14.046875 L 10.371094 14.046875 C 10.382812 14.046875 10.394531 14.054688 10.394531 14.066406 L 10.394531 14.957031 C 10.394531 14.96875 10.382812 14.976562 10.371094 14.976562 L 9.816406 14.976562 C 9.804688 14.976562 9.792969 14.96875 9.792969 14.957031 L 9.792969 14.066406 C 9.792969 14.054688 9.800781 14.046875 9.8125 14.046875 Z M 10.503906 14.046875 C 10.507812 14.046875 10.507812 14.046875 10.507812 14.046875 L 11.054688 14.046875 C 11.066406 14.046875 11.074219 14.054688 11.074219 14.066406 L 11.074219 14.957031 C 11.074219 14.96875 11.066406 14.976562 11.054688 14.976562 L 10.507812 14.976562 C 10.496094 14.976562 10.488281 14.96875 10.488281 14.957031 L 10.488281 14.066406 C 10.488281 14.054688 10.496094 14.046875 10.503906 14.046875 Z M 11.269531 14.046875 L 11.828125 14.046875 C 11.839844 14.046875 11.851562 14.054688 11.851562 14.066406 L 11.851562 14.957031 C 11.851562 14.96875 11.839844 14.976562 11.828125 14.976562 L 11.269531 14.976562 C 11.257812 14.976562 11.25 14.964844 11.25 14.957031 L 11.25 14.066406 C 11.25 14.054688 11.257812 14.046875 11.269531 14.046875 Z M 11.960938 14.046875 C 11.960938 14.046875 11.964844 14.046875 11.964844 14.046875 L 12.519531 14.046875 C 12.53125 14.046875 12.542969 14.054688 12.542969 14.066406 L 12.542969 14.957031 C 12.542969 14.96875 12.53125 14.976562 12.519531 14.976562 L 11.964844 14.976562 C 11.953125 14.976562 11.941406 14.964844 11.941406 14.957031 L 11.941406 14.066406 C 11.941406 14.054688 11.953125 14.046875 11.960938 14.046875 Z M 23.800781 16.050781 L 24.792969 17.101562 L 24.800781 17.105469 C 24.8125 17.117188 24.824219 17.136719 24.832031 17.152344 C 24.835938 17.167969 24.839844 17.179688 24.839844 17.195312 C 24.84375 17.203125 24.84375 17.207031 24.84375 17.214844 C 24.84375 17.304688 24.769531 17.378906 24.679688 17.378906 C 24.632812 17.378906 24.589844 17.359375 24.558594 17.324219 L 24.550781 17.316406 L 23.527344 16.238281 L 23.527344 17.988281 L 30.101562 17.988281 L 27.25 16.054688 L 23.800781 16.054688 Z M 1.074219 16.3125 L 5.554688 16.3125 C 5.621094 16.3125 5.675781 16.363281 5.675781 16.429688 L 5.675781 21.207031 C 5.675781 21.273438 5.621094 21.324219 5.554688 21.324219 L 1.074219 21.324219 C 1.007812 21.324219 0.953125 21.273438 0.953125 21.207031 L 0.953125 16.429688 C 0.953125 16.367188 1.007812 16.3125 1.074219 16.3125 Z M 16.894531 16.359375 L 17.539062 16.359375 L 17.539062 17.566406 L 16.902344 17.566406 C 16.898438 17.566406 16.898438 17.570312 16.894531 17.570312 Z M 17.675781 16.359375 L 18.347656 16.359375 L 18.347656 17.566406 L 17.675781 17.566406 Z M 18.484375 16.359375 L 19.175781 16.359375 L 19.175781 17.566406 L 18.484375 17.566406 Z M 19.394531 16.359375 L 20.050781 16.359375 L 20.050781 17.566406 L 19.394531 17.566406 Z M 20.1875 16.359375 L 20.859375 16.359375 L 20.859375 17.566406 L 20.1875 17.566406 Z M 20.996094 16.359375 L 21.675781 16.359375 L 21.675781 17.570312 C 21.671875 17.570312 21.667969 17.566406 21.664062 17.566406 L 20.996094 17.566406 Z M 1.136719 16.460938 C 1.121094 16.460938 1.105469 16.476562 1.101562 16.496094 L 1.101562 17.703125 C 1.101562 17.722656 1.117188 17.738281 1.136719 17.738281 L 1.742188 17.738281 C 1.761719 17.738281 1.777344 17.726562 1.777344 17.707031 C 1.777344 17.703125 1.777344 17.703125 1.777344 17.703125 L 1.777344 16.496094 C 1.777344 16.476562 1.761719 16.460938 1.742188 16.460938 Z M 1.878906 16.460938 C 1.859375 16.460938 1.84375 16.476562 1.84375 16.496094 L 1.84375 17.703125 C 1.84375 17.722656 1.859375 17.738281 1.878906 17.738281 L 2.472656 17.738281 C 2.492188 17.738281 2.507812 17.726562 2.507812 17.707031 C 2.507812 17.703125 2.507812 17.703125 2.507812 17.703125 L 2.507812 16.496094 C 2.507812 16.476562 2.492188 16.460938 2.472656 16.460938 Z M 2.609375 16.460938 C 2.589844 16.460938 2.574219 16.476562 2.574219 16.496094 L 2.574219 17.703125 C 2.574219 17.722656 2.589844 17.738281 2.609375 17.738281 L 3.222656 17.738281 C 3.242188 17.738281 3.253906 17.726562 3.257812 17.707031 C 3.257812 17.703125 3.257812 17.703125 3.257812 17.703125 L 3.257812 16.496094 C 3.257812 16.476562 3.242188 16.460938 3.222656 16.460938 Z M 3.441406 16.460938 C 3.421875 16.460938 3.410156 16.476562 3.40625 16.496094 L 3.40625 17.703125 C 3.40625 17.722656 3.421875 17.738281 3.441406 17.738281 L 4.039062 17.738281 C 4.058594 17.738281 4.074219 17.726562 4.074219 17.707031 C 4.074219 17.703125 4.074219 17.703125 4.074219 17.703125 L 4.074219 16.496094 C 4.074219 16.476562 4.058594 16.460938 4.039062 16.460938 Z M 4.179688 16.460938 C 4.160156 16.460938 4.144531 16.476562 4.144531 16.496094 L 4.144531 17.703125 C 4.144531 17.722656 4.15625 17.738281 4.175781 17.738281 L 4.769531 17.738281 C 4.789062 17.738281 4.804688 17.726562 4.804688 17.707031 C 4.804688 17.703125 4.804688 17.703125 4.804688 17.703125 L 4.804688 16.496094 C 4.804688 16.476562 4.789062 16.460938 4.769531 16.460938 Z M 4.910156 16.460938 C 4.890625 16.460938 4.875 16.476562 4.875 16.496094 L 4.875 17.703125 C 4.875 17.722656 4.886719 17.738281 4.90625 17.738281 C 4.90625 17.738281 4.90625 17.738281 4.910156 17.738281 L 5.492188 17.738281 C 5.511719 17.738281 5.523438 17.726562 5.527344 17.707031 C 5.527344 17.703125 5.527344 17.703125 5.527344 17.703125 L 5.527344 16.496094 C 5.527344 16.476562 5.511719 16.460938 5.492188 16.460938 Z M 8.121094 17.617188 C 8.101562 17.617188 8.085938 17.632812 8.085938 17.652344 L 8.085938 19.132812 C 8.085938 19.152344 8.101562 19.167969 8.121094 19.167969 L 8.9375 19.167969 C 8.957031 19.167969 8.972656 19.152344 8.972656 19.132812 L 8.972656 17.652344 C 8.972656 17.632812 8.957031 17.617188 8.9375 17.617188 Z M 9.074219 17.617188 C 9.054688 17.617188 9.039062 17.632812 9.039062 17.652344 L 9.039062 19.132812 C 9.039062 19.152344 9.054688 19.167969 9.074219 19.167969 L 9.929688 19.167969 C 9.949219 19.167969 9.964844 19.152344 9.964844 19.132812 L 9.964844 17.652344 C 9.964844 17.632812 9.949219 17.617188 9.933594 17.617188 Z M 10.152344 17.617188 C 10.132812 17.617188 10.117188 17.632812 10.117188 17.652344 L 10.117188 19.132812 C 10.117188 19.152344 10.132812 19.167969 10.152344 19.167969 L 11.011719 19.167969 C 11.03125 19.167969 11.046875 19.152344 11.046875 19.132812 L 11.046875 17.652344 C 11.046875 17.632812 11.03125 17.617188 11.011719 17.617188 Z M 11.152344 17.617188 C 11.132812 17.617188 11.117188 17.632812 11.117188 17.652344 L 11.117188 19.132812 C 11.117188 19.152344 11.128906 19.167969 11.148438 19.167969 L 12.035156 19.167969 C 12.054688 19.167969 12.066406 19.152344 12.070312 19.132812 L 12.070312 17.652344 C 12.070312 17.632812 12.054688 17.617188 12.035156 17.617188 Z M 12.253906 17.617188 C 12.234375 17.617188 12.222656 17.632812 12.21875 17.652344 L 12.21875 19.132812 C 12.21875 19.152344 12.234375 19.167969 12.253906 19.167969 L 13.117188 19.167969 C 13.136719 19.167969 13.148438 19.152344 13.152344 19.132812 L 13.152344 17.652344 C 13.152344 17.632812 13.136719 17.617188 13.117188 17.617188 Z M 13.253906 17.617188 C 13.234375 17.617188 13.21875 17.632812 13.21875 17.652344 L 13.21875 19.132812 C 13.21875 19.152344 13.234375 19.167969 13.25 19.167969 C 13.25 19.167969 13.25 19.167969 13.253906 19.167969 L 14.164062 19.167969 C 14.183594 19.167969 14.199219 19.152344 14.199219 19.132812 L 14.199219 17.652344 C 14.199219 17.632812 14.183594 17.617188 14.164062 17.617188 Z M 16.894531 17.78125 C 16.898438 17.78125 16.898438 17.785156 16.902344 17.785156 L 17.914062 17.785156 L 17.914062 19.21875 L 16.902344 19.21875 C 16.898438 19.21875 16.898438 19.222656 16.894531 19.222656 Z M 21.675781 17.78125 L 21.675781 19.222656 C 21.671875 19.222656 21.667969 19.21875 21.664062 19.21875 L 20.632812 19.21875 L 20.632812 17.785156 L 21.664062 17.785156 C 21.667969 17.785156 21.671875 17.78125 21.675781 17.78125 Z M 18.132812 17.785156 L 19.175781 17.785156 L 19.175781 19.21875 L 18.132812 19.21875 Z M 19.394531 17.785156 L 20.414062 17.785156 L 20.414062 19.21875 L 19.394531 19.21875 Z M 1.136719 17.890625 C 1.121094 17.890625 1.105469 17.90625 1.101562 17.925781 L 1.101562 19.359375 C 1.101562 19.378906 1.117188 19.394531 1.136719 19.394531 L 2.0625 19.394531 C 2.082031 19.394531 2.097656 19.378906 2.097656 19.359375 L 2.097656 17.925781 C 2.097656 17.90625 2.082031 17.890625 2.0625 17.890625 Z M 2.28125 17.890625 C 2.261719 17.890625 2.246094 17.90625 2.246094 17.925781 L 2.246094 19.359375 C 2.246094 19.378906 2.261719 19.394531 2.28125 19.394531 L 3.222656 19.394531 C 3.242188 19.394531 3.253906 19.378906 3.257812 19.359375 L 3.257812 17.925781 C 3.257812 17.90625 3.242188 17.890625 3.222656 17.890625 Z M 3.441406 17.890625 C 3.421875 17.890625 3.410156 17.90625 3.40625 17.925781 L 3.40625 19.359375 C 3.40625 19.378906 3.421875 19.394531 3.441406 19.394531 L 4.34375 19.394531 C 4.363281 19.394531 4.378906 19.378906 4.378906 19.359375 L 4.378906 17.925781 C 4.378906 17.90625 4.367188 17.890625 4.347656 17.890625 Z M 4.566406 17.890625 C 4.546875 17.890625 4.53125 17.90625 4.53125 17.925781 L 4.53125 19.359375 C 4.53125 19.378906 4.542969 19.394531 4.5625 19.394531 L 5.488281 19.394531 C 5.507812 19.394531 5.523438 19.378906 5.523438 19.359375 L 5.523438 17.925781 C 5.523438 17.90625 5.511719 17.890625 5.492188 17.890625 C 5.492188 17.890625 5.492188 17.890625 5.488281 17.890625 Z M 23.527344 18.3125 L 23.527344 22.339844 L 24.996094 22.339844 L 24.996094 19.261719 C 24.996094 19.179688 25.066406 19.109375 25.152344 19.109375 L 28.027344 19.109375 C 28.113281 19.109375 28.179688 19.179688 28.179688 19.261719 L 28.179688 22.339844 L 29.714844 22.339844 L 29.714844 18.3125 Z M 8.121094 19.316406 C 8.101562 19.316406 8.085938 19.332031 8.085938 19.351562 L 8.085938 20.707031 C 8.085938 20.726562 8.101562 20.742188 8.121094 20.742188 L 8.9375 20.742188 C 8.957031 20.742188 8.972656 20.726562 8.972656 20.710938 C 8.972656 20.707031 8.972656 20.707031 8.972656 20.707031 L 8.972656 19.351562 C 8.972656 19.332031 8.957031 19.316406 8.9375 19.316406 Z M 9.074219 19.316406 C 9.054688 19.316406 9.039062 19.332031 9.039062 19.351562 L 9.039062 20.707031 C 9.039062 20.726562 9.054688 20.742188 9.074219 20.742188 L 9.929688 20.742188 C 9.949219 20.742188 9.964844 20.726562 9.964844 20.710938 C 9.964844 20.707031 9.964844 20.707031 9.964844 20.707031 L 9.964844 19.351562 C 9.964844 19.332031 9.949219 19.316406 9.933594 19.316406 Z M 10.152344 19.316406 C 10.132812 19.316406 10.117188 19.332031 10.117188 19.351562 L 10.117188 20.707031 C 10.117188 20.726562 10.132812 20.742188 10.152344 20.742188 L 11.011719 20.742188 C 11.03125 20.742188 11.046875 20.726562 11.046875 20.710938 C 11.046875 20.707031 11.046875 20.707031 11.046875 20.707031 L 11.046875 19.351562 C 11.046875 19.332031 11.03125 19.316406 11.011719 19.316406 Z M 11.152344 19.316406 C 11.132812 19.316406 11.117188 19.332031 11.117188 19.351562 L 11.117188 20.707031 C 11.117188 20.726562 11.128906 20.742188 11.148438 20.742188 L 12.035156 20.742188 C 12.054688 20.742188 12.066406 20.726562 12.070312 20.710938 C 12.070312 20.707031 12.070312 20.707031 12.070312 20.707031 L 12.070312 19.351562 C 12.070312 19.332031 12.054688 19.316406 12.035156 19.316406 Z M 12.253906 19.316406 C 12.234375 19.316406 12.222656 19.332031 12.21875 19.351562 L 12.21875 20.707031 C 12.21875 20.726562 12.234375 20.742188 12.253906 20.742188 L 13.117188 20.742188 C 13.136719 20.742188 13.148438 20.726562 13.152344 20.710938 C 13.152344 20.707031 13.152344 20.707031 13.152344 20.707031 L 13.152344 19.351562 C 13.152344 19.332031 13.136719 19.316406 13.117188 19.316406 Z M 13.253906 19.316406 C 13.234375 19.316406 13.21875 19.332031 13.21875 19.351562 L 13.21875 20.707031 C 13.21875 20.726562 13.234375 20.742188 13.25 20.742188 C 13.25 20.742188 13.25 20.742188 13.253906 20.742188 L 14.144531 20.742188 C 14.148438 20.746094 14.152344 20.746094 14.160156 20.746094 C 14.179688 20.75 14.195312 20.734375 14.199219 20.71875 C 14.199219 20.71875 14.199219 20.714844 14.199219 20.714844 L 14.199219 19.351562 C 14.199219 19.332031 14.183594 19.316406 14.164062 19.316406 Z M 25.214844 19.328125 L 25.214844 20.125 L 25.78125 20.125 L 25.78125 19.328125 Z M 25.917969 19.328125 L 25.917969 20.125 L 26.472656 20.125 L 26.472656 19.328125 Z M 26.695312 19.328125 L 26.695312 20.125 L 27.257812 20.125 L 27.257812 19.328125 Z M 27.398438 19.328125 L 27.398438 20.125 L 27.960938 20.125 L 27.960938 19.328125 Z M 16.894531 19.4375 C 16.898438 19.4375 16.898438 19.441406 16.902344 19.441406 L 17.914062 19.441406 L 17.914062 21.003906 L 16.894531 21.003906 Z M 21.675781 19.4375 L 21.675781 21.003906 L 20.636719 21.003906 L 20.636719 19.441406 L 21.664062 19.441406 C 21.667969 19.441406 21.671875 19.4375 21.675781 19.4375 Z M 18.132812 19.441406 L 19.175781 19.441406 L 19.175781 21.003906 L 18.132812 21.003906 Z M 19.394531 19.441406 L 20.414062 19.441406 L 20.414062 21.003906 L 19.394531 21.003906 Z M 1.136719 19.542969 C 1.121094 19.542969 1.105469 19.558594 1.101562 19.578125 L 1.101562 21.140625 C 1.101562 21.160156 1.117188 21.175781 1.136719 21.175781 L 2.0625 21.175781 C 2.082031 21.175781 2.097656 21.160156 2.097656 21.140625 L 2.097656 19.578125 C 2.097656 19.558594 2.082031 19.542969 2.0625 19.542969 Z M 2.28125 19.542969 C 2.261719 19.542969 2.246094 19.558594 2.246094 19.578125 L 2.246094 21.140625 C 2.246094 21.160156 2.261719 21.175781 2.28125 21.175781 L 3.222656 21.175781 C 3.242188 21.175781 3.253906 21.160156 3.257812 21.140625 L 3.257812 19.578125 C 3.257812 19.558594 3.242188 19.542969 3.222656 19.542969 Z M 3.441406 19.542969 C 3.421875 19.542969 3.410156 19.558594 3.40625 19.578125 L 3.40625 21.140625 C 3.40625 21.160156 3.421875 21.175781 3.441406 21.175781 L 4.34375 21.175781 C 4.363281 21.175781 4.378906 21.160156 4.378906 21.140625 L 4.378906 19.578125 C 4.378906 19.558594 4.367188 19.542969 4.347656 19.542969 Z M 4.566406 19.542969 C 4.546875 19.542969 4.53125 19.558594 4.53125 19.578125 L 4.53125 21.140625 C 4.53125 21.160156 4.542969 21.175781 4.5625 21.175781 L 5.488281 21.175781 C 5.507812 21.175781 5.523438 21.160156 5.523438 21.140625 L 5.523438 19.578125 C 5.523438 19.558594 5.507812 19.542969 5.488281 19.542969 Z M 25.214844 20.347656 L 25.214844 21.296875 L 25.78125 21.296875 L 25.78125 20.347656 Z M 25.917969 20.347656 L 25.917969 21.296875 L 26.472656 21.296875 L 26.472656 20.347656 Z M 26.695312 20.347656 L 26.695312 21.296875 L 27.257812 21.296875 L 27.257812 20.347656 Z M 27.398438 20.347656 L 27.398438 21.296875 L 27.960938 21.296875 L 27.960938 20.347656 Z M 14.167969 20.886719 C 14.164062 20.886719 14.164062 20.886719 14.160156 20.886719 C 14.152344 20.890625 14.148438 20.890625 14.144531 20.894531 L 13.253906 20.894531 C 13.234375 20.894531 13.21875 20.90625 13.21875 20.925781 C 13.21875 20.929688 13.21875 20.929688 13.21875 20.929688 L 13.21875 22.296875 C 13.21875 22.316406 13.234375 22.332031 13.253906 22.332031 L 14.164062 22.332031 C 14.183594 22.332031 14.199219 22.316406 14.199219 22.296875 L 14.199219 20.921875 C 14.199219 20.902344 14.183594 20.886719 14.167969 20.886719 Z M 8.121094 20.894531 C 8.101562 20.894531 8.085938 20.90625 8.085938 20.925781 C 8.085938 20.929688 8.085938 20.929688 8.085938 20.929688 L 8.085938 22.296875 C 8.085938 22.316406 8.101562 22.332031 8.121094 22.332031 L 8.9375 22.332031 C 8.957031 22.332031 8.972656 22.316406 8.972656 22.296875 L 8.972656 20.929688 C 8.972656 20.910156 8.957031 20.894531 8.9375 20.894531 Z M 9.074219 20.894531 C 9.054688 20.894531 9.039062 20.90625 9.039062 20.925781 C 9.039062 20.929688 9.039062 20.929688 9.039062 20.929688 L 9.039062 22.296875 C 9.039062 22.316406 9.054688 22.332031 9.074219 22.332031 L 9.929688 22.332031 C 9.949219 22.332031 9.964844 22.316406 9.964844 22.296875 L 9.964844 20.929688 C 9.964844 20.910156 9.949219 20.894531 9.933594 20.894531 Z M 10.152344 20.894531 C 10.132812 20.894531 10.117188 20.90625 10.117188 20.925781 C 10.117188 20.929688 10.117188 20.929688 10.117188 20.929688 L 10.117188 22.296875 C 10.117188 22.316406 10.132812 22.332031 10.152344 22.332031 L 11.011719 22.332031 C 11.03125 22.332031 11.046875 22.316406 11.046875 22.296875 L 11.046875 20.929688 C 11.046875 20.910156 11.03125 20.894531 11.011719 20.894531 Z M 11.152344 20.894531 C 11.132812 20.894531 11.117188 20.90625 11.117188 20.925781 C 11.117188 20.929688 11.117188 20.929688 11.117188 20.929688 L 11.117188 22.296875 C 11.117188 22.316406 11.128906 22.332031 11.148438 22.332031 L 12.035156 22.332031 C 12.054688 22.332031 12.066406 22.316406 12.070312 22.296875 L 12.070312 20.929688 C 12.070312 20.910156 12.054688 20.894531 12.035156 20.894531 Z M 12.253906 20.894531 C 12.234375 20.894531 12.222656 20.90625 12.21875 20.925781 C 12.21875 20.929688 12.21875 20.929688 12.21875 20.929688 L 12.21875 22.296875 C 12.21875 22.316406 12.234375 22.332031 12.253906 22.332031 L 13.117188 22.332031 C 13.136719 22.332031 13.148438 22.316406 13.152344 22.296875 L 13.152344 20.929688 C 13.152344 20.910156 13.136719 20.894531 13.117188 20.894531 Z M 25.214844 21.433594 L 25.214844 22.339844 L 25.78125 22.339844 L 25.78125 21.433594 Z M 25.917969 21.433594 L 25.917969 22.339844 L 26.472656 22.339844 L 26.472656 21.433594 Z M 26.695312 21.433594 L 26.695312 22.339844 L 27.257812 22.339844 L 27.257812 21.433594 Z M 27.398438 21.433594 L 27.398438 22.339844 L 27.960938 22.339844 L 27.960938 21.433594 Z M 27.398438 21.433594 " fill-opacity="1" fill-rule="nonzero"/></g></svg>